<?xml version="1.0" encoding="UTF-8"?>
<svg id="Camada_2" data-name="Camada 2" xmlns="http://www.w3.org/2000/svg" xmlns:xlink="http://www.w3.org/1999/xlink" viewBox="0 0 382.32 395.98">
  <defs>
    <radialGradient id="Gradiente_sem_nome_97" data-name="Gradiente sem nome 97" cx="337.53" cy="34.92" fx="337.53" fy="34.92" r="35" gradientTransform="translate(-164.74 276.72) rotate(-52) scale(1.03 1.02) skewX(-1.54)" gradientUnits="userSpaceOnUse">
      <stop offset=".04" stop-color="#533174"/>
      <stop offset=".19" stop-color="#4f2e6e"/>
      <stop offset=".39" stop-color="#43275e"/>
      <stop offset=".61" stop-color="#311b43"/>
      <stop offset=".79" stop-color="#1e0f28"/>
    </radialGradient>
    <radialGradient id="Gradiente_sem_nome_96" data-name="Gradiente sem nome 96" cx="272.6" cy="157.06" fx="272.6" fy="157.06" r="64.6" gradientTransform="translate(-163.08 237.01) rotate(-50.28) scale(1.03 1.02) skewX(-1.58)" gradientUnits="userSpaceOnUse">
      <stop offset="0" stop-color="#533174"/>
      <stop offset=".15" stop-color="#4f2e6e"/>
      <stop offset=".35" stop-color="#43275e"/>
      <stop offset=".57" stop-color="#311b43"/>
      <stop offset=".75" stop-color="#1e0f28"/>
    </radialGradient>
    <radialGradient id="Gradiente_sem_nome_102" data-name="Gradiente sem nome 102" cx="597.96" cy="62.27" fx="597.96" fy="62.27" r="65.09" gradientTransform="translate(-145.12 680.69) rotate(-68.91) scale(1.03 1.01) skewX(-.88)" gradientUnits="userSpaceOnUse">
      <stop offset=".28" stop-color="#1e0f28"/>
      <stop offset=".94" stop-color="#533174"/>
    </radialGradient>
    <linearGradient id="Gradiente_sem_nome_389" data-name="Gradiente sem nome 389" x1="2858.72" y1="-1835.06" x2="2878.58" y2="-1835.06" gradientTransform="translate(3048.21 1824.59) rotate(-117.69)" gradientUnits="userSpaceOnUse">
      <stop offset="0" stop-color="#4e9a92"/>
      <stop offset=".6" stop-color="#5cab66"/>
      <stop offset="1" stop-color="#65b54f"/>
    </linearGradient>
    <linearGradient id="Gradiente_sem_nome_389-2" data-name="Gradiente sem nome 389" x1="2860.41" y1="-1835.15" x2="2871.07" y2="-1835.15" xlink:href="#Gradiente_sem_nome_389"/>
    <radialGradient id="Gradiente_sem_nome_96-2" data-name="Gradiente sem nome 96" cx="3544.41" cy="-1059.39" fx="3544.41" fy="-1059.39" r="38.95" gradientTransform="translate(3718.17 -893.78) rotate(146.53) scale(1.02 -1.02) skewX(1.66)" xlink:href="#Gradiente_sem_nome_96"/>
    <radialGradient id="Gradiente_sem_nome_102-2" data-name="Gradiente sem nome 102" cx="4087.53" cy="-23.68" fx="4087.53" fy="-23.68" r="39.44" gradientTransform="translate(4142.24 -814.58) rotate(165.81) scale(1.01 -1.03) skewX(1.08)" xlink:href="#Gradiente_sem_nome_102"/>
    <radialGradient id="Gradiente_sem_nome_571" data-name="Gradiente sem nome 571" cx="660.18" cy="643.67" fx="642.81" fy="655.66" r="21.1" gradientTransform="translate(199.63 -1316.91) rotate(138.32) scale(1.6 -1.49) skewX(2.12)" gradientUnits="userSpaceOnUse">
      <stop offset=".54" stop-color="#ea4e49"/>
      <stop offset=".61" stop-color="#dc4e4e"/>
      <stop offset=".74" stop-color="#b74e5c"/>
      <stop offset=".91" stop-color="#7d4e72"/>
      <stop offset="1" stop-color="#5c4f7f"/>
    </radialGradient>
    <radialGradient id="Gradiente_sem_nome_571-2" data-name="Gradiente sem nome 571" cx="1025.99" cy="502.5" fx="1025.99" fy="502.5" r="62.05" gradientTransform="translate(-1633.45 770.88) rotate(-45.4) scale(1.6 1.48) skewX(-1.55)" xlink:href="#Gradiente_sem_nome_571"/>
    <radialGradient id="Gradiente_sem_nome_96-3" data-name="Gradiente sem nome 96" cx="627.76" cy="712.58" fx="627.76" fy="712.58" r="38.95" gradientTransform="translate(141.31 -1310.33) rotate(136.71) scale(1.6 -1.48) skewX(1.87)" xlink:href="#Gradiente_sem_nome_96"/>
    <radialGradient id="Gradiente_sem_nome_102-3" data-name="Gradiente sem nome 102" cx="753.09" cy="703.11" fx="753.09" fy="703.11" r="39.44" gradientTransform="translate(792.55 -1327.28) rotate(154.59) scale(1.57 -1.51) skewX(4.07)" xlink:href="#Gradiente_sem_nome_102"/>
    <linearGradient id="Gradiente_sem_nome_385" data-name="Gradiente sem nome 385" x1="-729.06" y1="-484.52" x2="-694.09" y2="-484.52" gradientTransform="translate(1002.54 285.98) rotate(-19.66) scale(1.02 .92) skewX(-3.35)" gradientUnits="userSpaceOnUse">
      <stop offset="0" stop-color="#a35816"/>
      <stop offset=".18" stop-color="#9f5d19"/>
      <stop offset=".41" stop-color="#946d22"/>
      <stop offset=".66" stop-color="#838732"/>
      <stop offset=".93" stop-color="#6baa48"/>
      <stop offset="1" stop-color="#65b54f"/>
    </linearGradient>
    <linearGradient id="Gradiente_sem_nome_385-2" data-name="Gradiente sem nome 385" x1="1213.54" y1="-935.96" x2="1227.02" y2="-935.96" gradientTransform="translate(812.19 1513.3) rotate(-76.09)" xlink:href="#Gradiente_sem_nome_385"/>
    <radialGradient id="Gradiente_sem_nome_96-4" data-name="Gradiente sem nome 96" cx="-758.87" cy="-403.96" fx="-758.87" fy="-403.96" r="38.95" gradientTransform="translate(1005.67 267.17) rotate(-19.37) scale(1.02 .93) skewX(-5.96)" xlink:href="#Gradiente_sem_nome_96"/>
    <radialGradient id="Gradiente_sem_nome_102-4" data-name="Gradiente sem nome 102" cx="-194.9" cy="-803.77" fx="-194.9" fy="-803.77" r="39.44" gradientTransform="translate(763.56 640.31) rotate(-36.11) scale(1.05 .91) skewX(-1.67)" xlink:href="#Gradiente_sem_nome_102"/>
    <radialGradient id="Gradiente_sem_nome_315" data-name="Gradiente sem nome 315" cx="383.2" cy="141.85" fx="383.2" fy="141.85" r="22.92" gradientTransform="translate(-130.03 150.08) rotate(-45.4) scale(1.02) skewX(-1.66)" gradientUnits="userSpaceOnUse">
      <stop offset="0" stop-color="#a35c53"/>
      <stop offset=".14" stop-color="#9d5c53"/>
      <stop offset=".32" stop-color="#8e5c55"/>
      <stop offset=".51" stop-color="#755d57"/>
      <stop offset=".72" stop-color="#525f5b"/>
      <stop offset=".94" stop-color="#25615f"/>
      <stop offset="1" stop-color="#176261"/>
    </radialGradient>
    <radialGradient id="Gradiente_sem_nome_316" data-name="Gradiente sem nome 316" cx="296.39" cy="118" fx="296.39" fy="118" r="41.98" gradientTransform="translate(-130.03 150.08) rotate(-45.4) scale(1.02) skewX(-1.66)" gradientUnits="userSpaceOnUse">
      <stop offset=".3" stop-color="#a35c53"/>
      <stop offset=".4" stop-color="#9d5c53"/>
      <stop offset=".53" stop-color="#8e5c55"/>
      <stop offset=".66" stop-color="#755d57"/>
      <stop offset=".81" stop-color="#525f5b"/>
      <stop offset=".96" stop-color="#25615f"/>
      <stop offset="1" stop-color="#176261"/>
    </radialGradient>
    <radialGradient id="Gradiente_sem_nome_96-5" data-name="Gradiente sem nome 96" cx="-27.35" cy="392.36" fx="-27.35" fy="392.36" r="64.6" gradientTransform="translate(28.18 -264.08) rotate(-26.34) scale(1.01 1.03) skewX(-1.53)" xlink:href="#Gradiente_sem_nome_96"/>
    <radialGradient id="Gradiente_sem_nome_102-5" data-name="Gradiente sem nome 102" cx="237.78" cy="187.2" fx="237.78" fy="187.2" r="65.09" gradientTransform="translate(-130.03 150.08) rotate(-45.4) scale(1.02) skewX(-1.66)" xlink:href="#Gradiente_sem_nome_102"/>
    <radialGradient id="Gradiente_sem_nome_313" data-name="Gradiente sem nome 313" cx="2748.33" cy="-2835.52" fx="2748.33" fy="-2835.52" r="31.02" gradientTransform="translate(3721.4 -1248.28) rotate(113.01) scale(1.03 -1.01) skewX(.97)" gradientUnits="userSpaceOnUse">
      <stop offset="0" stop-color="#a11449"/>
      <stop offset=".14" stop-color="#9b1649"/>
      <stop offset=".32" stop-color="#8c1f4c"/>
      <stop offset=".52" stop-color="#732d50"/>
      <stop offset=".73" stop-color="#504157"/>
      <stop offset=".94" stop-color="#235a5e"/>
      <stop offset="1" stop-color="#176261"/>
    </radialGradient>
    <radialGradient id="Gradiente_sem_nome_313-2" data-name="Gradiente sem nome 313" cx="4390.82" cy="-1453.59" fx="4390.82" fy="-1453.59" r="16.01" gradientTransform="translate(4502.94 1467.81) rotate(-145.58) scale(1.01 1.03) skewX(1.44)" xlink:href="#Gradiente_sem_nome_313"/>
    <radialGradient id="Gradiente_sem_nome_96-6" data-name="Gradiente sem nome 96" cx="2599.17" cy="-2797.61" fx="2599.17" fy="-2797.61" r="57.27" gradientTransform="translate(3687.91 -1228.3) rotate(111.31) scale(1.03 -1.01) skewX(.89)" xlink:href="#Gradiente_sem_nome_96"/>
    <radialGradient id="Gradiente_sem_nome_102-6" data-name="Gradiente sem nome 102" cx="3759.15" cy="-1974.85" fx="3759.15" fy="-1974.85" r="57.76" gradientTransform="translate(4078.9 -1418.36) rotate(129.94) scale(1.03 -1.02) skewX(1.59)" xlink:href="#Gradiente_sem_nome_102"/>
    <linearGradient id="Gradiente_sem_nome_385-3" data-name="Gradiente sem nome 385" x1="2259.42" y1="1572.49" x2="2295.39" y2="1572.49" gradientTransform="translate(311.69 -2457.29) rotate(128.06) scale(1.02 -.92) skewX(-3.35)" xlink:href="#Gradiente_sem_nome_385"/>
    <linearGradient id="Gradiente_sem_nome_385-4" data-name="Gradiente sem nome 385" x1="1257.47" y1="2548.43" x2="1270.48" y2="2548.43" gradientTransform="translate(1536.36 -2250.59) rotate(-175.51) scale(1 -1)" xlink:href="#Gradiente_sem_nome_385"/>
    <radialGradient id="Gradiente_sem_nome_96-7" data-name="Gradiente sem nome 96" cx="2253.58" cy="1610.65" fx="2253.58" fy="1610.65" r="38.95" gradientTransform="translate(247.27 -2538.62) rotate(125.74) scale(1.05 -.93) skewX(-2.35)" xlink:href="#Gradiente_sem_nome_96"/>
    <radialGradient id="Gradiente_sem_nome_102-7" data-name="Gradiente sem nome 102" cx="1998.34" cy="2081.23" fx="1998.34" fy="2081.23" r="39.44" gradientTransform="translate(668.07 -2655.51) rotate(142.56) scale(1.05 -.93) skewX(1.74)" xlink:href="#Gradiente_sem_nome_102"/>
    <radialGradient id="Gradiente_sem_nome_313-3" data-name="Gradiente sem nome 313" cx="574.31" cy="280.56" fx="574.31" fy="280.56" r="22.59" gradientTransform="translate(-487.26 230.9) rotate(-39.85) scale(1.02) skewX(-1.7)" xlink:href="#Gradiente_sem_nome_313"/>
    <radialGradient id="Gradiente_sem_nome_313-4" data-name="Gradiente sem nome 313" cx="1715.02" cy="1236.47" fx="1715.02" fy="1236.47" r="11.66" gradientTransform="translate(2267.76 279.61) rotate(-138.4) scale(1.02 -1.03) skewX(-1.62)" xlink:href="#Gradiente_sem_nome_313"/>
    <radialGradient id="Gradiente_sem_nome_96-8" data-name="Gradiente sem nome 96" cx="529.38" cy="356.87" fx="529.38" fy="356.87" r="41.7" gradientTransform="translate(-477.47 192.39) rotate(-38.1) scale(1.02) skewX(-1.7)" xlink:href="#Gradiente_sem_nome_96"/>
    <radialGradient id="Gradiente_sem_nome_102-8" data-name="Gradiente sem nome 102" cx="775.78" cy="334.75" fx="775.78" fy="334.75" r="42.2" gradientTransform="translate(-551.21 630.47) rotate(-56.94) scale(1.03 1.01) skewX(-1.39)" xlink:href="#Gradiente_sem_nome_102"/>
    <radialGradient id="Gradiente_sem_nome_97-2" data-name="Gradiente sem nome 97" cx="370.22" cy="358.89" fx="370.22" fy="358.89" r="35" gradientTransform="translate(238.83 856.57) rotate(-34.64) scale(1.02 -1.02) skewX(1.68)" xlink:href="#Gradiente_sem_nome_97"/>
    <radialGradient id="Gradiente_sem_nome_96-9" data-name="Gradiente sem nome 96" cx="315.11" cy="479.89" fx="315.11" fy="479.89" r="64.6" gradientTransform="translate(277.39 858.31) rotate(-36.39) scale(1.02 -1.02) skewX(1.69)" xlink:href="#Gradiente_sem_nome_96"/>
    <radialGradient id="Gradiente_sem_nome_102-9" data-name="Gradiente sem nome 102" cx="533.15" cy="381.37" fx="533.15" fy="381.37" gradientTransform="translate(-150.16 801.4) rotate(-17.16) scale(1.01 -1.03) skewX(1.21)" xlink:href="#Gradiente_sem_nome_102"/>
    <linearGradient id="Gradiente_sem_nome_389-3" data-name="Gradiente sem nome 389" x1="2531.28" y1="-1667.66" x2="2550.57" y2="-1667.66" gradientTransform="translate(-996.54 -2465.59) rotate(32.66) scale(1 -1)" xlink:href="#Gradiente_sem_nome_389"/>
    <linearGradient id="Gradiente_sem_nome_389-4" data-name="Gradiente sem nome 389" x1="2532.95" y1="-1667.72" x2="2542.93" y2="-1667.72" gradientTransform="translate(-996.54 -2465.59) rotate(32.66) scale(1 -1)" xlink:href="#Gradiente_sem_nome_389"/>
    <radialGradient id="Gradiente_sem_nome_96-10" data-name="Gradiente sem nome 96" cx="3410.17" cy="-762.73" fx="3410.17" fy="-762.73" r="38.95" gradientTransform="translate(1707.59 -3026.57) rotate(126.85) scale(1.03 1.01) skewX(-1.51)" xlink:href="#Gradiente_sem_nome_96"/>
    <radialGradient id="Gradiente_sem_nome_102-10" data-name="Gradiente sem nome 102" cx="3864.09" cy="213.17" fx="3864.09" fy="213.17" r="39.44" gradientTransform="translate(1667.76 -3468.62) rotate(108.25) scale(1.04 1.01) skewX(-.73)" xlink:href="#Gradiente_sem_nome_102"/>
    <radialGradient id="Gradiente_sem_nome_571-3" data-name="Gradiente sem nome 571" cx="600.2" cy="858.56" fx="582.83" fy="870.55" r="21.1" gradientTransform="translate(1811.7 620.84) rotate(134.96) scale(1.6 1.48) skewX(-1.01)" xlink:href="#Gradiente_sem_nome_571"/>
    <radialGradient id="Gradiente_sem_nome_571-4" data-name="Gradiente sem nome 571" cx="1070.76" cy="721.07" fx="1070.76" fy="721.07" r="62.05" gradientTransform="translate(-366.44 2320.91) rotate(-41.31) scale(1.6 -1.48) skewX(1.58)" xlink:href="#Gradiente_sem_nome_571"/>
    <radialGradient id="Gradiente_sem_nome_96-11" data-name="Gradiente sem nome 96" cx="574.33" cy="929.19" fx="574.33" fy="929.19" r="38.95" gradientTransform="translate(1800.28 680.12) rotate(136.57) scale(1.6 1.48) skewX(-1.26)" xlink:href="#Gradiente_sem_nome_96"/>
    <radialGradient id="Gradiente_sem_nome_102-11" data-name="Gradiente sem nome 102" cx="632.11" cy="890.56" fx="632.11" fy="890.56" r="39.44" gradientTransform="translate(1873.14 13.29) rotate(119.01) scale(1.6 1.48) skewX(1.48)" xlink:href="#Gradiente_sem_nome_102"/>
    <linearGradient id="Gradiente_sem_nome_385-5" data-name="Gradiente sem nome 385" x1="-502.31" y1="-154.65" x2="-464.62" y2="-154.65" gradientTransform="translate(359.07 -294.31) rotate(-65.37) scale(1.02 -.92) skewX(-3.35)" xlink:href="#Gradiente_sem_nome_385"/>
    <linearGradient id="Gradiente_sem_nome_385-6" data-name="Gradiente sem nome 385" x1="1078.85" y1="-590.84" x2="1092.48" y2="-590.84" gradientTransform="translate(-880.13 -211.01) rotate(-8.94) scale(1 -1)" xlink:href="#Gradiente_sem_nome_385"/>
    <radialGradient id="Gradiente_sem_nome_96-12" data-name="Gradiente sem nome 96" cx="-535.95" cy="-119.93" fx="-535.95" fy="-119.93" r="38.95" gradientTransform="translate(349.56 -373.78) rotate(-67.93) scale(1.1 -.92) skewX(-2.03)" xlink:href="#Gradiente_sem_nome_96"/>
    <radialGradient id="Gradiente_sem_nome_102-12" data-name="Gradiente sem nome 102" cx="-76.5" cy="-462.67" fx="-76.5" fy="-462.67" r="39.44" gradientTransform="translate(-32.31 -145.39) rotate(-52.1) scale(1.09 -.92) skewX(3.77)" xlink:href="#Gradiente_sem_nome_102"/>
    <radialGradient id="Gradiente_sem_nome_315-2" data-name="Gradiente sem nome 315" cx="453.22" cy="459.85" fx="453.22" fy="459.85" r="22.92" gradientTransform="translate(364.33 831.93) rotate(-41.31) scale(1.02 -1.02) skewX(1.7)" xlink:href="#Gradiente_sem_nome_315"/>
    <radialGradient id="Gradiente_sem_nome_316-2" data-name="Gradiente sem nome 316" cx="366.41" cy="436" fx="366.41" fy="436" r="41.98" gradientTransform="translate(364.33 831.93) rotate(-41.31) scale(1.02 -1.02) skewX(1.7)" xlink:href="#Gradiente_sem_nome_316"/>
    <radialGradient id="Gradiente_sem_nome_96-13" data-name="Gradiente sem nome 96" cx="142.31" cy="670.28" fx="142.31" fy="670.28" r="64.6" gradientTransform="translate(778.6 705.49) rotate(-60.09) scale(1.03 -1.01) skewX(1.28)" xlink:href="#Gradiente_sem_nome_96"/>
    <radialGradient id="Gradiente_sem_nome_102-13" data-name="Gradiente sem nome 102" cx="307.81" cy="505.2" fx="307.81" fy="505.2" r="65.09" gradientTransform="translate(364.33 831.93) rotate(-41.31) scale(1.02 -1.02) skewX(1.7)" xlink:href="#Gradiente_sem_nome_102"/>
    <radialGradient id="Gradiente_sem_nome_313-5" data-name="Gradiente sem nome 313" cx="2802.17" cy="-2514.39" fx="2802.17" fy="-2514.39" r="31.02" gradientTransform="translate(2050.72 -2999.14) rotate(160.83) scale(1.01 1.03) skewX(-1.29)" xlink:href="#Gradiente_sem_nome_313"/>
    <radialGradient id="Gradiente_sem_nome_313-6" data-name="Gradiente sem nome 313" cx="4065.23" cy="-1449.66" fx="4065.23" fy="-1449.66" r="16.01" gradientTransform="translate(-508.36 -4036.69) rotate(62.05) scale(1.03 -1.02) skewX(-1.57)" xlink:href="#Gradiente_sem_nome_313"/>
    <radialGradient id="Gradiente_sem_nome_96-14" data-name="Gradiente sem nome 96" cx="2662.74" cy="-2478.25" fx="2662.74" fy="-2478.25" r="57.27" gradientTransform="translate(2028.49 -2966.52) rotate(162.61) scale(1.01 1.03) skewX(-1.22)" xlink:href="#Gradiente_sem_nome_96"/>
    <radialGradient id="Gradiente_sem_nome_102-14" data-name="Gradiente sem nome 102" cx="3715.38" cy="-1652.19" fx="3715.38" fy="-1652.19" r="57.76" gradientTransform="translate(2246.2 -3351.27) rotate(143.38) scale(1.02) skewX(-1.69)" xlink:href="#Gradiente_sem_nome_102"/>
    <linearGradient id="Gradiente_sem_nome_385-7" data-name="Gradiente sem nome 385" x1="2264.41" y1="1971.13" x2="2299.83" y2="1971.13" gradientTransform="translate(3032.17 631.59) rotate(146.91) scale(1.02 .92) skewX(-3.35)" xlink:href="#Gradiente_sem_nome_385"/>
    <linearGradient id="Gradiente_sem_nome_385-8" data-name="Gradiente sem nome 385" x1="941.39" y1="2735.15" x2="954.84" y2="2735.15" gradientTransform="translate(2932.35 -606.39) rotate(90.48)" xlink:href="#Gradiente_sem_nome_385"/>
    <radialGradient id="Gradiente_sem_nome_96-15" data-name="Gradiente sem nome 96" cx="2256.95" cy="1963.68" fx="2256.95" fy="1963.68" r="38.95" gradientTransform="translate(2997.4 677.89) rotate(147.66) scale(1.04 .94) skewX(-5.17)" xlink:href="#Gradiente_sem_nome_96"/>
    <radialGradient id="Gradiente_sem_nome_102-15" data-name="Gradiente sem nome 102" cx="1886.68" cy="2416.14" fx="1886.68" fy="2416.14" r="39.44" gradientTransform="translate(3146.93 256.2) rotate(130.76) scale(1.06 .93) skewX(-1.18)" xlink:href="#Gradiente_sem_nome_102"/>
    <radialGradient id="Gradiente_sem_nome_313-7" data-name="Gradiente sem nome 313" cx="674.87" cy="590.25" fx="674.87" fy="590.25" r="22.59" gradientTransform="translate(255.19 1191.51) rotate(-46.86) scale(1.03 -1.02) skewX(1.64)" xlink:href="#Gradiente_sem_nome_313"/>
    <radialGradient id="Gradiente_sem_nome_313-8" data-name="Gradiente sem nome 313" cx="1392.41" cy="1192.39" fx="1392.41" fy="1192.39" r="11.66" gradientTransform="translate(446.98 -1639.92) rotate(55.02) scale(1.02) skewX(1.68)" xlink:href="#Gradiente_sem_nome_313"/>
    <radialGradient id="Gradiente_sem_nome_96-16" data-name="Gradiente sem nome 96" cx="639.31" cy="663.37" fx="639.31" fy="663.37" r="41.7" gradientTransform="translate(293.27 1184.81) rotate(-48.59) scale(1.03 -1.02) skewX(1.62)" xlink:href="#Gradiente_sem_nome_96"/>
    <radialGradient id="Gradiente_sem_nome_102-16" data-name="Gradiente sem nome 102" cx="780.02" cy="660.33" fx="780.02" fy="660.33" r="42.2" gradientTransform="translate(-136.8 1222.49) rotate(-29.59) scale(1.02 -1.03) skewX(1.6)" xlink:href="#Gradiente_sem_nome_102"/>
  </defs>
  <g id="P1">
    <g id="borboletaCoguG">
      <g id="ramoCogu1">
        <g id="cogu1" style="opacity: .8;">
          <g style="opacity: .5;">
            <path d="m68.47,63.25c6.89,6.56,32.75-7.47,43.81-26.83,4.33-7.57,3.2-10.37,2.78-11.21-3.28-6.43-21.51-6.33-33.34,2.28-13.28,9.67-18.91,30.37-13.25,35.76Z" style="fill: url(#Gradiente_sem_nome_97); stroke-width: 0px;"/>
            <path d="m112.14,27.87c2.03,2.24-6.09,15.2-17.18,23.74-8.85,6.82-20.39,11.42-21.93,9.16-1.71-2.5,8.86-13.14,15.23-18.68,8.22-7.16,21.75-16.57,23.88-14.21Z" style="fill: none; stroke: #301d47; stroke-miterlimit: 10;"/>
          </g>
          <path d="m179.68,209.99c.44-.25-18.38-33.51-38.6-77.27-1.07-2.32-7.41-16.06-16.4-33.93-8.43-16.77-12.63-24.12-16.41-30.29-8.07-13.18-16.33-24.43-16.61-24.24-.25.18,5.99,9.91,9.66,15.8,23.53,37.8,29.55,59.75,58.27,114.07,10.48,19.83,19.78,36.01,20.09,35.83Z" style="fill: url(#Gradiente_sem_nome_96); stroke: url(#Gradiente_sem_nome_102); stroke-miterlimit: 10;"/>
        </g>
        <g id="cogu2" style="opacity: .8;">
          <g style="opacity: .5;">
            <path d="m104.23,126.49c3.23,4.78-7.04,19.54-19.17,24.74-4.74,2.04-6.28,1.11-6.73.78-3.46-2.55-1.89-13.76,4.08-20.33,6.7-7.37,19.17-9.12,21.82-5.2Z" style="fill: url(#Gradiente_sem_nome_389); stroke-width: 0px;"/>
            <path d="m80.11,150.44c1.13,1.43,9.32-2.49,15.18-8.61,4.68-4.88,8.31-11.6,7.12-12.74-1.31-1.26-8.35,4.37-12.09,7.83-4.83,4.46-11.41,12.01-10.21,13.52Z" style="fill: url(#Gradiente_sem_nome_389-2); stroke: #301d47; stroke-miterlimit: 10;"/>
          </g>
          <path d="m180.08,207.06c-.18.25-17.9-14.08-41.59-30.15-1.26-.85-8.7-5.89-18.31-12.9-9.02-6.58-12.93-9.77-16.2-12.6-6.97-6.06-12.81-12.07-12.67-12.22.13-.14,5.25,4.5,8.36,7.25,19.96,17.6,32.19,23.13,61.3,45.3,10.63,8.09,19.24,15.15,19.11,15.33Z" style="fill: url(#Gradiente_sem_nome_96-2); stroke: url(#Gradiente_sem_nome_102-2); stroke-miterlimit: 10;"/>
        </g>
        <g id="cogu3" style="opacity: .8;">
          <g style="opacity: .5;">
            <path d="m51.72,114.55c5.77,6.04-6.77,31.07-23.96,42.59-6.72,4.5-9.2,3.63-9.94,3.28-5.68-2.68-5.5-19.72,2.18-31.31,8.63-13.01,26.98-19.53,31.72-14.57Z" style="fill: url(#Gradiente_sem_nome_571); stroke-width: 0px;"/>
            <path d="m20.19,157.54c1.97,1.76,13.49-6.62,21.1-17.5,6.08-8.69,10.21-19.75,8.21-21.06-2.2-1.44-11.67,9.09-16.61,15.37-6.38,8.12-14.78,21.34-12.7,23.19Z" style="fill: url(#Gradiente_sem_nome_571-2); stroke: #301d47; stroke-miterlimit: 10;"/>
          </g>
          <path d="m181.08,209.59c-.22.43-29.57-15.15-68.21-31.39-2.05-.86-14.18-5.95-29.95-13.26-14.81-6.86-21.29-10.34-26.73-13.5-11.63-6.74-21.55-13.78-21.37-14.05.16-.25,8.74,4.99,13.94,8.06,33.35,19.69,52.75,23.99,100.7,47.53,17.51,8.59,31.78,16.3,31.62,16.6Z" style="fill: url(#Gradiente_sem_nome_96-3); stroke: url(#Gradiente_sem_nome_102-3); stroke-miterlimit: 10;"/>
        </g>
        <g id="cogu4" style="opacity: .8;">
          <g style="opacity: .5;">
            <path d="m179.05,106.22c.95,5.21,17.98,5.6,29.91-.85,4.66-2.52,5.11-4.23,5.21-4.77.7-4.12-7.89-9.25-16.45-8.34-9.6,1.02-19.45,9.68-18.67,13.96Z" style="fill: url(#Gradiente_sem_nome_385); stroke-width: 0px;"/>
            <path d="m211.87,101.09c.17,1.69-8.15,5.8-16.33,6.88-6.53.86-13.55-.13-13.49-1.69.07-1.72,8.73-3.99,13.65-4.93,6.35-1.21,15.98-2.03,16.16-.26Z" style="fill: url(#Gradiente_sem_nome_385-2); stroke: #301d47; stroke-miterlimit: 10;"/>
          </g>
          <path d="m180.2,210.54c.29,0,3.03-21.83,8.77-49.26.3-1.46,2.11-10.06,4.11-21.47,1.88-10.71,2.46-15.54,2.84-19.67.8-8.83.84-16.75.64-16.73-.18.02-.64,6.61-.97,10.58-2.11,25.42-6.92,38.01-12.34,73.09-1.98,12.81-3.25,23.47-3.04,23.47Z" style="fill: url(#Gradiente_sem_nome_96-4); stroke: url(#Gradiente_sem_nome_102-4); stroke-miterlimit: 10;"/>
        </g>
        <g id="cogu5" style="opacity: .8;">
          <g style="opacity: .5;">
            <path d="m136.67,27.91c3.7,8.89,32.81,6.81,50.51-6.31,6.92-5.13,7-8.17,6.94-9.12-.46-7.26-17.12-14.78-31.3-11.81-15.92,3.32-29.2,19.95-26.16,27.25Z" style="fill: url(#Gradiente_sem_nome_315); stroke-width: 0px;"/>
            <path d="m190.42,13.7c.97,2.9-11.54,11.39-25.01,14.59-10.75,2.56-23.09,1.97-23.61-.76-.57-3,13.25-8.34,21.24-10.77,10.31-3.14,26.35-6.12,27.37-3.07Z" style="fill: url(#Gradiente_sem_nome_316); stroke: #301d47; stroke-miterlimit: 10;"/>
          </g>
          <path d="m180.35,208.79c.5-.05-3.58-38.38-4.8-86.92-.06-2.58-.44-17.81-1.6-37.94-1.09-18.89-2.03-27.38-3.05-34.6-2.17-15.45-5.27-29.2-5.61-29.14-.3.06,1.56,11.58,2.59,18.51,6.58,44.46,3.44,67.09,8.25,128.86,1.76,22.55,3.87,41.26,4.22,41.22Z" style="fill: url(#Gradiente_sem_nome_96-5); stroke: url(#Gradiente_sem_nome_102-5); stroke-miterlimit: 10;"/>
        </g>
        <g id="cogu6" style="opacity: .8;">
          <g style="opacity: .5;">
            <path d="m22.12,181.3c7.86,2.85,7.79,29.46-2.44,46.36-4,6.6-6.61,6.86-7.43,6.86-6.27,0-13.71-14.71-12-27.8,1.92-14.69,15.42-27.76,21.88-25.42Z" style="fill: url(#Gradiente_sem_nome_313); stroke-width: 0px;"/>
            <path d="m13.09,231.08c2.55.71,9.11-11.17,11.07-23.63,1.56-9.94.33-21.13-2.04-21.45-2.61-.35-6.39,12.56-8.01,19.97-2.09,9.57-3.7,24.35-1.02,25.1Z" style="fill: url(#Gradiente_sem_nome_313-2); stroke: #301d47; stroke-miterlimit: 10;"/>
          </g>
          <path d="m180.17,210.38c0,.46-33.2-.99-74.99.76-2.22.09-15.33.65-32.7.78-16.3.12-23.65-.23-29.92-.73-13.41-1.06-25.41-3.08-25.38-3.38.03-.28,10.05.74,16.06,1.26,38.6,3.36,57.87-.83,111.24-.1,19.49.27,35.69,1.08,35.68,1.41Z" style="fill: url(#Gradiente_sem_nome_96-6); stroke: url(#Gradiente_sem_nome_102-6); stroke-miterlimit: 10;"/>
        </g>
        <g id="cogu7" style="opacity: .8;">
          <g style="opacity: .5;">
            <path d="m84.45,174.04c4.54,2.69-.31,19.79-9.96,29.54-3.77,3.81-5.5,3.69-6.02,3.6-4.04-.68-6.17-10.96-2.7-19.18,3.89-9.23,14.95-16.16,18.69-13.95Z" style="fill: url(#Gradiente_sem_nome_385-3); stroke-width: 0px;"/>
            <path d="m69.63,205.05c1.51.74,7.89-6.19,11.4-13.98,2.8-6.22,4.03-13.55,2.56-14.01-1.62-.51-6.39,7.38-8.77,11.97-3.07,5.93-6.79,15.25-5.19,16.03Z" style="fill: url(#Gradiente_sem_nome_385-4); stroke: #301d47; stroke-miterlimit: 10;"/>
          </g>
          <path d="m180.99,209.99c-.09.29-21.2-4.26-48.44-7.7-1.45-.18-9.99-1.25-21.2-3.07-10.52-1.7-15.19-2.73-19.14-3.74-8.44-2.15-15.81-4.75-15.73-4.95.07-.18,6.34,1.57,10.12,2.56,24.25,6.38,37.42,5.78,71.67,12.08,12.5,2.3,22.79,4.59,22.73,4.8Z" style="fill: url(#Gradiente_sem_nome_96-7); stroke: url(#Gradiente_sem_nome_102-7); stroke-miterlimit: 10;"/>
        </g>
        <g id="cogu8" style="opacity: .8;">
          <g style="opacity: .5;">
            <path d="m130.36,102.99c3.47,5.11,21.63-.11,31.17-10.78,3.73-4.17,3.4-6.1,3.24-6.69-1.21-4.52-12.71-7.03-21.31-3.25-9.65,4.24-15.95,16.52-13.1,20.72Z" style="fill: url(#Gradiente_sem_nome_313-3); stroke-width: 0px;"/>
            <path d="m162.58,86.79c.98,1.7-5.86,8.75-13.98,12.58-6.48,3.06-14.36,4.35-15.04,2.7-.74-1.82,7.33-7.05,12.08-9.66,6.13-3.37,15.9-7.41,16.94-5.62Z" style="fill: url(#Gradiente_sem_nome_313-4); stroke: #301d47; stroke-miterlimit: 10;"/>
          </g>
          <path d="m180.95,211.33c.31-.1-7.13-23.75-14.06-54.24-.37-1.62-2.54-11.19-5.83-23.74-3.09-11.78-4.76-17.01-6.32-21.44-3.33-9.46-7.04-17.73-7.25-17.65-.18.08,2.46,7.1,3.98,11.34,9.8,27.19,10.69,41.9,21.57,80.26,3.97,14,7.68,25.53,7.9,25.46Z" style="fill: url(#Gradiente_sem_nome_96-8); stroke: url(#Gradiente_sem_nome_102-8); stroke-miterlimit: 10;"/>
        </g>
      </g>
      <g id="ramoCogu2">
        <g id="cogu1-2" data-name="cogu1" style="opacity: .8;">
          <g style="opacity: .5;">
            <path d="m312.25,338.39c-5.75-7.64,10.07-32.96,29.75-42.63,7.69-3.78,10.31-2.39,11.08-1.88,5.94,3.93,4.26,22.62-5.1,34.01-10.51,12.79-31.02,16.77-35.73,10.5Z" style="fill: url(#Gradiente_sem_nome_97-2); stroke-width: 0px;"/>
            <path d="m350.25,296.63c-1.99-2.28-15.23,4.93-24.45,15.57-7.36,8.49-12.82,19.93-10.76,21.72,2.27,1.97,13.47-7.96,19.39-14.01,7.64-7.81,17.91-20.88,15.82-23.28Z" style="fill: none; stroke: #301d47; stroke-miterlimit: 10;"/>
          </g>
          <path d="m179.98,211.53c.28-.43,30.81,21.77,71.38,46.32,2.16,1.3,14.89,9,31.39,19.77,15.49,10.11,22.23,15.05,27.87,19.46,12.05,9.42,22.21,18.87,22,19.14-.2.25-9.07-7-14.45-11.28-34.52-27.42-55.22-35.51-105.27-69.69-18.27-12.48-33.11-23.42-32.92-23.72Z" style="fill: url(#Gradiente_sem_nome_96-9); stroke: url(#Gradiente_sem_nome_102-9); stroke-miterlimit: 10;"/>
        </g>
        <g id="cogu2-2" data-name="cogu2" style="opacity: .8;">
          <g style="opacity: .5;">
            <path d="m254.19,296.2c-4.35-3.73-19.5,5.53-25.59,17.53-2.38,4.69-1.62,6.35-1.34,6.84,2.17,3.77,13.14,3.13,20.01-2.42,7.71-6.24,10.49-18.88,6.92-21.94Z" style="fill: url(#Gradiente_sem_nome_389-3); stroke-width: 0px;"/>
            <path d="m228.94,318.88c-1.29-1.28,3.22-9.34,9.64-14.83,5.13-4.38,11.94-7.52,12.94-6.2,1.1,1.45-4.95,8.19-8.62,11.73-4.74,4.57-12.61,10.66-13.96,9.31Z" style="fill: url(#Gradiente_sem_nome_389-4); stroke: #301d47; stroke-miterlimit: 10;"/>
          </g>
          <path d="m182.84,211.37c-.26.16,12.07,19.59,25.55,45.3.72,1.37,4.94,9.43,10.89,19.91,5.58,9.83,8.33,14.12,10.78,17.71,5.25,7.68,10.56,14.19,10.72,14.07.15-.12-3.9-5.78-6.29-9.21-15.29-22.01-19.58-35.04-38.49-66.84-6.91-11.61-12.99-21.05-13.17-20.94Z" style="fill: url(#Gradiente_sem_nome_96-10); stroke: url(#Gradiente_sem_nome_102-10); stroke-miterlimit: 10;"/>
        </g>
        <g id="cogu3-2" data-name="cogu3" style="opacity: .8;">
          <g style="opacity: .5;">
            <path d="m261.18,351.12c-5.34-6.45-30.64,4.26-43.27,20.89-4.94,6.5-4.31,9.12-4.03,9.91,2.1,6.06,18.6,7.36,30.47.48,13.33-7.72,21.22-25.99,16.84-31.29Z" style="fill: url(#Gradiente_sem_nome_571-3); stroke-width: 0px;"/>
            <path d="m216.88,379.75c-1.53-2.18,7.57-13.27,18.76-20.13,8.93-5.48,19.99-8.76,21.08-6.6,1.21,2.39-9.8,11.19-16.31,15.71-8.4,5.84-21.92,13.31-23.53,11.02Z" style="fill: url(#Gradiente_sem_nome_571-4); stroke: #301d47; stroke-miterlimit: 10;"/>
          </g>
          <path d="m180.49,210.14c-.43.19,12.08,31.66,24.44,72.72.66,2.18,4.53,15.07,10.23,31.89,5.35,15.79,8.16,22.74,10.73,28.6,5.51,12.52,11.45,23.31,11.73,23.15.25-.14-4.07-9.41-6.59-15.01-16.15-35.93-18.63-56.21-37.24-107.46-6.79-18.71-13.01-34.03-13.31-33.89Z" style="fill: url(#Gradiente_sem_nome_96-11); stroke: url(#Gradiente_sem_nome_102-11); stroke-miterlimit: 10;"/>
        </g>
        <g id="cogu4-2" data-name="cogu4" style="opacity: .5;">
          <g style="opacity: .5;">
            <path d="m280.29,223.2c-4.95-1.51-3.86-20.01,3.41-32.36,2.84-4.83,4.53-5.16,5.06-5.21,4.04-.38,8.26,9.41,6.64,18.6-1.82,10.32-11.05,20.21-15.12,18.97Z" style="fill: url(#Gradiente_sem_nome_385-5); stroke-width: 0px;"/>
            <path d="m288.08,188.08c-1.62-.34-6.32,8.31-8.07,17.08-1.4,7-1.05,14.7.47,14.78,1.67.08,4.62-9.11,5.95-14.35,1.72-6.78,3.35-17.14,1.65-17.5Z" style="fill: url(#Gradiente_sem_nome_385-6); stroke: #301d47; stroke-miterlimit: 10;"/>
          </g>
          <path d="m179.49,212.4c.02-.32,21.37-1.29,48.4-4.99,1.44-.2,9.92-1.37,21.12-2.49,10.52-1.05,15.24-1.25,19.27-1.27,8.61-.06,16.27.63,16.23.84-.03.2-6.45.09-10.31.08-24.77-.04-37.36,4.02-71.76,6.69-12.56.97-22.98,1.37-22.96,1.15Z" style="fill: url(#Gradiente_sem_nome_96-12); stroke: url(#Gradiente_sem_nome_102-12); stroke-miterlimit: 10;"/>
        </g>
        <g id="cogu5-2" data-name="cogu5" style="opacity: .8;">
          <g style="opacity: .5;">
            <path d="m352.34,271.46c-8.27-4.57-3.74-34.26,10.49-51.29,5.56-6.66,8.51-6.48,9.42-6.33,6.98,1.1,12.81,18.85,8.71,33.15-4.6,16.05-21.83,28.23-28.62,24.48Z" style="fill: url(#Gradiente_sem_nome_315-2); stroke-width: 0px;"/>
            <path d="m370.74,217.53c-2.72-1.25-12.02,10.85-16.28,24.4-3.4,10.81-3.9,23.52-1.32,24.29,2.85.85,9.22-12.88,12.26-20.86,3.93-10.31,8.2-26.51,5.34-27.83Z" style="fill: url(#Gradiente_sem_nome_316-2); stroke: #301d47; stroke-miterlimit: 10;"/>
          </g>
          <path d="m181.19,210.95c.09-.51,36.81,7,83.65,12.46,2.49.29,17.19,1.99,36.55,4.93,18.17,2.76,26.3,4.46,33.2,6.13,14.75,3.57,27.79,7.94,27.7,8.28-.08.31-11.07-2.6-17.68-4.26-42.43-10.61-64.59-9.35-123.91-19.64-21.66-3.76-39.57-7.55-39.5-7.9Z" style="fill: url(#Gradiente_sem_nome_96-13); stroke: url(#Gradiente_sem_nome_102-13); stroke-miterlimit: 10;"/>
        </g>
        <g id="cogu6-2" data-name="cogu6" style="opacity: .8;">
          <g style="opacity: .5;">
            <path d="m194.06,375.71c-2.07-8.31-27.82-10.55-45.05-1.51-6.73,3.53-7.21,6.19-7.28,7.03-.55,6.43,13.04,15.35,25.84,14.73,14.37-.69,28.18-13.42,26.48-20.24Z" style="fill: url(#Gradiente_sem_nome_313-5); stroke-width: 0px;"/>
            <path d="m145.13,380.66c-.47-2.68,11.6-8.38,23.81-9.31,9.75-.74,20.47,1.5,20.56,3.96.11,2.71-12.7,5.47-20.01,6.48-9.44,1.31-23.87,1.69-24.37-1.13Z" style="fill: url(#Gradiente_sem_nome_313-6); stroke: #301d47; stroke-miterlimit: 10;"/>
          </g>
          <path d="m179.64,211c-.44-.03-1.92,34.15-7.24,76.89-.28,2.27-1.96,15.68-3.59,33.49-1.53,16.72-1.83,24.29-1.89,30.77-.13,13.85.77,26.35,1.07,26.34.27,0,.16-10.37.17-16.59.09-39.9,5.82-59.31,9.74-114.15,1.43-20.02,2.05-36.72,1.74-36.74Z" style="fill: url(#Gradiente_sem_nome_96-14); stroke: url(#Gradiente_sem_nome_102-14); stroke-miterlimit: 10;"/>
        </g>
        <g id="cogu7-2" data-name="cogu7" style="opacity: .8;">
          <g style="opacity: .5;">
            <path d="m206.49,312.37c-2.2-4.9-19.17-1.4-29.43,7.66-4.01,3.54-4.04,5.32-4,5.87.31,4.2,10.06,7.28,18.32,4.44,9.27-3.19,16.93-13.94,15.12-17.97Z" style="fill: url(#Gradiente_sem_nome_385-7); stroke-width: 0px;"/>
            <path d="m175.21,324.89c-.58-1.62,6.67-7.56,14.51-10.49,6.26-2.34,13.45-2.96,13.77-1.41.35,1.71-7.69,5.91-12.33,7.96-6,2.64-15.34,5.64-15.95,3.94Z" style="fill: url(#Gradiente_sem_nome_385-8); stroke: #301d47; stroke-miterlimit: 10;"/>
          </g>
          <path d="m180.09,210.19c-.29.07,2.28,22.13,3.24,50.38.05,1.5.35,10.36,1.13,22.02.73,10.94,1.32,15.82,1.95,19.96,1.35,8.85,3.23,16.64,3.42,16.57.18-.06-.97-6.64-1.6-10.61-4.06-25.44-2.35-38.9-5.47-74.59-1.14-13.03-2.47-23.78-2.67-23.74Z" style="fill: url(#Gradiente_sem_nome_96-15); stroke: url(#Gradiente_sem_nome_102-15); stroke-miterlimit: 10;"/>
        </g>
        <g id="cogu8-2" data-name="cogu8" style="opacity: .8;">
          <g style="opacity: .5;">
            <path d="m279.18,271.43c-4.64-4,1.98-22.18,13.13-31.05,4.36-3.47,6.19-2.96,6.75-2.74,4.27,1.64,5.69,13.65,1.3,22.15-4.94,9.54-17.36,14.93-21.18,11.64Z" style="fill: url(#Gradiente_sem_nome_313-7); stroke-width: 0px;"/>
            <path d="m297.64,239.77c-1.56-1.15-8.97,5.25-13.38,13.25-3.52,6.39-5.45,14.36-3.91,15.2,1.69.92,7.45-6.91,10.39-11.55,3.79-6,8.54-15.68,6.9-16.89Z" style="fill: url(#Gradiente_sem_nome_313-8); stroke: #301d47; stroke-miterlimit: 10;"/>
          </g>
          <path d="m178.79,210.12c.12-.31,22.35,9.38,51.24,19.14,1.53.52,10.6,3.57,22.45,8.04,11.13,4.19,16.04,6.36,20.19,8.34,8.86,4.24,16.54,8.76,16.44,8.97-.09.18-6.66-3.14-10.62-5.07-25.45-12.42-39.6-14.6-75.75-29.09-13.2-5.29-24.03-10.1-23.94-10.31Z" style="fill: url(#Gradiente_sem_nome_96-16); stroke: url(#Gradiente_sem_nome_102-16); stroke-miterlimit: 10;"/>
        </g>
      </g>
    </g>
  </g>
</svg>