<?xml version="1.0" encoding="UTF-8"?>
<svg id="Camada_2" data-name="Camada 2" xmlns="http://www.w3.org/2000/svg" viewBox="0 0 255.36 233.45">
  <g id="P1">
    <g id="borboletaCogu">
      <g id="ramoCogu1">
        <g id="cogu1">
          <g>
            <path d="m20.62,158.15c5.5-2.84,2.38-21.74-7.18-32.68-3.73-4.27-5.7-4.18-6.31-4.1-4.66.65-8.48,11.89-5.7,21,3.12,10.23,14.66,18.11,19.18,15.77Z" style="fill: #fff; stroke: #e8e7e0; stroke-miterlimit: 10;"/>
            <path d="m8.16,123.74c1.81-.77,8.06,6.99,10.95,15.63,2.31,6.9,2.69,14.98.96,15.45-1.9.52-6.2-8.25-8.25-13.35-2.66-6.58-5.57-16.91-3.66-17.72Z" style="fill: #fff; stroke: #e8e7e0; stroke-miterlimit: 10;"/>
          </g>
          <path d="m134.61,120.97c-.06-.32-24.53,4.17-55.77,7.3-1.66.17-11.46,1.14-24.37,2.86-12.12,1.62-17.53,2.64-22.13,3.65-9.83,2.16-18.51,4.84-18.45,5.06.06.2,7.37-1.57,11.78-2.57,28.27-6.42,43.06-5.46,82.61-11.56,14.44-2.23,26.37-4.5,26.33-4.73Z" style="fill: #fff; stroke: #fdfbf3; stroke-miterlimit: 10;"/>
        </g>
        <g id="cogu2" style="opacity: .8;">
          <g>
            <path d="m67.15,149.62c3.63-.97,10.52,8.49,11.14,17.07.24,3.35-.65,4.1-.95,4.31-2.31,1.58-8.87-1.77-11.64-6.84-3.11-5.7-1.53-13.74,1.45-14.54Z" style="fill: #fff; stroke: #fdfbf3; stroke-miterlimit: 10;"/>
            <path d="m76.75,169.56c1.12-.39.45-6.26-2.06-11.17-2.01-3.92-5.37-7.58-6.32-7.1-1.05.54.91,6.07,2.24,9.11,1.72,3.92,4.96,9.58,6.15,9.17Z" style="fill: #fff; stroke: #fdfbf3; stroke-miterlimit: 10;"/>
          </g>
          <path d="m132.89,120.1c.12.17-12.48,8.01-27.41,19.17-.79.59-5.48,4.1-11.84,8.52-5.97,4.15-8.77,5.88-11.21,7.28-5.21,3-10.16,5.31-10.22,5.2-.06-.11,3.89-2.27,6.24-3.6,15.09-8.54,21.09-14.88,40.93-28.07,7.24-4.82,13.42-8.61,13.5-8.49Z" style="fill: #fff; stroke: #fdfbf3; stroke-miterlimit: 10;"/>
        </g>
        <g id="cogu3" style="opacity: .8;">
          <g>
            <path d="m48.62,179.38c4.95-2.27,17.68,10.79,21.11,23.82,1.34,5.09.27,6.43-.1,6.81-2.86,2.92-13.31-.81-18.8-8.01-6.17-8.08-6.27-20.76-2.21-22.62Z" style="fill: #fff; stroke: #e8e7dd; stroke-miterlimit: 10;"/>
            <path d="m68.36,207.94c1.5-.84-1.2-9.71-6.28-16.71-4.05-5.59-9.98-10.49-11.21-9.54-1.36,1.05,3.1,9.12,5.92,13.5,3.64,5.65,9.98,13.64,11.57,12.75Z" style="fill: #fff; stroke: #e8e7dd; stroke-miterlimit: 10;"/>
          </g>
          <path d="m134.66,120.03c.22.23-15.62,14.97-33.84,35.29-.97,1.08-6.68,7.46-14.54,15.61-7.38,7.65-10.9,10.9-14,13.57-6.63,5.72-13.07,10.33-13.2,10.16-.12-.15,4.94-4.32,7.93-6.86,19.22-16.33,26-27.35,50.7-51.84,9.02-8.94,16.8-16.08,16.95-15.92Z" style="fill: #fff; stroke: #fdfbf3; stroke-miterlimit: 10;"/>
        </g>
        <g id="cogu4" style="opacity: .8;">
          <g>
            <path d="m70.62,99.26c3.41.52,7.28-9.87,5.85-18.58-.56-3.41-1.51-4.05-1.83-4.22-2.39-1.31-7.37,2.89-8.64,8.34-1.42,6.13,1.81,14.03,4.61,14.46Z" style="fill: #fff; stroke: #fdfbf3; stroke-miterlimit: 10;"/>
            <path d="m74.46,77.97c1.07.25,1.83,6.25.76,11.51-.86,4.2-2.97,8.31-3.91,7.94-1.05-.41-.6-6.22-.13-9.45.61-4.17,2.15-10.27,3.28-10Z" style="fill: #fff; stroke: #fdfbf3; stroke-miterlimit: 10;"/>
          </g>
          <path d="m135.05,120.77c.06-.18-12.79-6.51-28.45-15.89-.83-.5-5.74-3.44-12.34-7.1-6.19-3.44-9.04-4.83-11.5-5.94-5.26-2.37-10.13-4.08-10.16-3.96-.03.12,3.93,1.8,6.3,2.85,15.19,6.71,21.91,12.35,42.35,23.16,7.46,3.95,13.75,7,13.79,6.87Z" style="fill: #fff; stroke: #fdfbf3; stroke-miterlimit: 10;"/>
        </g>
        <g id="cogu5" style="opacity: .8;">
          <g>
            <path d="m13.4,108.66c6.26-.39,11.18-18.74,6.87-32.43-1.68-5.35-3.54-6.05-4.13-6.22-4.57-1.26-12.74,7.39-13.94,16.74-1.35,10.5,6.06,22.22,11.2,21.9Z" style="fill: #fff; stroke: #fcf6de; stroke-miterlimit: 10;"/>
            <path d="m16.11,72.55c1.99.02,4.55,9.53,3.65,18.5-.72,7.16-3.71,14.62-5.49,14.37-1.97-.29-2.31-9.93-2.11-15.36.27-7.01,1.85-17.52,3.94-17.5Z" style="fill: #fff; stroke: #fcf6de; stroke-miterlimit: 10;"/>
          </g>
          <path d="m134.02,120.31c.08-.32-24.38-5.97-54.51-15.56-1.6-.51-11.05-3.52-23.68-7.09-11.86-3.35-17.28-4.58-21.94-5.5-9.97-1.95-19.09-2.98-19.13-2.76-.03.2,7.46,1.51,11.94,2.35,28.76,5.42,42.02,12.17,81.05,22.37,14.25,3.72,26.21,6.41,26.27,6.19Z" style="fill: #fff; stroke: #fdfbf3; stroke-miterlimit: 10;"/>
        </g>
        <g id="cogu6" style="opacity: .8;">
          <g>
            <path d="m83.4,211.82c3.42-4.23,19.79,1.48,28.01,11.38,3.21,3.87,2.81,5.53,2.64,6.03-1.33,3.86-11.97,5.3-19.66,1.47-8.63-4.31-13.79-15.4-10.98-18.88Z" style="fill: #fff; stroke: #fdfbf3; stroke-miterlimit: 10;"/>
            <path d="m112.1,227.98c.98-1.42-4.94-7.99-12.18-11.84-5.78-3.08-12.93-4.7-13.63-3.31-.77,1.53,6.37,6.61,10.58,9.18,5.45,3.32,14.2,7.47,15.23,5.97Z" style="fill: #fff; stroke: #fdfbf3; stroke-miterlimit: 10;"/>
          </g>
          <path d="m134.96,120.76c.28.1-7.68,20.22-15.5,46.31-.42,1.39-2.86,9.57-6.48,20.29-3.4,10.06-5.18,14.5-6.82,18.26-3.51,8.02-7.31,14.98-7.49,14.89-.17-.08,2.59-6.02,4.2-9.62,10.29-23.04,11.81-35.79,23.64-68.47,4.32-11.93,8.27-21.73,8.46-21.66Z" style="fill: #fff; stroke: #fdfbf3; stroke-miterlimit: 10;"/>
        </g>
        <g id="cogu7" style="opacity: .8;">
          <g>
            <path d="m92.2,171.91c2.62-2.22,12.11,4.41,16.05,12.42,1.54,3.13,1.1,4.17.93,4.47-1.28,2.34-8.06,1.46-12.38-2.42-4.85-4.36-6.76-12.64-4.61-14.47Z" style="fill: #fff; stroke: #fdfbf3; stroke-miterlimit: 10;"/>
            <path d="m108.13,187.64c.77-.77-2.13-6.17-6.17-9.99-3.23-3.05-7.48-5.37-8.08-4.56-.66.89,3.18,5.5,5.5,7.94,2.99,3.15,7.94,7.43,8.76,6.61Z" style="fill: #fff; stroke: #fdfbf3; stroke-miterlimit: 10;"/>
          </g>
          <path d="m134.88,120.17c.16.12-7.14,12.14-15.05,28.17-.42.85-2.9,5.88-6.4,12.39-3.29,6.11-4.92,8.77-6.38,10.98-3.12,4.74-6.29,8.72-6.39,8.63-.09-.08,2.32-3.57,3.73-5.68,9.09-13.57,11.53-21.79,22.7-41.53,4.08-7.2,7.68-13.04,7.79-12.96Z" style="fill: #fff; stroke: #fdfbf3; stroke-miterlimit: 10;"/>
        </g>
        <g id="cogu8" style="opacity: .8;">
          <g>
            <path d="m58.26,128.53c3.89-1.05,4.54-13.33,0-21.48-1.77-3.18-3.03-3.39-3.43-3.42-3.04-.22-7.03,6.32-6.54,12.42.55,6.84,6.77,13.33,9.96,12.47Z" style="fill: #fff; stroke: #fdfbf3; stroke-miterlimit: 10;"/>
            <path d="m55.16,105.26c1.26-.24,4.13,5.47,4.76,11.28.5,4.64-.38,9.76-1.54,9.83-1.28.07-2.78-6.01-3.37-9.49-.77-4.49-1.17-11.36.15-11.62Z" style="fill: #fff; stroke: #fdfbf3; stroke-miterlimit: 10;"/>
          </g>
          <path d="m135.7,120.48c0-.21-16.13-.67-36.37-2.9-1.08-.12-7.42-.82-15.85-1.47-7.91-.61-11.48-.7-14.54-.68-6.53.04-12.41.56-12.4.7,0,.13,4.89,0,7.83-.04,18.82-.24,28.06,2.35,53.98,3.82,9.46.54,17.35.71,17.35.56Z" style="fill: #fff; stroke: #fdfbf3; stroke-miterlimit: 10;"/>
        </g>
      </g>
      <g id="ramoCogu2">
        <g id="cogu1-2" data-name="cogu1">
          <g>
            <path d="m241.86,66.75c-5.92,1.91-18.14-13.22-19.9-27.39-.69-5.54.73-6.85,1.21-7.22,3.68-2.82,14.83,2.2,19.84,10.38,5.63,9.19,3.71,22.66-1.15,24.22Z" style="fill: #fff; stroke: #eaeada; stroke-miterlimit: 10;"/>
            <path d="m224.26,34.47c-1.82.74-.21,10.42,4.37,18.36,3.66,6.34,9.53,12.13,11.07,11.25,1.69-.98-2.03-9.99-4.49-14.92-3.18-6.36-9.03-15.47-10.95-14.69Z" style="fill: #fff; stroke: #eaeada; stroke-miterlimit: 10;"/>
          </g>
          <path d="m135.62,121.12c-.21-.26,19.96-14.32,43.7-34.06,1.26-1.05,8.71-7.24,18.85-15.1,9.52-7.38,14-10.47,17.91-13,8.37-5.41,16.35-9.65,16.47-9.46.11.17-6.24,4.09-10.02,6.49-24.23,15.4-33.61,26.42-65.31,49.93-11.57,8.59-21.46,15.39-21.61,15.2Z" style="fill: #fff; stroke: #fffffe; stroke-miterlimit: 10;"/>
        </g>
        <g id="cogu2-2" data-name="cogu2" style="opacity: .8;">
          <g>
            <path d="m203.53,93.49c-3.22,1.88-.75,13.18,5.34,19.48,2.38,2.46,3.56,2.35,3.92,2.28,2.78-.53,4.73-7.42,2.77-12.83-2.2-6.08-9.38-10.47-12.03-8.93Z" style="fill: #fff; stroke: #eae4d3; stroke-miterlimit: 10;"/>
            <path d="m212.1,113.86c-1.06.52-5.06-3.97-7.07-9.09-1.6-4.09-2.08-8.95-1.06-9.28,1.13-.37,3.98,4.79,5.38,7.8,1.8,3.89,3.88,10.03,2.75,10.58Z" style="fill: #fff; stroke: #eae4d3; stroke-miterlimit: 10;"/>
          </g>
          <path d="m136.13,119.32c.05.19,14.63-3.25,33.32-6.07.99-.15,6.86-1.03,14.57-2.46,7.24-1.34,10.46-2.12,13.2-2.86,5.85-1.6,10.98-3.48,10.94-3.6-.04-.12-4.39,1.17-7.01,1.91-16.8,4.72-25.73,4.58-49.33,9.45-8.61,1.78-15.72,3.51-15.69,3.64Z" style="fill: #fff; stroke: #eae4d3; stroke-miterlimit: 10;"/>
        </g>
        <g id="cogu3-2" data-name="cogu3" style="opacity: .8;">
          <g>
            <path d="m238.82,100.88c-5.11,1.91-3.91,19.76,3.64,31.08,2.95,4.42,4.7,4.59,5.24,4.59,4.17,0,8.49-9.88,6.78-18.65-1.91-9.85-11.47-18.6-15.66-17.02Z" style="fill: #fff; stroke: #eae4d3; stroke-miterlimit: 10;"/>
            <path d="m246.99,134.25c-1.67.48-6.55-7.48-8.39-15.83-1.47-6.66-1.14-14.17.43-14.38,1.72-.23,4.8,8.41,6.2,13.38,1.8,6.42,3.52,16.32,1.77,16.83Z" style="fill: #fff; stroke: #eae4d3; stroke-miterlimit: 10;"/>
          </g>
          <path d="m134.87,120.51c.03.31,22.05-.69,49.95.45,1.48.06,10.24.42,21.8.5,10.86.07,15.73-.17,19.89-.51,8.88-.72,16.78-2.08,16.75-2.29-.03-.19-6.66.5-10.64.86-25.55,2.29-38.56-.51-74.06.02-12.96.2-23.71.76-23.69.97Z" style="fill: #fff; stroke: #eae4d3; stroke-miterlimit: 10;"/>
        </g>
        <g id="cogu4-2" data-name="cogu4">
          <g>
            <path d="m162.92,61.45c-1.93,2.74-12.47-1.66-18.11-8.62-2.21-2.72-2.04-3.83-1.95-4.16.64-2.57,7.24-3.19,12.25-.34,5.62,3.2,9.41,10.87,7.82,13.12Z" style="fill: #fff; stroke: #eae4d3; stroke-miterlimit: 10;"/>
            <path d="m144.13,49.57c-.54.93,3.49,5.56,8.22,8.41,3.78,2.27,8.34,3.61,8.71,2.69.41-1.01-4.32-4.68-7.09-6.56-3.58-2.43-9.27-5.52-9.84-4.54Z" style="fill: #fff; stroke: #eae4d3; stroke-miterlimit: 10;"/>
          </g>
          <path d="m135.16,121.3c-.18-.08,3.8-13.41,7.4-30.79.19-.92,1.32-6.38,3.05-13.5,1.63-6.69,2.52-9.63,3.36-12.11,1.8-5.31,3.83-9.89,3.95-9.82.11.06-1.32,3.99-2.15,6.36-5.3,15.23-5.62,23.8-11.39,45.5-2.11,7.92-4.1,14.41-4.22,14.36Z" style="fill: #fff; stroke: #eae4d3; stroke-miterlimit: 10;"/>
        </g>
        <g id="cogu5-2" data-name="cogu5">
          <g>
            <path d="m209.21,27.82c-4.57,4.12-21.88-5-29.33-17.38-2.91-4.84-2.17-6.62-1.89-7.15,2.17-4.06,14.33-3.86,22.25,1.7,8.9,6.25,12.72,19.45,8.97,22.83Z" style="fill: #fff; stroke: #eae4d3; stroke-miterlimit: 10;"/>
            <path d="m179.95,5.01c-1.35,1.41,4.12,9.71,11.54,15.22,5.93,4.4,13.64,7.41,14.67,5.98,1.13-1.57-5.96-8.42-10.22-11.99-5.51-4.61-14.57-10.7-15.99-9.21Z" style="fill: #fff; stroke: #eae4d3; stroke-miterlimit: 10;"/>
          </g>
          <path d="m135.52,120.25c-.3-.16,12.15-21.16,25.49-48.82.71-1.47,4.89-10.15,10.82-21.44,5.57-10.6,8.34-15.23,10.84-19.13,5.34-8.32,10.81-15.41,11-15.28.17.12-3.96,6.25-6.39,9.97-15.56,23.85-19.51,37.75-38.48,72.07-6.93,12.53-13.07,22.74-13.28,22.63Z" style="fill: #fff; stroke: #eae4d3; stroke-miterlimit: 10;"/>
        </g>
        <g id="cogu6-2" data-name="cogu6" style="opacity: .8;">
          <g>
            <path d="m239.64,147.43c-5.55-.5-12.42,14.87-10.53,27.4.74,4.9,2.27,5.75,2.77,5.98,3.84,1.71,12.22-4.76,14.57-12.77,2.63-8.99-2.26-20.2-6.82-20.61Z" style="fill: #fff; stroke: #eae4d3; stroke-miterlimit: 10;"/>
            <path d="m232.27,178.59c-1.75-.28-2.69-8.92-.66-16.63,1.62-6.16,5.28-12.28,6.82-11.81,1.69.51.66,8.98-.27,13.69-1.2,6.09-4.05,15.05-5.89,14.75Z" style="fill: #fff; stroke: #eae4d3; stroke-miterlimit: 10;"/>
          </g>
          <path d="m135.22,121.22c-.11.27,20.61,8.46,45.77,20.83,1.34.66,9.23,4.55,19.84,9.34,9.96,4.5,14.56,6.3,18.53,7.72,8.49,3.03,16.38,5.14,16.43,4.95.05-.17-6.35-2.31-10.17-3.64-24.54-8.56-35.26-16.22-68.17-30.31-12.01-5.15-22.16-9.08-22.24-8.89Z" style="fill: #fff; stroke: #eae4d3; stroke-miterlimit: 10;"/>
        </g>
        <g id="cogu7-2" data-name="cogu7" style="opacity: .8;">
          <g>
            <path d="m203.32,126.28c-3.48.31-4.94,11.5-1.56,19.74,1.32,3.22,2.41,3.62,2.76,3.71,2.65.71,6.62-4.64,6.63-10.33,0-6.38-4.98-13.39-7.84-13.13Z" style="fill: #fff; stroke: #eae4d3; stroke-miterlimit: 10;"/>
            <path d="m204.36,148.2c-1.12.01-3.23-5.71-3.36-11.16-.1-4.35,1.04-8.91,2.06-8.78,1.13.15,2,5.99,2.27,9.28.35,4.25.21,10.64-.97,10.65Z" style="fill: #fff; stroke: #eae4d3; stroke-miterlimit: 10;"/>
          </g>
          <path d="m134.82,120.76c-.02.19,14.1,3.31,31.69,8.73.93.29,6.45,1.99,13.79,4,6.89,1.88,10.02,2.56,12.7,3.05,5.73,1.06,10.92,1.56,10.93,1.43,0-.12-4.29-.82-6.87-1.27-16.52-2.92-24.44-6.84-47.07-12.52-8.26-2.07-15.16-3.55-15.18-3.41Z" style="fill: #fff; stroke: #eae4d3; stroke-miterlimit: 10;"/>
        </g>
        <g id="cogu8-2" data-name="cogu8">
          <g>
            <path d="m193.61,72.83c-3.45,2-13.23-5.95-16.31-14.69-1.21-3.42-.5-4.44-.25-4.74,1.92-2.28,9.61-.6,13.91,3.92,4.82,5.07,5.49,13.87,2.65,15.51Z" style="fill: #fff; stroke: #eae4d3; stroke-miterlimit: 10;"/>
            <path d="m178.06,54.73c-1.04.71,1.32,6.64,5.3,11.05,3.18,3.53,7.68,6.41,8.52,5.64.93-.85-2.66-6.06-4.9-8.85-2.88-3.61-7.83-8.6-8.93-7.84Z" style="fill: #fff; stroke: #eae4d3; stroke-miterlimit: 10;"/>
          </g>
          <path d="m134.5,121.55c-.17-.14,10.53-11.76,22.69-27.45.65-.83,4.46-5.76,9.73-12.1,4.95-5.95,7.33-8.52,9.43-10.65,4.5-4.55,8.92-8.31,9.02-8.21.09.09-3.35,3.43-5.38,5.46-13.06,13.01-17.42,21.26-34.04,40.42-6.07,7-11.33,12.63-11.45,12.54Z" style="fill: #fff; stroke: #eae4d3; stroke-miterlimit: 10;"/>
        </g>
      </g>
    </g>
  </g>
</svg>