<?xml version="1.0" encoding="UTF-8"?>
<svg id="Camada_2" data-name="Camada 2" xmlns="http://www.w3.org/2000/svg" xmlns:xlink="http://www.w3.org/1999/xlink" viewBox="0 0 144.89 139.83">
  <defs>
    <radialGradient id="Gradiente_sem_nome_97" data-name="Gradiente sem nome 97" cx="-221.5" cy="83.07" fx="-221.5" fy="83.07" r="13.27" gradientTransform="translate(-22.73 -218.8) rotate(-76.05) scale(1.03 1.02) skewX(-1.54)" gradientUnits="userSpaceOnUse">
      <stop offset=".04" stop-color="#533174"/>
      <stop offset=".19" stop-color="#4f2e6e"/>
      <stop offset=".39" stop-color="#43275e"/>
      <stop offset=".61" stop-color="#311b43"/>
      <stop offset=".79" stop-color="#1e0f28"/>
    </radialGradient>
    <radialGradient id="Gradiente_sem_nome_96" data-name="Gradiente sem nome 96" cx="-246.17" cy="141.48" fx="-246.17" fy="141.48" r="24.49" gradientTransform="translate(-29.13 -235.57) rotate(-74.33) scale(1.03 1.02) skewX(-1.58)" gradientUnits="userSpaceOnUse">
      <stop offset="0" stop-color="#533174"/>
      <stop offset=".15" stop-color="#4f2e6e"/>
      <stop offset=".35" stop-color="#43275e"/>
      <stop offset=".57" stop-color="#311b43"/>
      <stop offset=".75" stop-color="#1e0f28"/>
    </radialGradient>
    <radialGradient id="Gradiente_sem_nome_102" data-name="Gradiente sem nome 102" cx="-88.27" cy="-12.12" fx="-88.27" fy="-12.12" r="24.98" gradientTransform="translate(47.41 -41.14) rotate(-92.96) scale(1.03 1.01) skewX(-.88)" gradientUnits="userSpaceOnUse">
      <stop offset=".28" stop-color="#1e0f28"/>
      <stop offset=".94" stop-color="#533174"/>
    </radialGradient>
    <linearGradient id="Gradiente_sem_nome_389" data-name="Gradiente sem nome 389" x1="1891.32" y1="-2247.22" x2="1898.85" y2="-2247.22" gradientTransform="translate(2905.26 -530.31) rotate(-141.75)" gradientUnits="userSpaceOnUse">
      <stop offset="0" stop-color="#4e9a92"/>
      <stop offset=".6" stop-color="#5cab66"/>
      <stop offset="1" stop-color="#65b54f"/>
    </linearGradient>
    <linearGradient id="Gradiente_sem_nome_389-2" data-name="Gradiente sem nome 389" x1="1891.96" y1="-2247.25" x2="1896" y2="-2247.25" xlink:href="#Gradiente_sem_nome_389"/>
    <radialGradient id="Gradiente_sem_nome_96-2" data-name="Gradiente sem nome 96" cx="3037.55" cy="-1094.28" fx="3037.55" fy="-1094.28" r="14.76" gradientTransform="translate(2636.12 -1912.66) rotate(122.48) scale(1.02 -1.02) skewX(1.66)" xlink:href="#Gradiente_sem_nome_96"/>
    <radialGradient id="Gradiente_sem_nome_102-2" data-name="Gradiente sem nome 102" cx="3418.85" cy="-112.46" fx="3418.85" fy="-112.46" r="15.26" gradientTransform="translate(2828.32 -1977.53) rotate(141.76) scale(1.01 -1.03) skewX(1.08)" xlink:href="#Gradiente_sem_nome_102"/>
    <radialGradient id="Gradiente_sem_nome_571" data-name="Gradiente sem nome 571" cx="202.94" cy="501.05" fx="196.36" fy="501.05" r="8" gradientTransform="translate(-533.91 -561.1) rotate(114.27) scale(1.6 -1.49) skewX(2.12)" gradientUnits="userSpaceOnUse">
      <stop offset=".54" stop-color="#ea4e49"/>
      <stop offset=".61" stop-color="#dc4e4e"/>
      <stop offset=".74" stop-color="#b74e5c"/>
      <stop offset=".91" stop-color="#7d4e72"/>
      <stop offset="1" stop-color="#5c4f7f"/>
    </radialGradient>
    <radialGradient id="Gradiente_sem_nome_571-2" data-name="Gradiente sem nome 571" cx="600.95" cy="351.65" fx="600.95" fy="351.65" r="23.52" gradientTransform="translate(-813.41 774.34) rotate(-69.45) scale(1.6 1.48) skewX(-1.55)" xlink:href="#Gradiente_sem_nome_571"/>
    <radialGradient id="Gradiente_sem_nome_96-3" data-name="Gradiente sem nome 96" cx="196.15" cy="530.02" fx="196.15" fy="530.02" r="14.76" gradientTransform="translate(-556.58 -547.32) rotate(112.66) scale(1.6 -1.48) skewX(1.87)" xlink:href="#Gradiente_sem_nome_96"/>
    <radialGradient id="Gradiente_sem_nome_102-3" data-name="Gradiente sem nome 102" cx="203.6" cy="499.17" fx="203.6" fy="499.17" r="15.26" gradientTransform="translate(-291.16 -704.74) rotate(130.54) scale(1.57 -1.51) skewX(4.07)" xlink:href="#Gradiente_sem_nome_102"/>
    <linearGradient id="Gradiente_sem_nome_385" data-name="Gradiente sem nome 385" x1="-975.13" y1="-462.38" x2="-961.87" y2="-462.38" gradientTransform="translate(1044.92 -324.64) rotate(-43.71) scale(1.02 .92) skewX(-3.35)" gradientUnits="userSpaceOnUse">
      <stop offset="0" stop-color="#a35816"/>
      <stop offset=".18" stop-color="#9f5d19"/>
      <stop offset=".41" stop-color="#946d22"/>
      <stop offset=".66" stop-color="#838732"/>
      <stop offset=".93" stop-color="#6baa48"/>
      <stop offset="1" stop-color="#65b54f"/>
    </linearGradient>
    <linearGradient id="Gradiente_sem_nome_385-2" data-name="Gradiente sem nome 385" x1="434.65" y1="-1078.03" x2="439.76" y2="-1078.03" gradientTransform="translate(1195.71 273.41) rotate(-100.15)" xlink:href="#Gradiente_sem_nome_385"/>
    <radialGradient id="Gradiente_sem_nome_96-4" data-name="Gradiente sem nome 96" cx="-976.32" cy="-421.76" fx="-976.32" fy="-421.76" r="14.76" gradientTransform="translate(1025.84 -319.66) rotate(-43.42) scale(1.02 .93) skewX(-5.96)" xlink:href="#Gradiente_sem_nome_96"/>
    <radialGradient id="Gradiente_sem_nome_102-4" data-name="Gradiente sem nome 102" cx="-595.48" cy="-782.25" fx="-595.48" fy="-782.25" r="15.26" gradientTransform="translate(977.3 -114.93) rotate(-60.17) scale(1.05 .91) skewX(-1.67)" xlink:href="#Gradiente_sem_nome_102"/>
    <radialGradient id="Gradiente_sem_nome_315" data-name="Gradiente sem nome 315" cx="-201.66" cy="149.66" fx="-201.66" fy="149.66" r="8.69" gradientTransform="translate(-14.25 -270.21) rotate(-69.45) scale(1.02) skewX(-1.66)" gradientUnits="userSpaceOnUse">
      <stop offset="0" stop-color="#a35c53"/>
      <stop offset=".14" stop-color="#9d5c53"/>
      <stop offset=".32" stop-color="#8e5c55"/>
      <stop offset=".51" stop-color="#755d57"/>
      <stop offset=".72" stop-color="#525f5b"/>
      <stop offset=".94" stop-color="#25615f"/>
      <stop offset="1" stop-color="#176261"/>
    </radialGradient>
    <radialGradient id="Gradiente_sem_nome_316" data-name="Gradiente sem nome 316" cx="-234.57" cy="140.62" fx="-234.57" fy="140.62" r="15.92" gradientTransform="translate(-14.25 -270.21) rotate(-69.45) scale(1.02) skewX(-1.66)" gradientUnits="userSpaceOnUse">
      <stop offset=".3" stop-color="#a35c53"/>
      <stop offset=".4" stop-color="#9d5c53"/>
      <stop offset=".53" stop-color="#8e5c55"/>
      <stop offset=".66" stop-color="#755d57"/>
      <stop offset=".81" stop-color="#525f5b"/>
      <stop offset=".96" stop-color="#25615f"/>
      <stop offset="1" stop-color="#176261"/>
    </radialGradient>
    <radialGradient id="Gradiente_sem_nome_96-5" data-name="Gradiente sem nome 96" cx="-347.3" cy="365.54" fx="-347.3" fy="365.54" r="24.49" gradientTransform="translate(-7.84 -478.32) rotate(-50.39) scale(1.01 1.03) skewX(-1.53)" xlink:href="#Gradiente_sem_nome_96"/>
    <radialGradient id="Gradiente_sem_nome_102-5" data-name="Gradiente sem nome 102" cx="-256.78" cy="166.85" fx="-256.78" fy="166.85" r="24.98" gradientTransform="translate(-14.25 -270.21) rotate(-69.45) scale(1.02) skewX(-1.66)" xlink:href="#Gradiente_sem_nome_102"/>
    <radialGradient id="Gradiente_sem_nome_313" data-name="Gradiente sem nome 313" cx="2489.52" cy="-2840.86" fx="2489.52" fy="-2840.86" r="11.76" gradientTransform="translate(2823.56 -2477.52) rotate(88.95) scale(1.03 -1.01) skewX(.97)" gradientUnits="userSpaceOnUse">
      <stop offset="0" stop-color="#a11449"/>
      <stop offset=".14" stop-color="#9b1649"/>
      <stop offset=".32" stop-color="#8c1f4c"/>
      <stop offset=".52" stop-color="#732d50"/>
      <stop offset=".73" stop-color="#504157"/>
      <stop offset=".94" stop-color="#235a5e"/>
      <stop offset="1" stop-color="#176261"/>
    </radialGradient>
    <radialGradient id="Gradiente_sem_nome_313-2" data-name="Gradiente sem nome 313" cx="3415.33" cy="-2073.01" fx="3415.33" fy="-2073.01" r="6.07" gradientTransform="translate(3747.69 -1389.35) rotate(-169.63) scale(1.01 1.03) skewX(1.44)" xlink:href="#Gradiente_sem_nome_313"/>
    <radialGradient id="Gradiente_sem_nome_96-6" data-name="Gradiente sem nome 96" cx="2376.35" cy="-2868.1" fx="2376.35" fy="-2868.1" r="21.71" gradientTransform="translate(2813.63 -2462.97) rotate(87.26) scale(1.03 -1.01) skewX(.89)" xlink:href="#Gradiente_sem_nome_96"/>
    <radialGradient id="Gradiente_sem_nome_102-6" data-name="Gradiente sem nome 102" cx="3370.64" cy="-2004.9" fx="3370.64" fy="-2004.9" r="22.21" gradientTransform="translate(2931.01 -2631) rotate(105.89) scale(1.03 -1.02) skewX(1.59)" xlink:href="#Gradiente_sem_nome_102"/>
    <linearGradient id="Gradiente_sem_nome_385-3" data-name="Gradiente sem nome 385" x1="1947.7" y1="1617.92" x2="1961.68" y2="1617.92" gradientTransform="translate(-952.56 -2120.19) rotate(104.01) scale(1.02 -.92) skewX(-3.35)" xlink:href="#Gradiente_sem_nome_385"/>
    <linearGradient id="Gradiente_sem_nome_385-4" data-name="Gradiente sem nome 385" x1="422.71" y1="2361.06" x2="427.67" y2="2361.06" gradientTransform="translate(-358.39 -2285.6) rotate(160.44) scale(1 -1)" xlink:href="#Gradiente_sem_nome_385"/>
    <radialGradient id="Gradiente_sem_nome_96-7" data-name="Gradiente sem nome 96" cx="1951.71" cy="1607.64" fx="1951.71" fy="1607.64" r="14.76" gradientTransform="translate(-960.79 -2221.96) rotate(100.79) scale(1.07 -.89) skewX(-.8)" xlink:href="#Gradiente_sem_nome_96"/>
    <radialGradient id="Gradiente_sem_nome_102-7" data-name="Gradiente sem nome 102" cx="1513.12" cy="2089.27" fx="1513.12" fy="2089.27" r="15.26" gradientTransform="translate(-820.57 -2370.43) rotate(116.57) scale(1.06 -.9) skewX(5.1)" xlink:href="#Gradiente_sem_nome_102"/>
    <radialGradient id="Gradiente_sem_nome_313-3" data-name="Gradiente sem nome 313" cx="133.95" cy="292.89" fx="133.95" fy="292.89" r="8.56" gradientTransform="translate(-290.66 16.91) rotate(-63.9) scale(1.02) skewX(-1.7)" xlink:href="#Gradiente_sem_nome_313"/>
    <radialGradient id="Gradiente_sem_nome_313-4" data-name="Gradiente sem nome 313" cx="750.85" cy="800.02" fx="750.85" fy="800.02" r="4.42" gradientTransform="translate(992.58 -522.32) rotate(-162.45) scale(1.02 -1.03) skewX(-1.62)" xlink:href="#Gradiente_sem_nome_313"/>
    <radialGradient id="Gradiente_sem_nome_96-8" data-name="Gradiente sem nome 96" cx="120.29" cy="325.81" fx="120.29" fy="325.81" r="15.81" gradientTransform="translate(-293.47 -.8) rotate(-62.16) scale(1.02) skewX(-1.7)" xlink:href="#Gradiente_sem_nome_96"/>
    <radialGradient id="Gradiente_sem_nome_102-8" data-name="Gradiente sem nome 102" cx="198.3" cy="281.39" fx="198.3" fy="281.39" r="16.3" gradientTransform="translate(-258.6 205.08) rotate(-80.99) scale(1.03 1.01) skewX(-1.39)" xlink:href="#Gradiente_sem_nome_102"/>
    <radialGradient id="Gradiente_sem_nome_97-2" data-name="Gradiente sem nome 97" cx="-42.4" cy="-545.72" fx="-42.4" fy="-545.72" r="13.27" gradientTransform="translate(-300.96 -282.38) rotate(-60.77) scale(1.08 -1.05) skewX(5.75)" xlink:href="#Gradiente_sem_nome_97"/>
    <radialGradient id="Gradiente_sem_nome_96-9" data-name="Gradiente sem nome 96" cx="-86.24" cy="-492.46" fx="-86.24" fy="-492.46" r="24.49" gradientTransform="translate(-284.84 -289.56) rotate(-62.44) scale(1.09 -1.04) skewX(5.6)" xlink:href="#Gradiente_sem_nome_96"/>
    <radialGradient id="Gradiente_sem_nome_102-9" data-name="Gradiente sem nome 102" cx="269.18" cy="-559.56" fx="269.18" fy="-559.56" r="24.98" gradientTransform="translate(-473.4 -208.22) rotate(-43.59) scale(1.05 -1.08) skewX(6.05)" xlink:href="#Gradiente_sem_nome_102"/>
    <linearGradient id="Gradiente_sem_nome_389-3" data-name="Gradiente sem nome 389" x1="2514.76" y1="-2328.8" x2="2522.07" y2="-2328.8" gradientTransform="translate(-2036.21 -2582.48) rotate(8.61) scale(1 -1)" xlink:href="#Gradiente_sem_nome_389"/>
    <linearGradient id="Gradiente_sem_nome_389-4" data-name="Gradiente sem nome 389" x1="2515.4" y1="-2328.82" x2="2519.18" y2="-2328.82" gradientTransform="translate(-2036.21 -2582.48) rotate(8.61) scale(1 -1)" xlink:href="#Gradiente_sem_nome_389"/>
    <radialGradient id="Gradiente_sem_nome_96-10" data-name="Gradiente sem nome 96" cx="3068.19" cy="-1747.36" fx="3068.19" fy="-1747.36" r="14.76" gradientTransform="translate(-932.91 -3430.44) rotate(102.79) scale(1.03 1.01) skewX(-1.51)" xlink:href="#Gradiente_sem_nome_96"/>
    <radialGradient id="Gradiente_sem_nome_102-10" data-name="Gradiente sem nome 102" cx="3660.27" cy="-720.05" fx="3660.27" fy="-720.05" r="15.26" gradientTransform="translate(-1018.92 -3620.82) rotate(84.2) scale(1.04 1.01) skewX(-.73)" xlink:href="#Gradiente_sem_nome_102"/>
    <radialGradient id="Gradiente_sem_nome_571-3" data-name="Gradiente sem nome 571" cx="167.04" cy="53.91" fx="160.46" fy="53.91" r="8" gradientTransform="translate(288.47 -97.96) rotate(110.91) scale(1.6 1.48) skewX(-1.01)" xlink:href="#Gradiente_sem_nome_571"/>
    <radialGradient id="Gradiente_sem_nome_571-4" data-name="Gradiente sem nome 571" cx="668.09" cy="-91.88" fx="668.09" fy="-91.88" r="23.52" gradientTransform="translate(-455.92 1027.77) rotate(-65.37) scale(1.6 -1.48) skewX(1.58)" xlink:href="#Gradiente_sem_nome_571"/>
    <radialGradient id="Gradiente_sem_nome_96-11" data-name="Gradiente sem nome 96" cx="146.69" cy="84.17" fx="146.69" fy="84.17" r="14.76" gradientTransform="translate(294.32 -71.32) rotate(112.52) scale(1.6 1.48) skewX(-1.26)" xlink:href="#Gradiente_sem_nome_96"/>
    <radialGradient id="Gradiente_sem_nome_102-11" data-name="Gradiente sem nome 102" cx="301.86" cy="61.49" fx="301.86" fy="61.49" r="15.26" gradientTransform="translate(223.07 -380.61) rotate(94.96) scale(1.6 1.48) skewX(1.48)" xlink:href="#Gradiente_sem_nome_102"/>
    <linearGradient id="Gradiente_sem_nome_385-5" data-name="Gradiente sem nome 385" x1="-1177.47" y1="-1120.64" x2="-1163.87" y2="-1120.64" gradientTransform="translate(-914.34 -1084.29) rotate(-89.42) scale(1.02 -.92) skewX(-3.35)" xlink:href="#Gradiente_sem_nome_385"/>
    <linearGradient id="Gradiente_sem_nome_385-6" data-name="Gradiente sem nome 385" x1="846.42" y1="-1551.63" x2="851.49" y2="-1551.63" gradientTransform="translate(-1453.88 -785.43) rotate(-32.99) scale(1 -1)" xlink:href="#Gradiente_sem_nome_385"/>
    <radialGradient id="Gradiente_sem_nome_96-12" data-name="Gradiente sem nome 96" cx="-1219.25" cy="-1117.79" fx="-1219.25" fy="-1117.79" r="14.76" gradientTransform="translate(-947.51 -1117.65) rotate(-90.85) scale(1.05 -.91) skewX(-3.94)" xlink:href="#Gradiente_sem_nome_96"/>
    <radialGradient id="Gradiente_sem_nome_102-12" data-name="Gradiente sem nome 102" cx="-598.77" cy="-1519.45" fx="-598.77" fy="-1519.45" r="15.26" gradientTransform="translate(-1057.73 -940.75) rotate(-74.6) scale(1.06 -.9) skewX(1.15)" xlink:href="#Gradiente_sem_nome_102"/>
    <radialGradient id="Gradiente_sem_nome_315-2" data-name="Gradiente sem nome 315" cx="-96.65" cy="-495.65" fx="-96.65" fy="-495.65" r="8.69" gradientTransform="translate(-270.75 -293.75) rotate(-65.37) scale(1.02 -1.02) skewX(1.7)" xlink:href="#Gradiente_sem_nome_315"/>
    <radialGradient id="Gradiente_sem_nome_316-2" data-name="Gradiente sem nome 316" cx="-129.55" cy="-504.69" fx="-129.55" fy="-504.69" r="15.92" gradientTransform="translate(-270.75 -293.75) rotate(-65.37) scale(1.02 -1.02) skewX(1.7)" xlink:href="#Gradiente_sem_nome_316"/>
    <radialGradient id="Gradiente_sem_nome_96-13" data-name="Gradiente sem nome 96" cx="-457.92" cy="-278.84" fx="-457.92" fy="-278.84" r="24.49" gradientTransform="translate(-129.34 -440.95) rotate(-84.15) scale(1.03 -1.01) skewX(1.28)" xlink:href="#Gradiente_sem_nome_96"/>
    <radialGradient id="Gradiente_sem_nome_102-13" data-name="Gradiente sem nome 102" cx="-151.77" cy="-478.46" fx="-151.77" fy="-478.46" r="24.98" gradientTransform="translate(-270.75 -293.75) rotate(-65.37) scale(1.02 -1.02) skewX(1.7)" xlink:href="#Gradiente_sem_nome_102"/>
    <radialGradient id="Gradiente_sem_nome_313-5" data-name="Gradiente sem nome 313" cx="2151.04" cy="-3400.22" fx="2151.04" fy="-3400.22" r="11.76" gradientTransform="translate(-665.39 -3959.18) rotate(136.78) scale(1.01 1.03) skewX(-1.29)" xlink:href="#Gradiente_sem_nome_313"/>
    <radialGradient id="Gradiente_sem_nome_313-6" data-name="Gradiente sem nome 313" cx="4025.83" cy="-1839.04" fx="4025.83" fy="-1839.04" r="6.07" gradientTransform="translate(-2059.81 -3916.89) rotate(38) scale(1.03 -1.02) skewX(-1.57)" xlink:href="#Gradiente_sem_nome_313"/>
    <radialGradient id="Gradiente_sem_nome_96-14" data-name="Gradiente sem nome 96" cx="2021.04" cy="-3416.93" fx="2021.04" fy="-3416.93" r="21.71" gradientTransform="translate(-668.79 -3941.69) rotate(138.56) scale(1.01 1.03) skewX(-1.22)" xlink:href="#Gradiente_sem_nome_96"/>
    <radialGradient id="Gradiente_sem_nome_102-14" data-name="Gradiente sem nome 102" cx="3213.19" cy="-2639.46" fx="3213.19" fy="-2639.46" r="22.21" gradientTransform="translate(-631.36 -4145.78) rotate(119.33) scale(1.02) skewX(-1.69)" xlink:href="#Gradiente_sem_nome_102"/>
    <linearGradient id="Gradiente_sem_nome_385-7" data-name="Gradiente sem nome 385" x1="1731.81" y1="960.2" x2="1745.23" y2="960.2" gradientTransform="translate(1761.66 -854.27) rotate(122.86) scale(1.02 .92) skewX(-3.35)" xlink:href="#Gradiente_sem_nome_385"/>
    <linearGradient id="Gradiente_sem_nome_385-8" data-name="Gradiente sem nome 385" x1="825.91" y1="1875.86" x2="831.01" y2="1875.86" gradientTransform="translate(1476.12 -1400.97) rotate(66.43)" xlink:href="#Gradiente_sem_nome_385"/>
    <radialGradient id="Gradiente_sem_nome_96-15" data-name="Gradiente sem nome 96" cx="1707.94" cy="932.98" fx="1707.94" fy="932.98" r="14.76" gradientTransform="translate(1743.09 -823.5) rotate(123.61) scale(1.04 .94) skewX(-5.17)" xlink:href="#Gradiente_sem_nome_96"/>
    <radialGradient id="Gradiente_sem_nome_102-15" data-name="Gradiente sem nome 102" cx="1502.08" cy="1372.01" fx="1502.08" fy="1372.01" r="15.26" gradientTransform="translate(1742.94 -1035.13) rotate(106.71) scale(1.06 .93) skewX(-1.18)" xlink:href="#Gradiente_sem_nome_102"/>
    <radialGradient id="Gradiente_sem_nome_313-7" data-name="Gradiente sem nome 313" cx="175.81" cy="-359.57" fx="175.81" fy="-359.57" r="8.56" gradientTransform="translate(-282.84 112.61) rotate(-70.91) scale(1.03 -1.02) skewX(1.64)" xlink:href="#Gradiente_sem_nome_313"/>
    <radialGradient id="Gradiente_sem_nome_313-8" data-name="Gradiente sem nome 313" cx="1385.56" cy="643.17" fx="1385.56" fy="643.17" r="4.42" gradientTransform="translate(-782.78 -1231) rotate(30.96) scale(1.02) skewX(1.68)" xlink:href="#Gradiente_sem_nome_313"/>
    <radialGradient id="Gradiente_sem_nome_96-16" data-name="Gradiente sem nome 96" cx="142.32" cy="-327.63" fx="142.32" fy="-327.63" r="15.81" gradientTransform="translate(-268.51 102.63) rotate(-72.64) scale(1.03 -1.02) skewX(1.62)" xlink:href="#Gradiente_sem_nome_96"/>
    <radialGradient id="Gradiente_sem_nome_102-16" data-name="Gradiente sem nome 102" cx="431.69" cy="-329.33" fx="431.69" fy="-329.33" r="16.3" gradientTransform="translate(-436.6 216.96) rotate(-53.64) scale(1.02 -1.03) skewX(1.6)" xlink:href="#Gradiente_sem_nome_102"/>
  </defs>
  <g id="P1">
    <g id="borboletaCoguP">
      <g id="ramoCogu1">
        <g id="cogu1" style="opacity: .8;">
          <g style="opacity: .5;">
            <path d="m6.77,38.75c3.4,1.21,10.18-7.65,11.02-16.06.33-3.29-.49-4.09-.77-4.31-2.13-1.72-8.42,1.13-11.19,5.94-3.1,5.4-1.85,13.44.94,14.43Z" style="fill: url(#Gradiente_sem_nome_97); stroke-width: 0px;"/>
            <path d="m16.43,19.75c1.05.46.24,6.2-2.28,10.87-2.01,3.73-5.29,7.1-6.18,6.56-.98-.6,1.04-5.92,2.38-8.82,1.74-3.75,4.97-9.1,6.07-8.61Z" style="fill: none; stroke: #301d47; stroke-miterlimit: 10;"/>
          </g>
          <path d="m67.94,72.36c.11-.15-11.54-8.76-25.3-20.78-.73-.64-5.05-4.41-10.92-9.21-5.51-4.5-8.1-6.4-10.36-7.95-4.83-3.32-9.43-5.94-9.49-5.82-.06.1,3.6,2.51,5.78,3.98,13.98,9.45,19.46,16.12,37.8,30.49,6.69,5.25,12.41,9.41,12.49,9.3Z" style="fill: url(#Gradiente_sem_nome_96); stroke: url(#Gradiente_sem_nome_102); stroke-miterlimit: 10;"/>
        </g>
        <g id="cogu2" style="opacity: .8;">
          <g style="opacity: .5;">
            <path d="m28.92,55.11c1.86,1.16.58,7.85-2.81,11.53-1.33,1.44-2,1.36-2.21,1.31-1.59-.35-2.78-4.47-1.73-7.67,1.18-3.59,5.23-6.12,6.75-5.17Z" style="fill: url(#Gradiente_sem_nome_389); stroke-width: 0px;"/>
            <path d="m24.28,67.13c.61.32,2.84-2.3,3.93-5.33.87-2.41,1.08-5.3.5-5.51-.65-.23-2.21,2.8-2.98,4.58-.98,2.29-2.09,5.92-1.45,6.26Z" style="fill: url(#Gradiente_sem_nome_389-2); stroke: #301d47; stroke-miterlimit: 10;"/>
          </g>
          <path d="m67.63,71.29c-.02.11-8.37-2.11-19.06-4.01-.57-.1-3.92-.7-8.33-1.64-4.14-.88-5.99-1.38-7.55-1.86-3.35-1.02-6.3-2.2-6.28-2.27.02-.07,2.51.75,4.01,1.22,9.63,3.01,14.72,3.03,28.22,6.21,4.93,1.16,9,2.27,8.98,2.35Z" style="fill: url(#Gradiente_sem_nome_96-2); stroke: url(#Gradiente_sem_nome_102-2); stroke-miterlimit: 10;"/>
        </g>
        <g id="cogu3" style="opacity: .8;">
          <g style="opacity: .5;">
            <path d="m8.9,59.09c2.93,1.2,2.46,11.8-1.71,18.45-1.63,2.6-2.62,2.68-2.93,2.67-2.38-.05-4.95-5.98-4.08-11.17.98-5.84,6.32-10.93,8.73-9.94Z" style="fill: url(#Gradiente_sem_nome_571); stroke-width: 0px;"/>
            <path d="m4.63,78.85c.95.3,3.65-4.37,4.6-9.32.76-3.95.48-8.42-.41-8.56-.99-.16-2.64,4.95-3.38,7.89-.95,3.8-1.82,9.67-.81,9.99Z" style="fill: url(#Gradiente_sem_nome_571-2); stroke: #301d47; stroke-miterlimit: 10;"/>
          </g>
          <path d="m68.37,72.01c-.01.18-12.58-.67-28.46-.33-.84.02-5.83.13-12.42.04-6.19-.09-8.97-.29-11.34-.54-5.07-.54-9.59-1.44-9.57-1.56.02-.11,3.8.38,6.07.64,14.59,1.66,21.97.15,42.2.9,7.39.27,13.52.73,13.51.86Z" style="fill: url(#Gradiente_sem_nome_96-3); stroke: url(#Gradiente_sem_nome_102-3); stroke-miterlimit: 10;"/>
        </g>
        <g id="cogu4" style="opacity: .8;">
          <g style="opacity: .5;">
            <path d="m51.69,36.54c1.13,1.66,7.09-.84,10.22-4.91,1.23-1.59,1.12-2.25,1.07-2.45-.4-1.53-4.16-1.98-6.98-.35-3.17,1.84-5.24,6.36-4.31,7.72Z" style="fill: url(#Gradiente_sem_nome_385); stroke-width: 0px;"/>
            <path d="m62.26,29.69c.32.56-1.92,3.27-4.59,4.91-2.13,1.31-4.71,2.05-4.93,1.5-.24-.61,2.41-2.73,3.96-3.82,2.01-1.4,5.22-3.17,5.55-2.59Z" style="fill: url(#Gradiente_sem_nome_385-2); stroke: #301d47; stroke-miterlimit: 10;"/>
          </g>
          <path d="m68.21,72.47c.1-.05-2.32-8.02-4.58-18.41-.12-.55-.82-3.81-1.9-8.07-1-4-1.55-5.76-2.06-7.25-1.09-3.18-2.3-5.93-2.36-5.89-.06.03.8,2.39,1.3,3.81,3.2,9.13,3.48,14.23,7.02,27.21,1.29,4.74,2.5,8.62,2.57,8.59Z" style="fill: url(#Gradiente_sem_nome_96-4); stroke: url(#Gradiente_sem_nome_102-4); stroke-miterlimit: 10;"/>
        </g>
        <g id="cogu5" style="opacity: .8;">
          <g style="opacity: .5;">
            <path d="m24.92,15.98c2.65,2.5,12.41-2.71,16.51-9.99,1.6-2.85,1.16-3.91.99-4.23-1.28-2.44-8.21-2.47-12.66.75-5,3.61-7.02,11.42-4.84,13.47Z" style="fill: url(#Gradiente_sem_nome_315); stroke-width: 0px;"/>
            <path d="m41.34,2.75c.78.85-2.23,5.73-6.4,8.92-3.33,2.55-7.69,4.25-8.29,3.39-.66-.95,3.3-4.94,5.69-7.01,3.08-2.68,8.18-6.19,9-5.29Z" style="fill: url(#Gradiente_sem_nome_316); stroke: #301d47; stroke-miterlimit: 10;"/>
          </g>
          <path d="m67.99,71.85c.17-.09-7.17-12.73-15.09-29.35-.42-.88-2.9-6.1-6.42-12.88-3.3-6.37-4.93-9.16-6.4-11.51-3.14-5.01-6.34-9.29-6.44-9.22-.1.07,2.33,3.77,3.76,6.01,9.15,14.37,11.56,22.69,22.77,43.33,4.09,7.54,7.71,13.68,7.83,13.62Z" style="fill: url(#Gradiente_sem_nome_96-5); stroke: url(#Gradiente_sem_nome_102-5); stroke-miterlimit: 10;"/>
        </g>
        <g id="cogu6" style="opacity: .8;">
          <g style="opacity: .5;">
            <path d="m8.97,86.78c3.16-.23,7.25,9,6.32,16.43-.36,2.9-1.23,3.4-1.51,3.52-2.17.97-7.02-2.98-8.45-7.77-1.61-5.38,1.05-11.99,3.64-12.18Z" style="fill: url(#Gradiente_sem_nome_313); stroke-width: 0px;"/>
            <path d="m13.53,105.4c.99-.15,1.43-5.28.18-9.89-1-3.68-3.15-7.37-4.02-7.11-.96.28-.27,5.33.31,8.15.76,3.64,2.48,9,3.53,8.85Z" style="fill: url(#Gradiente_sem_nome_313-2); stroke: #301d47; stroke-miterlimit: 10;"/>
          </g>
          <path d="m68.18,72.42c.07.16-11.64,4.79-25.84,11.85-.75.38-5.21,2.59-11.2,5.32-5.62,2.56-8.22,3.57-10.47,4.37-4.81,1.7-9.27,2.86-9.31,2.75-.03-.1,3.59-1.3,5.76-2.05,13.88-4.8,19.9-9.23,38.49-17.22,6.79-2.92,12.52-5.14,12.57-5.03Z" style="fill: url(#Gradiente_sem_nome_96-6); stroke: url(#Gradiente_sem_nome_102-6); stroke-miterlimit: 10;"/>
        </g>
        <g id="cogu7" style="opacity: .5;">
          <g style="opacity: .5;">
            <path d="m31.56,74.26c1.88.23,2.79,7.08,1.06,12.07-.68,1.95-1.26,2.18-1.45,2.23-1.42.4-3.62-2.91-3.69-6.39-.08-3.9,2.53-8.11,4.08-7.92Z" style="fill: url(#Gradiente_sem_nome_385-3); stroke-width: 0px;"/>
            <path d="m31.24,87.63c.6.02,1.68-3.45,1.69-6.78,0-2.65-.66-5.45-1.21-5.39-.6.08-1.01,3.63-1.12,5.64-.14,2.59,0,6.5.64,6.52Z" style="fill: url(#Gradiente_sem_nome_385-4); stroke: #301d47; stroke-miterlimit: 10;"/>
          </g>
          <path d="m68.4,71.72c.01.12-7.56,1.85-16.97,4.95-.5.16-3.45,1.14-7.38,2.27-3.69,1.06-5.37,1.44-6.81,1.71-3.08.58-5.87.82-5.87.74,0-.07,2.3-.45,3.69-.69,8.87-1.58,13.09-3.88,25.21-7.07,4.43-1.17,8.13-1.98,8.14-1.9Z" style="fill: url(#Gradiente_sem_nome_96-7); stroke: url(#Gradiente_sem_nome_102-7); stroke-miterlimit: 10;"/>
        </g>
        <g id="cogu8" style="opacity: .8;">
          <g style="opacity: .5;">
            <path d="m34.34,42.94c1.99,1.23,7.47-3.38,9.12-8.55.65-2.02.23-2.64.09-2.82-1.12-1.38-5.49-.47-7.88,2.17-2.69,2.96-2.97,8.18-1.33,9.2Z" style="fill: url(#Gradiente_sem_nome_313-3); stroke-width: 0px;"/>
            <path d="m42.99,32.36c.6.44-.68,3.93-2.89,6.51-1.77,2.06-4.3,3.72-4.79,3.26-.54-.51,1.45-3.57,2.69-5.21,1.6-2.11,4.36-5.02,5-4.56Z" style="fill: url(#Gradiente_sem_nome_313-4); stroke: #301d47; stroke-miterlimit: 10;"/>
          </g>
          <path d="m68.59,72.63c.09-.08-6.14-7.12-13.25-16.6-.38-.5-2.61-3.48-5.68-7.32-2.89-3.6-4.28-5.15-5.5-6.45-2.62-2.76-5.18-5.05-5.23-4.99-.05.06,1.95,2.08,3.13,3.31,7.59,7.9,10.17,12.85,19.87,24.45,3.54,4.23,6.6,7.65,6.67,7.59Z" style="fill: url(#Gradiente_sem_nome_96-8); stroke: url(#Gradiente_sem_nome_102-8); stroke-miterlimit: 10;"/>
        </g>
      </g>
      <g id="ramoCogu2">
        <g id="cogu1-2" data-name="cogu1" style="opacity: .8;">
          <g style="opacity: .5;">
            <path d="m133.67,96.3c-3.17-1.91-1.61-14.09,3.71-21.03,2.08-2.71,3.2-2.63,3.55-2.57,2.66.48,4.97,7.79,3.49,13.65-1.66,6.58-8.15,11.52-10.75,9.95Z" style="fill: url(#Gradiente_sem_nome_97-2); stroke-width: 0px;"/>
            <path d="m140.38,74.22c-1.04-.52-4.51,4.41-6.06,9.96-1.24,4.43-1.36,9.65-.37,9.98,1.09.36,3.44-5.26,4.55-8.52,1.44-4.22,2.98-10.86,1.88-11.41Z" style="fill: none; stroke: #301d47; stroke-miterlimit: 10;"/>
          </g>
          <path d="m68.29,70.79c.03-.21,14.03,3.02,31.87,5.44.95.13,6.54.88,13.92,2.17,6.92,1.2,10.02,1.93,12.65,2.64,5.63,1.52,10.61,3.37,10.57,3.51-.03.13-4.22-1.11-6.74-1.82-16.19-4.52-24.6-4.09-47.21-8.54-8.25-1.63-15.08-3.25-15.06-3.4Z" style="fill: url(#Gradiente_sem_nome_96-9); stroke: url(#Gradiente_sem_nome_102-9); stroke-miterlimit: 10;"/>
        </g>
        <g id="cogu2-2" data-name="cogu2" style="opacity: .8;">
          <g style="opacity: .5;">
            <path d="m107.06,90.69c-2.08-.62-5.9,4.93-6.15,10.02-.1,1.99.42,2.45.59,2.57,1.33.97,5.03-.95,6.55-3.93,1.71-3.35.71-8.16-1-8.67Z" style="fill: url(#Gradiente_sem_nome_389-3); stroke-width: 0px;"/>
            <path d="m101.82,102.45c-.64-.25-.33-3.73,1.05-6.62,1.1-2.31,2.97-4.45,3.52-4.15.61.33-.45,3.6-1.17,5.39-.93,2.31-2.72,5.64-3.4,5.38Z" style="fill: url(#Gradiente_sem_nome_389-4); stroke: #301d47; stroke-miterlimit: 10;"/>
          </g>
          <path d="m69.25,72.35c-.06.1,7.2,4.92,15.84,11.73.46.36,3.17,2.5,6.84,5.21,3.45,2.54,5.06,3.6,6.47,4.47,3.01,1.85,5.85,3.28,5.89,3.21.03-.06-2.24-1.4-3.6-2.22-8.7-5.26-12.19-9.1-23.65-17.19-4.18-2.95-7.75-5.28-7.79-5.21Z" style="fill: url(#Gradiente_sem_nome_96-10); stroke: url(#Gradiente_sem_nome_102-10); stroke-miterlimit: 10;"/>
        </g>
        <g id="cogu3-2" data-name="cogu3" style="opacity: .8;">
          <g style="opacity: .5;">
            <path d="m117.96,108.63c-2.85-1.41-9.95,6.21-11.75,13.92-.7,3.01-.08,3.82.14,4.06,1.66,1.77,7.57-.33,10.62-4.54,3.42-4.73,3.33-12.28.99-13.43Z" style="fill: url(#Gradiente_sem_nome_571-3); stroke-width: 0px;"/>
            <path d="m107.05,125.38c-.87-.52.57-5.76,3.38-9.87,2.24-3.28,5.57-6.12,6.28-5.54.79.64-1.66,5.39-3.22,7.96-2.01,3.32-5.53,7.99-6.44,7.45Z" style="fill: url(#Gradiente_sem_nome_571-4); stroke: #301d47; stroke-miterlimit: 10;"/>
          </g>
          <path d="m68.25,72.29c-.12.13,9.07,9.09,19.7,21.4.56.65,3.89,4.52,8.47,9.46,4.29,4.64,6.34,6.61,8.13,8.24,3.84,3.48,7.57,6.3,7.64,6.2.07-.09-2.86-2.63-4.6-4.18-11.14-9.94-15.13-16.58-29.49-31.45-5.24-5.43-9.76-9.77-9.84-9.68Z" style="fill: url(#Gradiente_sem_nome_96-11); stroke: url(#Gradiente_sem_nome_102-11); stroke-miterlimit: 10;"/>
        </g>
        <g id="cogu4-2" data-name="cogu4" style="opacity: .8;">
          <g style="opacity: .5;">
            <path d="m104.5,60.69c-1.94.27-4.26-5.96-3.55-11.13.28-2.02.82-2.39.99-2.49,1.34-.75,4.24,1.81,5.02,5.07.88,3.66-.87,8.33-2.46,8.55Z" style="fill: url(#Gradiente_sem_nome_385-5); stroke-width: 0px;"/>
            <path d="m102.07,47.98c-.61.14-.97,3.7-.3,6.84.54,2.51,1.79,4.98,2.32,4.77.59-.23.27-3.7-.04-5.62-.39-2.49-1.35-6.13-1.99-5.99Z" style="fill: url(#Gradiente_sem_nome_385-6); stroke: #301d47; stroke-miterlimit: 10;"/>
          </g>
          <path d="m68.03,72.73c-.04-.11,7.21-3.72,16.03-9.11.47-.29,3.23-1.98,6.95-4.08,3.49-1.97,5.09-2.76,6.48-3.39,2.97-1.35,5.72-2.31,5.74-2.23.02.07-2.22,1.02-3.56,1.62-8.58,3.81-12.34,7.09-23.86,13.28-4.21,2.26-7.75,4-7.78,3.92Z" style="fill: url(#Gradiente_sem_nome_96-12); stroke: url(#Gradiente_sem_nome_102-12); stroke-miterlimit: 10;"/>
        </g>
        <g id="cogu5-2" data-name="cogu5" style="opacity: .8;">
          <g style="opacity: .5;">
            <path d="m137.21,66.97c-3.57-.3-6.59-11.28-4.29-19.37.9-3.16,1.94-3.56,2.28-3.65,2.59-.7,7.35,4.55,8.14,10.13.89,6.27-3.19,13.15-6.13,12.9Z" style="fill: url(#Gradiente_sem_nome_315-2); stroke-width: 0px;"/>
            <path d="m135.25,45.45c-1.13-.01-2.48,5.61-1.87,10.96.49,4.27,2.28,8.75,3.3,8.61,1.12-.15,1.2-5.88,1.02-9.12-.23-4.18-1.26-10.45-2.45-10.46Z" style="fill: url(#Gradiente_sem_nome_316-2); stroke: #301d47; stroke-miterlimit: 10;"/>
          </g>
          <path d="m68.62,72.46c-.05-.19,13.82-3.26,30.88-8.61.91-.28,6.26-1.96,13.41-3.94,6.72-1.85,9.79-2.52,12.44-3.01,5.66-1.04,10.85-1.54,10.87-1.41.02.12-4.23.81-6.78,1.26-16.33,2.88-23.8,6.74-45.93,12.35-8.08,2.05-14.86,3.5-14.9,3.37Z" style="fill: url(#Gradiente_sem_nome_96-13); stroke: url(#Gradiente_sem_nome_102-13); stroke-miterlimit: 10;"/>
        </g>
        <g id="cogu6-2" data-name="cogu6" style="opacity: .8;">
          <g style="opacity: .5;">
            <path d="m98.53,127.51c-2-2.56-11.26.65-15.83,6.44-1.79,2.26-1.54,3.26-1.43,3.56.8,2.31,6.89,3.3,11.22,1.11,4.87-2.46,7.68-9,6.04-11.1Z" style="fill: url(#Gradiente_sem_nome_313-5); stroke-width: 0px;"/>
            <path d="m82.36,136.78c-.58-.85,2.72-4.69,6.8-6.9,3.26-1.76,7.32-2.64,7.73-1.81.46.92-3.55,3.85-5.92,5.34-3.06,1.91-8,4.27-8.61,3.37Z" style="fill: url(#Gradiente_sem_nome_313-6); stroke: #301d47; stroke-miterlimit: 10;"/>
          </g>
          <path d="m68.09,72.72c-.16.06,4.61,12.12,9.37,27.74.25.83,1.74,5.73,3.93,12.15,2.05,6.02,3.12,8.69,4.1,10.94,2.09,4.82,4.34,9,4.44,8.95.09-.05-1.55-3.62-2.5-5.77-6.13-13.83-7.15-21.43-14.26-41.02-2.6-7.15-4.96-13.03-5.08-12.99Z" style="fill: url(#Gradiente_sem_nome_96-14); stroke: url(#Gradiente_sem_nome_102-14); stroke-miterlimit: 10;"/>
        </g>
        <g id="cogu7-2" data-name="cogu7" style="opacity: .8;">
          <g style="opacity: .5;">
            <path d="m93.04,103.66c-1.52-1.35-6.85,2.48-9,7.2-.84,1.85-.58,2.47-.48,2.65.76,1.41,4.61.97,7.03-1.29,2.72-2.54,3.71-7.44,2.46-8.55Z" style="fill: url(#Gradiente_sem_nome_385-7); stroke-width: 0px;"/>
            <path d="m84.15,112.83c-.45-.47,1.14-3.65,3.4-5.87,1.81-1.78,4.2-3.1,4.55-2.62.39.54-1.75,3.23-3.04,4.66-1.67,1.84-4.44,4.32-4.91,3.83Z" style="fill: url(#Gradiente_sem_nome_385-8); stroke: #301d47; stroke-miterlimit: 10;"/>
          </g>
          <path d="m68.12,72.37c-.09.07,4.21,7.31,8.91,16.94.25.51,1.72,3.53,3.79,7.45,1.94,3.68,2.9,5.27,3.76,6.61,1.83,2.86,3.69,5.26,3.74,5.21.05-.05-1.36-2.15-2.19-3.42-5.34-8.18-6.82-13.1-13.42-24.98-2.41-4.33-4.53-7.85-4.59-7.81Z" style="fill: url(#Gradiente_sem_nome_96-15); stroke: url(#Gradiente_sem_nome_102-15); stroke-miterlimit: 10;"/>
        </g>
        <g id="cogu8-2" data-name="cogu8" style="opacity: .8;">
          <g style="opacity: .5;">
            <path d="m111.88,78.26c-2.23-.67-2.74-7.99-.25-12.78.97-1.87,1.69-1.98,1.91-1.99,1.73-.09,4.08,3.85,3.87,7.47-.24,4.07-3.7,7.85-5.53,7.3Z" style="fill: url(#Gradiente_sem_nome_313-7); stroke-width: 0px;"/>
            <path d="m113.38,64.44c-.72-.16-2.29,3.2-2.58,6.65-.23,2.75.33,5.81.99,5.87.73.06,1.51-3.54,1.81-5.6.38-2.66.54-6.75-.22-6.91Z" style="fill: url(#Gradiente_sem_nome_313-8); stroke: #301d47; stroke-miterlimit: 10;"/>
          </g>
          <path d="m67.66,72.54c0-.13,9.19-.21,20.69-1.29.61-.06,4.22-.4,9.01-.69,4.5-.27,6.54-.28,8.28-.23,3.72.1,7.08.48,7.08.56,0,.08-2.79-.06-4.46-.11-10.73-.37-15.96,1.06-30.72,1.63-5.39.21-9.88.22-9.88.13Z" style="fill: url(#Gradiente_sem_nome_96-16); stroke: url(#Gradiente_sem_nome_102-16); stroke-miterlimit: 10;"/>
        </g>
      </g>
    </g>
  </g>
</svg>