<?xml version="1.0" encoding="UTF-8"?>
<svg id="Camada_2" data-name="Camada 2" xmlns="http://www.w3.org/2000/svg" viewBox="0 0 306.54 407.33">
  <g id="Camada_1-2" data-name="Camada 1">
    <g id="folha3">
      <path id="folhaVerde" d="m89.04,325.5c-.26-15.72-46.37-14.12-58.94-44.47-4.22-10.19-4.52-23.64-4.91-40.97-.28-12.46.75-17.05-.88-28.16-2.65-18.06-8.27-25.71-5.8-27.57,4.1-3.08,25.39,13.65,42.41,34.82,16.53,20.56,19.32,33.21,35.52,39.8,9.26,3.76,21.98,5.17,24.98.33,4.81-7.75-16.89-29.08-19.59-31.73-9.23-9.07-13.89-10.83-41-30-19.32-13.66-22.8-16.89-25.99-22.65-.94-1.7-8.83-16.5-4.07-34.01,1.11-4.07,5.08-18.69,14.95-20.91,1.83-.41,7.86-1.29,19.81,9.26,9.43,8.33,18.08,19.82,38.04,57.37,3.84,7.23,8.21,15.62,16.19,17.18,4.29.84,9.96-.24,13.23-4.08,4.02-4.73,2.6-11.57,2.02-14.36-2.84-13.73-14.87-20.86-32.48-35.19-35.08-28.55-39.39-42.64-40.65-47.91-2.95-12.34.26-20.26,1.09-22.16,5.09-11.66,18.62-21.42,28.91-18.84,9.16,2.29,13.79,14.44,23.06,38.72,8.08,21.17,9.38,32.25,19.75,37.61,4.26,2.21,11.94,4.42,15.91,1,7.44-6.39-.2-30.7-11.17-48.12-15.39-24.46-32.66-27.94-34.21-46.19-.89-10.49,4.01-18.83,5.38-21.01,19.93-31.55,99.63-31.89,126.86,4.34,3.08,4.1,11.75,15.63,7.96,24.81-7.86,19.06-59.18,3.48-72.77,27.42-5.03,8.86-4.91,23.19,2.26,29.24,4.07,3.43,10.83,4.56,16.06,2.23,9.36-4.16,5.97-15.88,15.08-26.74,12.14-14.48,34.71-13.43,39.58-13.05,7.29.56,23.21,1.78,31.15,13.72,10.86,16.34.85,43.79-14.29,50.75-7.57,3.48-10.43-.93-41.69-4.56-21.47-2.5-30.08-1.58-36.97,3.6-4.15,3.12-9.82,9.38-8.35,14.5,1.38,4.82,8.56,6.79,28.88,9.99,25.13,3.96,37.69,5.94,44.78,5.64,32.95-1.4,45.55-16.38,53.55-9.46,8.49,7.35,1.54,30.55-7.14,44.49-1.09,1.75-18.2,28.35-47.76,31.49-19.37,2.06-44.48-5.92-62.76-17.42-7.54-4.74-15.74-11.23-21.76-8.2-4.82,2.43-7.09,10.39-5.51,16.45,1.86,7.14,9.57,13.67,39.51,21.03,47.45,11.68,70.13,5.62,75.2,17.17,3.86,8.8-5.11,21.84-13.25,28.19-15.21,11.86-36.22,7.11-50.23,3.94-33.4-7.55-51.05-26.38-59.27-19.5-4.38,3.67-2.8,11.88-2.62,12.78,2.45,12.76,19.06,18.92,24.97,21.11,28.09,10.42,48.01-1.32,51.82,5.85,4.09,7.7-15.92,26.84-32.95,37.19-9.97,6.07-27.21,16.55-39.92,10.19-7.92-3.97-7-10.93-18.28-17.74-2.28-1.38-11.64-7.03-21.94-5.7-9.75,1.26-13.28,7.87-25.9,19.73-18.93,17.8-20.89,12.23-41.98,31.21-14.46,13.02-18.31,19.93-26.41,19.33-8.64-.64-17.27-9.45-16.45-16.28.68-5.64,7.54-7.69,21.05-15.02,6.64-3.61,16.63-10.47,36.6-24.21,20.95-14.41,31.42-21.61,31.34-26.29Z" style="fill: #60a1c3; stroke-width: 0px;"/>
      <path id="folhaRoxa" d="m100.21,321.89c-.79-15.29-45.6-12.17-58.87-41.29-4.45-9.78-5.2-22.85-6.16-39.71-.69-12.12.15-16.62-1.81-27.37-3.19-17.48-8.92-24.74-6.57-26.63,3.89-3.14,25.17,12.43,42.45,32.45,16.78,19.45,19.93,31.67,35.92,37.53,9.14,3.35,21.56,4.29,24.32-.52,4.42-7.71-17.42-27.73-20.14-30.22-9.29-8.51-13.88-10.08-40.91-27.81-19.26-12.64-22.76-15.67-26.06-21.17-.97-1.62-9.15-15.76-5.11-32.96.94-4,4.31-18.37,13.84-20.85,1.77-.46,7.6-1.52,19.59,8.35,9.46,7.78,18.27,18.67,38.96,54.55,3.98,6.91,8.52,14.93,16.34,16.17,4.2.67,9.69-.57,12.73-4.42,3.75-4.74,2.14-11.35,1.49-14.04-3.23-13.27-15.18-19.8-32.8-33.15-35.1-26.6-39.77-40.16-41.18-45.26-3.29-11.91-.43-19.73.31-21.6,4.56-11.52,17.4-21.47,27.5-19.31,8.99,1.92,13.91,13.58,23.75,36.9,8.58,20.33,10.22,31.07,20.49,35.94,4.22,2,11.77,3.89,15.52.44,7.02-6.47-1.24-29.87-12.49-46.45-15.81-23.29-32.73-26.09-34.85-43.8-1.22-10.18,3.26-18.46,4.53-20.63,18.33-31.37,95.89-34.4,123.61-.07,3.14,3.89,11.96,14.81,8.59,23.88-7,18.81-57.48,5.39-69.9,29.14-4.6,8.8-4,22.73,3.18,28.38,4.08,3.2,10.7,4.07,15.71,1.63,8.97-4.36,5.28-15.65,13.78-26.54,11.33-14.5,33.33-14.24,38.08-14.04,7.11.3,22.65.94,30.78,12.3,11.12,15.53,2.31,42.59-12.19,49.88-7.25,3.65-10.18-.55-40.73-3.03-20.98-1.71-29.33-.52-35.86,4.75-3.94,3.17-9.24,9.46-7.64,14.39,1.5,4.65,8.56,6.32,28.44,8.75,24.59,3.01,36.88,4.51,43.77,3.98,32.02-2.48,43.78-17.48,51.79-11.01,8.51,6.87,2.53,29.68-5.44,43.54-1,1.74-16.76,28.2-45.42,32.26-18.78,2.66-43.48-4.25-61.67-14.83-7.5-4.36-15.7-10.4-21.46-7.24-4.61,2.53-6.55,10.35-4.81,16.2,2.05,6.89,9.78,12.98,39.16,19.14,46.58,9.76,68.44,3.1,73.77,14.17,4.06,8.43-4.24,21.43-11.94,27.88-14.4,12.06-35.01,8.14-48.75,5.53-32.76-6.22-50.58-23.95-58.35-16.97-4.14,3.72-2.32,11.66-2.12,12.53,2.82,12.34,19.19,17.77,25.02,19.7,27.69,9.19,46.68-2.91,50.63,3.94,4.24,7.35-14.59,26.66-30.81,37.31-9.5,6.24-25.92,17.03-38.51,11.26-7.84-3.59-7.18-10.4-18.39-16.65-2.27-1.27-11.56-6.45-21.54-4.81-9.45,1.56-12.66,8.11-24.54,20.07-17.82,17.96-19.92,12.61-39.8,31.79-13.64,13.16-17.15,20.02-25.05,19.71-8.43-.33-17.13-8.62-16.56-15.29.47-5.51,7.08-7.74,19.98-15.33,6.34-3.73,15.83-10.76,34.8-24.8,19.9-14.73,29.85-22.1,29.62-26.64Z" style="fill: #1c223f; stroke-width: 0px;"/>
    </g>
  </g>
</svg>