<?xml version="1.0" encoding="UTF-8"?>
<svg id="Camada_2" data-name="Camada 2" xmlns="http://www.w3.org/2000/svg" viewBox="0 0 217.81 290.38">
  <g id="Camada_1-2" data-name="Camada 1">
    <g id="folha4">
      <path id="folhaAzul" d="m141.37,228c.92-10.74,32.39-7.47,42.42-27.65,3.37-6.77,4.21-15.96,5.29-27.8.78-8.51.29-11.7,1.93-19.22,2.66-12.23,6.87-17.2,5.27-18.59-2.66-2.3-18.01,8.14-30.65,21.82-12.28,13.28-14.79,21.81-26.18,25.55-6.51,2.14-15.28,2.5-17.1-.95-2.93-5.53,12.93-19.1,14.9-20.79,6.74-5.77,10.01-6.76,29.46-18.59,13.86-8.43,16.4-10.48,18.85-14.27.72-1.12,6.82-10.87,4.39-23.07-.56-2.84-2.59-13.03-9.24-15.01-1.23-.37-5.31-1.25-13.99,5.4-6.85,5.25-13.3,12.7-28.73,37.45-2.97,4.76-6.35,10.3-11.89,10.99-2.97.37-6.81-.63-8.86-3.41-2.52-3.43-1.23-8.04-.71-9.92,2.59-9.26,11.16-13.57,23.88-22.54,25.35-17.88,28.96-27.31,30.07-30.86,2.6-8.3.78-13.87.3-15.21-2.93-8.22-11.73-15.53-18.89-14.25-6.38,1.14-10.12,9.23-17.6,25.4-6.52,14.1-7.94,21.62-15.29,24.8-3.02,1.31-8.38,2.46-10.93-.06-4.79-4.72,1.59-20.99,9.91-32.39,11.68-16.01,23.66-17.58,25.58-29.99,1.1-7.13-1.85-13.07-2.69-14.63-12.15-22.52-66.66-26.52-87-3.02-2.3,2.66-8.77,10.14-6.62,16.6,4.48,13.41,40.33,5.17,48.49,22.19,3.02,6.3,2.27,16.1-2.92,19.9-2.95,2.16-7.63,2.61-11.09.77-6.21-3.29-3.34-11.14-9.06-19.01-7.62-10.48-23.12-10.82-26.46-10.8-5.01.04-15.96.12-21.96,7.92-8.2,10.66-2.65,29.92,7.38,35.4,5.02,2.74,7.18-.14,28.74-1.16,14.81-.7,20.65.34,25.13,4.21,2.69,2.33,6.27,6.88,5.03,10.31-1.17,3.24-6.18,4.24-20.23,5.48-17.38,1.53-26.07,2.29-30.9,1.75-22.48-2.51-30.39-13.35-36.19-9-6.16,4.63-2.49,20.83,2.79,30.78.66,1.25,11.12,20.25,31.19,23.8,13.16,2.32,30.71-1.95,43.76-8.96,5.38-2.89,11.3-6.94,15.28-4.58,3.19,1.89,4.36,7.44,2.99,11.52-1.61,4.8-7.19,8.9-28.02,12.53-33.02,5.75-48.25.54-52.26,8.2-3.06,5.84,2.47,15.18,7.73,19.91,9.85,8.83,24.45,6.57,34.18,5.06,23.21-3.59,36.17-15.64,41.47-10.54,2.82,2.71,1.35,8.26,1.19,8.87-2.28,8.61-13.93,12.05-18.08,13.27-19.71,5.81-32.78-3.17-35.73,1.56-3.16,5.07,9.63,19.11,20.79,27,6.54,4.62,17.84,12.61,26.83,8.85,5.61-2.34,5.31-7.15,13.34-11.28,1.63-.84,8.29-4.26,15.28-2.87,6.61,1.32,8.72,6.01,16.79,14.72,12.11,13.07,13.72,9.35,27.25,23.33,9.28,9.59,11.59,14.5,17.16,14.47,5.94-.03,12.26-5.65,12.02-10.36-.2-3.89-4.79-5.62-13.69-11.27-4.38-2.78-10.88-7.95-23.9-18.29-13.65-10.85-20.48-16.27-20.2-19.46Z" style="fill: #ba1255; stroke-width: 0px;"/>
      <path id="folhaLaranja" d="m156.73,231.06c.56-11.06,32.97-8.82,42.55-29.89,3.22-7.07,3.75-16.53,4.44-28.72.49-8.77-.12-12.02,1.29-19.8,2.3-12.64,6.44-17.9,4.74-19.26-2.81-2.27-18.2,9-30.68,23.49-12.13,14.07-14.4,22.91-25.96,27.16-6.61,2.43-15.59,3.11-17.59-.37-3.2-5.57,12.59-20.06,14.55-21.86,6.71-6.16,10.03-7.29,29.58-20.13,13.92-9.15,16.45-11.34,18.83-15.32.7-1.17,6.61-11.4,3.68-23.84-.68-2.89-3.12-13.28-10.02-15.07-1.28-.33-5.5-1.1-14.17,6.04-6.84,5.63-13.2,13.51-28.15,39.46-2.88,5-6.15,10.8-11.81,11.7-3.04.49-7.01-.4-9.21-3.19-2.71-3.43-1.55-8.21-1.08-10.15,2.33-9.6,10.97-14.33,23.71-23.99,25.37-19.25,28.74-29.06,29.76-32.75,2.38-8.61.3-14.27-.23-15.62-3.3-8.33-12.59-15.52-19.9-13.95-6.5,1.39-10.05,9.83-17.16,26.7-6.19,14.7-7.38,22.47-14.8,26-3.05,1.45-8.51,2.82-11.22.32-5.08-4.68.88-21.6,9.01-33.6,11.42-16.85,23.66-18.88,25.19-31.69.88-7.36-2.37-13.35-3.28-14.92-13.27-22.68-69.36-24.84-89.39,0-2.27,2.81-8.64,10.72-6.2,17.27,5.07,13.6,41.57,3.87,50.56,21.05,3.33,6.36,2.9,16.44-2.29,20.52-2.95,2.32-7.73,2.95-11.36,1.19-6.49-3.15-3.82-11.32-9.97-19.18-8.2-10.48-24.11-10.28-27.54-10.14-5.14.22-16.38.69-22.25,8.91-8.03,11.24-1.65,30.8,8.84,36.06,5.25,2.63,7.36-.4,29.45-2.21,15.17-1.24,21.21-.39,25.94,3.42,2.85,2.29,6.68,6.84,5.53,10.4-1.09,3.36-6.19,4.57-20.56,6.34-17.78,2.18-26.67,3.28-31.65,2.89-23.16-1.78-31.67-12.62-37.46-7.94-6.15,4.97-1.81,21.47,3.96,31.49.73,1.26,12.13,20.39,32.86,23.31,13.59,1.91,31.44-3.1,44.59-10.75,5.42-3.16,11.35-7.52,15.51-5.25,3.34,1.82,4.74,7.48,3.48,11.71-1.48,4.98-7.06,9.39-28.31,13.86-33.68,7.08-49.49,2.27-53.34,10.28-2.93,6.1,3.07,15.5,8.65,20.16,10.42,8.71,25.32,5.87,35.26,3.98,23.69-4.52,36.57-17.34,42.19-12.3,2.99,2.69,1.68,8.43,1.54,9.06-2.03,8.92-13.87,12.86-18.08,14.26-20.02,6.66-33.76-2.08-36.61,2.87-3.06,5.32,10.56,19.27,22.3,26.97,6.87,4.51,18.75,12.3,27.85,8.13,5.67-2.6,5.19-7.52,13.29-12.05,1.64-.92,8.36-4.67,15.58-3.49,6.83,1.12,9.16,5.86,17.75,14.51,12.9,12.98,14.41,9.11,28.79,22.97,9.87,9.51,12.41,14.47,18.12,14.24,6.1-.24,12.38-6.24,11.97-11.06-.34-3.98-5.12-5.59-14.45-11.08-4.59-2.7-11.45-7.77-25.17-17.92-14.4-10.64-21.6-15.97-21.43-19.25Z" style="fill: #141127; stroke-width: 0px;"/>
    </g>
  </g>
</svg>