<?xml version="1.0" encoding="UTF-8"?>
<svg id="Camada_2" data-name="Camada 2" xmlns="http://www.w3.org/2000/svg" viewBox="0 0 254.7 296.04">
  <g id="Camada_1-2" data-name="Camada 1">
    <g id="folha4">
      <path id="folhaAzul" d="m88.33,238.29c.47-11.55-33.43-12.32-41.37-35.13-2.67-7.66-2.32-17.54-1.87-30.28.32-9.16,1.27-12.48.55-20.7-1.18-13.36-4.98-19.22-3.09-20.48,3.14-2.09,18.05,11.1,29.65,27.35,11.26,15.79,12.78,25.19,24.39,30.71,6.64,3.15,15.91,4.72,18.32,1.3,3.86-5.49-11.17-22.06-13.04-24.12-6.39-7.05-9.73-8.54-28.82-23.75-13.6-10.84-16.02-13.36-18.11-17.73-.62-1.29-5.78-12.48-1.55-25.13.98-2.94,4.52-13.51,11.86-14.71,1.36-.22,5.82-.61,14.15,7.64,6.57,6.51,12.43,15.31,25.49,43.71,2.51,5.47,5.36,11.81,11.15,13.29,3.11.8,7.32.25,9.88-2.43,3.15-3.3,2.4-8.38,2.09-10.45-1.5-10.2-10.03-15.94-22.35-27.2-24.54-22.44-27.1-32.96-27.8-36.88-1.65-9.18,1.05-14.86,1.74-16.22,4.23-8.34,14.57-14.93,22.02-12.6,6.63,2.07,9.51,11.18,15.28,29.39,5.03,15.88,5.52,24.06,12.9,28.44,3.04,1.8,8.58,3.75,11.64,1.41,5.73-4.38,1.15-22.54-6.16-35.79-10.26-18.61-22.79-21.89-23.15-35.35-.21-7.73,3.74-13.65,4.84-15.19,15.96-22.31,74.47-19.19,92.92,8.55,2.09,3.14,7.96,11.97,4.79,18.55-6.57,13.65-43.58.05-54.57,17.04-4.07,6.29-4.59,16.81.42,21.55,2.84,2.69,7.76,3.8,11.69,2.32,7.04-2.66,5.05-11.4,12.2-18.99,9.52-10.11,26.04-8.38,29.6-7.9,5.33.72,16.96,2.29,22.28,11.39,7.28,12.45-1.23,32.17-12.63,36.64-5.7,2.24-7.61-1.12-30.4-5.11-15.65-2.74-22.01-2.43-27.29,1.08-3.18,2.11-7.6,6.47-6.75,10.29.81,3.6,6,5.35,20.77,8.56,18.27,3.97,27.41,5.96,32.62,6.03,24.24.37,34.12-10.09,39.7-4.67,5.92,5.76-.17,22.49-7.12,32.35-.87,1.24-14.56,20.03-36.39,21.09-14.31.69-32.39-6.22-45.33-15.44-5.33-3.8-11.08-8.91-15.62-6.94-3.64,1.58-5.64,7.32-4.74,11.84,1.06,5.32,6.44,10.44,28.1,17.11,34.33,10.58,51.23,7.1,54.46,15.79,2.46,6.62-4.68,15.81-10.92,20.12-11.67,8.06-26.88,3.68-37.03.76-24.19-6.96-36.35-21.52-42.68-16.82-3.37,2.51-2.56,8.6-2.47,9.27,1.26,9.47,13.19,14.69,17.43,16.55,20.18,8.84,35.29,1.06,37.78,6.48,2.68,5.82-12.82,19.02-25.76,25.9-7.58,4.03-20.67,11-29.73,5.79-5.64-3.25-4.68-8.32-12.66-13.8-1.62-1.11-8.24-5.65-15.86-5.11-7.21.51-10.08,5.21-19.84,13.38-14.65,12.26-15.85,8.09-32.13,21.13-11.17,8.94-14.28,13.85-20.2,13.07-6.32-.83-12.27-7.67-11.38-12.64.74-4.11,5.86-5.33,16.08-10.13,5.03-2.36,12.65-6.98,27.88-16.22,15.98-9.69,23.97-14.53,24.12-17.97Z" style="fill: #60a1c3; stroke-width: 0px;"/>
      <path id="folhaLaranja" d="m71.58,239.47c.9-11.83-33.87-13.84-41.21-37.53-2.46-7.95-1.75-18.08-.84-31.14.66-9.39,1.75-12.77,1.3-21.22-.73-13.76-4.43-19.9-2.44-21.12,3.3-2.03,18.13,12.03,29.45,29.12,10.99,16.6,12.21,26.31,23.93,32.39,6.7,3.47,16.16,5.41,18.75,1.99,4.16-5.49-10.67-23.03-12.52-25.22-6.31-7.46-9.68-9.11-28.73-25.4-13.57-11.61-15.96-14.29-17.96-18.84-.59-1.34-5.49-13.02-.7-25.85,1.11-2.98,5.12-13.7,12.69-14.68,1.4-.18,5.99-.42,14.25,8.34,6.51,6.92,12.21,16.15,24.6,45.77,2.38,5.7,5.08,12.31,10.97,14.04,3.17.93,7.51.52,10.23-2.14,3.35-3.28,2.76-8.52,2.52-10.65-1.18-10.52-9.73-16.72-21.97-28.71-24.38-23.9-26.64-34.79-27.22-38.84-1.36-9.48,1.6-15.21,2.36-16.58,4.64-8.41,15.49-14.8,23.04-12.15,6.73,2.36,9.36,11.81,14.64,30.71,4.6,16.47,4.81,24.89,12.23,29.65,3.05,1.95,8.67,4.15,11.89,1.86,6.04-4.29,1.98-23.09-5.04-36.95-9.87-19.46-22.6-23.28-22.5-37.1.06-7.95,4.32-13.88,5.51-15.42,17.18-22.32,77.11-17.04,95.06,12.09,2.03,3.3,7.74,12.56,4.26,19.21-7.23,13.78-44.73-1.5-56.61,15.55-4.4,6.31-5.31,17.09-.34,22.13,2.82,2.86,7.82,4.18,11.92,2.8,7.32-2.48,5.59-11.52,13.2-19.05,10.13-10.04,27.03-7.68,30.66-7.06,5.44.93,17.32,2.95,22.46,12.48,7.02,13.03-2.41,32.98-14.27,37.15-5.93,2.09-7.77-1.42-31.02-6.33-15.97-3.37-22.5-3.28-28.04.13-3.34,2.05-8.03,6.37-7.29,10.32.7,3.72,5.96,5.7,21.01,9.52,18.61,4.73,27.92,7.09,33.26,7.36,24.86,1.24,35.38-9.14,40.91-3.38,5.87,6.12-.97,23.07-8.46,32.95-.94,1.24-15.66,20.04-38.09,20.34-14.71.2-33.02-7.54-45.97-17.46-5.34-4.09-11.05-9.54-15.79-7.68-3.79,1.49-6.05,7.31-5.29,11.98.9,5.5,6.24,10.94,28.23,18.56,34.86,12.08,52.32,9.11,55.33,18.14,2.29,6.88-5.36,16.06-11.92,20.26-12.26,7.86-27.72,2.82-38.03-.54-24.58-8-36.54-23.38-43.2-18.78-3.55,2.45-2.93,8.73-2.86,9.43.95,9.76,13.01,15.55,17.3,17.61,20.39,9.79,36.18,2.35,38.54,8,2.54,6.07-13.84,19.06-27.36,25.67-7.92,3.87-21.61,10.55-30.72,4.88-5.68-3.53-4.5-8.7-12.5-14.61-1.62-1.2-8.26-6.1-16.09-5.81-7.42.27-10.53,4.99-20.84,13.03-15.47,12.06-16.56,7.74-33.73,20.54-11.78,8.78-15.15,13.71-21.2,12.7-6.45-1.08-12.32-8.31-11.23-13.38.9-4.19,6.2-5.26,16.87-9.83,5.25-2.25,13.23-6.72,29.19-15.65,16.75-9.37,25.12-14.06,25.39-17.58Z" style="fill: #ba1255; stroke-width: 0px;"/>
    </g>
  </g>
</svg>