<?xml version="1.0" encoding="UTF-8"?>
<svg id="Camada_2" data-name="Camada 2" xmlns="http://www.w3.org/2000/svg" viewBox="0 0 352.64 378.42">
  <g id="Camada_1-2" data-name="Camada 1">
    <g id="folha1">
      <path id="folhaVerde" d="m253.42,308.7c-2.43-15.53,43.27-21.84,50.47-53.9,2.42-10.76.41-24.06-2.17-41.21-1.86-12.33-3.65-16.68-3.95-27.89-.48-18.24,3.75-26.75,1-28.15-4.57-2.33-22.68,17.79-35.83,41.56-12.77,23.08-13.36,36.03-28.19,45.29-8.48,5.29-20.77,8.85-24.55,4.6-6.07-6.81,11.67-31.54,13.88-34.62,7.54-10.51,11.83-13.05,35.26-36.57,16.7-16.76,19.58-20.55,21.73-26.76.64-1.83,5.88-17.77-1.8-34.2-1.79-3.82-8.2-17.55-18.31-18.04-1.87-.09-7.96.07-17.94,12.52-7.87,9.82-14.42,22.62-27.67,63.03-2.55,7.78-5.42,16.8-13.01,19.69-4.08,1.56-9.86,1.47-13.73-1.76-4.77-3.97-4.54-10.96-4.45-13.8.45-14.02,11.09-23.1,25.98-40.23,29.68-34.13,31.52-48.74,31.86-54.16.8-12.66-3.72-19.92-4.86-21.64-7.01-10.62-22.01-17.92-31.71-13.62-8.63,3.83-11.12,16.58-16.1,42.09-4.34,22.24-3.73,33.38-13.03,40.44-3.82,2.9-11.01,6.39-15.51,3.71-8.42-5.03-5.05-30.28,2.77-49.32,10.98-26.74,27.4-33.11,25.81-51.36-.92-10.49-7.17-17.87-8.89-19.78C155.45-13.06,76.87.23,56.24,40.58c-2.34,4.57-8.9,17.41-3.6,25.81,11,17.43,58.91-6.69,76.39,14.57,6.47,7.87,8.81,22.01,2.78,29.19-3.42,4.08-9.89,6.34-15.44,4.95-9.93-2.5-8.6-14.62-19.43-23.77-14.44-12.19-36.5-7.29-41.23-6.09-7.09,1.8-22.57,5.72-28.35,18.85-7.9,17.95,6.65,43.29,22.75,47.56,8.06,2.14,10.12-2.7,40.3-11.63,20.73-6.14,29.37-6.7,37.04-2.78,4.62,2.36,11.28,7.56,10.71,12.86-.53,4.99-7.27,8.15-26.74,14.79-24.08,8.2-36.12,12.3-43.15,13.21-32.7,4.25-47.68-8.35-54.37-.16-7.11,8.7,3.71,30.37,14.64,42.62,1.37,1.54,22.78,24.82,52.44,22.86,19.44-1.28,42.81-13.43,58.86-27.89,6.62-5.96,13.59-13.76,20.04-11.8,5.17,1.57,8.76,9.02,8.24,15.27-.61,7.35-7.09,15.1-35.33,27.48-44.76,19.62-68.14,17.53-71.16,29.78-2.3,9.33,8.77,20.65,17.87,25.5,17.02,9.08,36.9.81,50.16-4.71,31.61-13.15,45.79-34.72,55.07-29.35,4.94,2.86,4.79,11.23,4.77,12.15-.23,12.99-15.55,21.9-20.99,25.07-25.9,15.07-47.53,6.91-50.06,14.62-2.71,8.28,20.28,23.72,38.82,31.01,10.86,4.27,29.64,11.66,41.08,3.21,7.13-5.26,5.03-11.97,14.97-20.61,2.01-1.75,10.26-8.92,20.64-9.37,9.82-.42,14.43,5.48,28.89,15.01,21.7,14.3,22.68,8.48,46.7,23.57,16.48,10.36,21.45,16.51,29.33,14.53,8.41-2.1,15.4-12.27,13.42-18.85-1.63-5.44-8.74-6.29-23.31-11.2-7.16-2.42-18.17-7.48-40.2-17.59-23.1-10.62-34.65-15.92-35.38-20.54Z" style="fill: #ba1255; stroke-width: 0px;"/>
      <path id="folhaRoxa" d="m231.18,308.9c-1.84-15.2,42.85-19.79,50.94-50.75,2.72-10.39,1.21-23.41-.72-40.18-1.39-12.06-2.99-16.35-2.9-27.28.15-17.77,4.55-25.9,1.92-27.36-4.37-2.43-22.67,16.55-36.27,39.23-13.21,22.03-14.22,34.61-28.97,43.12-8.43,4.86-20.51,7.91-24.05,3.65-5.67-6.84,12.43-30.3,14.68-33.22,7.7-9.98,11.95-12.3,35.56-34.4,16.82-15.75,19.75-19.33,22.05-25.31.68-1.76,6.32-17.09-.6-33.35-1.61-3.78-7.39-17.36-17.21-18.18-1.82-.15-7.75-.2-17.88,11.57-7.99,9.29-14.8,21.52-29.06,60.41-2.74,7.48-5.84,16.16-13.33,18.73-4.03,1.38-9.64,1.1-13.3-2.17-4.5-4.03-4.05-10.82-3.86-13.58.91-13.63,11.57-22.11,26.65-38.27,30.04-32.21,32.32-46.37,32.84-51.63,1.21-12.3-2.95-19.51-4-21.23-6.46-10.57-20.81-18.18-30.4-14.33-8.53,3.43-11.38,15.76-17.09,40.42-4.97,21.49-4.76,32.36-14.05,38.91-3.82,2.69-10.93,5.85-15.22,3.09-8.03-5.18-3.89-29.64,4.37-47.91,11.59-25.65,27.79-31.3,26.85-49.11-.54-10.24-6.37-17.64-7.99-19.55C146.72-7.56,69.79,2.71,48.34,41.29c-2.43,4.37-9.25,16.64-4.38,25,10.12,17.34,57.56-4.52,73.85,16.76,6.03,7.88,7.83,21.71,1.72,28.5-3.47,3.85-9.84,5.84-15.2,4.29-9.58-2.77-7.87-14.52-18.11-23.79-13.64-12.35-35.27-8.33-39.92-7.32-6.96,1.51-22.16,4.8-28.22,17.39-8.3,17.2,5.01,42.36,20.54,47.06,7.77,2.35,9.94-2.28,39.61-9.95,20.38-5.27,28.81-5.53,36.15-1.45,4.42,2.45,10.72,7.74,9.99,12.87-.69,4.84-7.35,7.69-26.53,13.49-23.71,7.17-35.57,10.75-42.44,11.4-31.97,3.03-46.12-9.74-52.91-2-7.21,8.22,2.59,29.68,12.81,41.97,1.28,1.54,21.33,24.92,50.27,24.02,18.96-.59,42.12-11.63,58.23-25.16,6.64-5.58,13.69-12.93,19.9-10.81,4.98,1.7,8.22,9.08,7.51,15.14-.84,7.13-7.41,14.46-35.31,25.55-44.22,17.58-66.9,14.76-70.26,26.58-2.56,9,7.84,20.39,16.53,25.43,16.25,9.42,35.89,2.04,48.98-2.89,31.21-11.73,45.74-32.25,54.58-26.7,4.71,2.95,4.28,11.09,4.23,11.98-.67,12.64-15.87,20.79-21.28,23.69-25.71,13.79-46.49,5.12-49.21,12.54-2.92,7.97,18.93,23.77,36.74,31.49,10.43,4.52,28.45,12.35,39.87,4.51,7.11-4.88,5.3-11.48,15.27-19.55,2.02-1.63,10.29-8.33,20.4-8.42,9.58-.08,13.86,5.82,27.61,15.58,20.63,14.65,21.78,9.02,44.65,24.52,15.69,10.63,20.32,16.79,28.05,15.14,8.25-1.76,15.4-11.42,13.7-17.89-1.41-5.35-8.3-6.42-22.31-11.69-6.89-2.59-17.43-7.89-38.53-18.48-22.13-11.11-33.19-16.67-33.73-21.19Z" style="fill: #dccdce; stroke-width: 0px;"/>
    </g>
  </g>
</svg>