<?xml version="1.0" encoding="UTF-8"?>
<svg id="Camada_2" data-name="Camada 2" xmlns="http://www.w3.org/2000/svg" viewBox="0 0 426.4 359.77">
  <g id="Camada_1-2" data-name="Camada 1">
    <g id="folha3">
      <path id="folhaVerde" d="m118.72,282.28c7.52-15.08-37.13-36.34-34.09-71.43,1.02-11.78,7.38-24.72,15.58-41.4,5.89-11.99,9.14-15.85,13.08-27.22,6.4-18.49,4.84-28.54,8.11-29.09,5.43-.9,17.4,25.53,23.14,54.07,5.57,27.72,1.97,41.14,14.13,55.41,6.95,8.16,18.35,15.77,23.59,12.66,8.41-5-1.7-36.01-2.96-39.87-4.3-13.19-7.86-17.17-24.18-48.79-11.63-22.54-13.34-27.34-13.53-34.39-.05-2.08-.24-20.06,12.93-34.36,3.06-3.33,14.07-15.28,24.55-12.5,1.94.51,8.11,2.65,14.27,18.6,4.86,12.58,7.41,27.78,7.84,73.37.08,8.77.09,18.92,6.91,24.34,3.67,2.92,9.6,4.7,14.6,2.66,6.16-2.52,8.19-9.72,9.02-12.66,4.08-14.47-3.84-27.2-13.51-49.53-19.26-44.49-16.4-60.02-15-65.66,3.29-13.2,10.26-19.15,11.98-20.54,10.61-8.58,28.29-11.18,36.81-3.64,7.58,6.71,5.99,20.55,2.8,48.22-2.78,24.13-7.01,35.31.2,45.54,2.97,4.2,9.18,10.1,14.64,8.82,10.23-2.4,14.97-29.3,13.15-51.29-2.55-30.88-17.26-42.72-9.72-60.84,4.33-10.42,13.12-15.94,15.5-17.33,34.55-20.16,110.54,18.89,118.54,66.81.91,5.43,3.45,20.67-4.69,27.54-16.89,14.25-58.02-25.93-82.77-9.87-9.16,5.95-16.13,19.63-12.3,28.93,2.17,5.28,8.05,9.69,14.17,10.06,10.96.67,13.53-12.15,27.56-17.99,18.7-7.77,39.66,4.38,44.1,7.14,6.66,4.13,21.2,13.16,22.85,28.45,2.26,20.9-20.83,42.08-38.67,41.22-8.92-.43-9.46-6.03-37.4-24.94-19.19-12.99-27.83-16.36-36.95-14.85-5.49.91-13.97,4.07-15.11,9.66-1.07,5.27,4.79,10.69,22.53,23.78,21.95,16.18,32.92,24.28,39.81,27.49,32.03,14.95,51.43,6.93,55.61,17.46,4.44,11.19-13.64,29.82-28.77,38.8-1.9,1.13-31.32,17.97-60.99,6.35-19.45-7.61-39.39-27.6-51.1-47.58-4.83-8.24-9.43-18.46-16.65-18.55-5.79-.07-11.88,6.38-13.37,12.93-1.76,7.71,2.35,17.73,27.19,39.53,39.37,34.56,63.93,40,63.05,53.5-.67,10.28-15.65,18.25-26.53,20.27-20.33,3.77-37.97-11.13-49.73-21.07-28.04-23.69-35.53-50.32-46.75-47.84-5.98,1.33-8.53,9.92-8.81,10.86-3.97,13.35,8.78,27.42,13.32,32.42,21.58,23.79,46.32,22.47,46.41,31.16.09,9.34-28.41,17.66-49.72,19.1-12.48.84-34.07,2.3-43.01-10.04-5.57-7.69-1.26-13.86-8.62-25.91-1.49-2.44-7.59-12.44-18.05-16.26-9.9-3.62-16.53.92-34.38,5.97-26.8,7.57-25.92,1.31-55.35,8.95-20.19,5.24-27.26,9.91-34.68,5.34-7.91-4.87-11.76-17.53-7.6-23.61,3.43-5.03,10.97-3.59,27.45-3.89,8.1-.15,20.99-1.75,46.77-4.95,27.05-3.36,40.57-5.04,42.8-9.52Z" style="fill: #ba1255; stroke-width: 0px;"/>
      <path id="folhaRoxa" d="m141.37,289.69c6.81-14.93-37.36-34.11-35.59-68.36.59-11.5,6.35-24.31,13.76-40.82,5.33-11.87,8.36-15.74,11.81-26.93,5.61-18.21,3.74-27.94,6.91-28.58,5.25-1.06,17.8,24.26,24.34,51.84,6.36,26.79,3.31,39.98,15.62,53.45,7.04,7.7,18.39,14.73,23.39,11.52,8.01-5.15-2.87-34.99-4.23-38.7-4.63-12.69-8.23-16.44-25.18-46.67-12.08-21.54-13.91-26.16-14.33-33.01-.12-2.02-.92-19.51,11.42-33.88,2.87-3.34,13.17-15.34,23.47-13,1.91.43,7.98,2.31,14.52,17.62,5.16,12.08,8.15,26.79,10.11,71.14.38,8.54.73,18.41,7.55,23.45,3.67,2.71,9.5,4.25,14.3,2.09,5.91-2.66,7.64-9.74,8.35-12.62,3.49-14.22-4.66-26.34-14.82-47.74-20.25-42.65-17.99-57.86-16.81-63.4,2.75-12.95,9.34-18.98,10.97-20.4,10.03-8.71,27.16-11.83,35.71-4.78,7.6,6.27,6.52,19.79,4.36,46.84-1.89,23.57-5.63,34.61,1.74,44.31,3.03,3.99,9.27,9.52,14.55,8.09,9.88-2.69,13.58-29.02,11.07-50.36-3.53-29.96-18.24-40.99-11.52-58.88,3.87-10.28,12.23-15.95,14.5-17.39,32.94-20.79,108.21,14.65,117.62,61.01,1.07,5.25,4.06,20-3.63,26.96-15.96,14.44-57.34-23.28-80.89-6.81-8.72,6.1-15.04,19.65-10.99,28.57,2.29,5.06,8.16,9.15,14.14,9.31,10.69.28,12.75-12.28,26.22-18.44,17.94-8.2,38.74,2.92,43.16,5.46,6.62,3.8,21.08,12.09,23.2,26.91,2.9,20.27-18.85,41.66-36.24,41.42-8.7-.12-9.41-5.55-37.25-23.01-19.12-11.99-27.64-14.98-36.46-13.2-5.31,1.07-13.46,4.43-14.38,9.92-.87,5.17,5.02,10.24,22.73,22.38,21.91,15.01,32.86,22.51,39.67,25.41,31.68,13.46,50.28,5,54.71,15.11,4.7,10.74-12.26,29.49-26.69,38.73-1.81,1.16-29.88,18.55-59.15,8.25-19.18-6.75-39.26-25.53-51.34-44.58-4.98-7.85-9.8-17.65-16.83-17.49-5.64.12-11.34,6.61-12.58,13.03-1.45,7.56,2.89,17.18,27.8,37.55,39.49,32.3,63.58,36.77,63.17,49.93-.31,10.03-14.62,18.29-25.13,20.62-19.66,4.35-37.33-9.55-49.11-18.83-28.09-22.11-36.28-47.78-47.12-44.97-5.77,1.49-7.97,9.94-8.21,10.87-3.41,13.13,9.48,26.39,14.06,31.1,21.8,22.43,45.84,20.3,46.22,28.76.4,9.09-27.05,18.15-47.74,20.27-12.12,1.24-33.08,3.39-42.2-8.32-5.68-7.29-1.7-13.44-9.26-24.92-1.53-2.32-7.81-11.85-18.12-15.22-9.76-3.19-16.05,1.46-33.26,6.97-25.83,8.28-25.18,2.15-53.57,10.58-19.48,5.78-26.2,10.57-33.57,6.37-7.86-4.48-12.03-16.66-8.2-22.72,3.17-5.01,10.56-3.87,26.58-4.71,7.88-.42,20.37-2.41,45.35-6.4,26.21-4.18,39.31-6.27,41.34-10.71Z" style="fill: #60a1c3; stroke-width: 0px;"/>
    </g>
  </g>
</svg>