<?xml version="1.0" encoding="UTF-8"?>
<svg id="Camada_2" data-name="Camada 2" xmlns="http://www.w3.org/2000/svg" viewBox="0 0 419.01 364.07">
  <g id="Camada_1-2" data-name="Camada 1">
    <g id="folha1">
      <path id="folhaVerde" d="m301.51,290.71c-6.83-15.4,38.73-34.63,37.27-69.82-.49-11.81-6.26-25.03-13.7-42.06-5.35-12.25-8.42-16.25-11.84-27.78-5.57-18.75-3.55-28.73-6.79-29.42-5.38-1.15-18.53,24.72-25.54,52.98-6.81,27.44-3.82,41.01-16.6,54.72-7.31,7.84-19.04,14.93-24.14,11.58-8.17-5.37,3.32-35.89,4.75-39.69,4.89-12.98,8.62-16.8,26.35-47.66,12.63-21.99,14.56-26.71,15.06-33.75.15-2.08,1.15-20.03-11.37-34.91-2.91-3.46-13.36-15.89-23.97-13.59-1.96.43-8.22,2.29-15.09,17.94-5.42,12.35-8.65,27.42-11.13,72.94-.48,8.76-.94,18.89-8,24-3.79,2.75-9.8,4.26-14.7,2-6.04-2.79-7.75-10.08-8.44-13.05-3.43-14.64,5.06-27,15.72-48.87,21.24-43.58,19.08-59.22,17.93-64.92-2.69-13.33-9.39-19.59-11.05-21.06-10.21-9.05-27.76-12.44-36.61-5.29-7.87,6.36-6.91,20.26-4.97,48.05,1.69,24.23,5.41,35.59-2.25,45.48-3.15,4.07-9.62,9.68-15.02,8.15-10.12-2.86-13.64-29.95-10.83-51.83,3.94-30.73,19.16-41.9,12.45-60.34-3.86-10.6-12.39-16.51-14.7-18.01C110.67-15.18,33.01,20.41,22.86,67.92c-1.15,5.38-4.38,20.49,3.45,27.72,16.23,14.99,59.13-23.3,83.13-6.14,8.89,6.35,15.23,20.34,10.99,29.45-2.41,5.17-8.48,9.31-14.61,9.41-10.98.17-12.97-12.75-26.73-19.21-18.33-8.61-39.81,2.59-44.38,5.15-6.84,3.83-21.77,12.19-24.11,27.39-3.19,20.78,18.92,42.97,36.77,42.92,8.93-.03,9.72-5.6,38.49-23.23,19.76-12.11,28.54-15.1,37.58-13.17,5.44,1.16,13.78,4.69,14.66,10.33.84,5.31-5.26,10.46-23.58,22.74-22.65,15.18-33.98,22.77-41,25.67-32.67,13.49-51.69,4.61-56.34,14.94-4.94,10.98,12.28,30.41,27,40.05,1.85,1.21,30.48,19.36,60.65,9.09,19.77-6.73,40.59-25.8,53.19-45.24,5.19-8.01,10.25-18.02,17.47-17.78,5.79.19,11.58,6.91,12.78,13.52,1.41,7.78-3.14,17.61-28.94,38.27-40.89,32.75-65.67,37.09-65.39,50.61.21,10.3,14.82,18.94,25.59,21.44,20.14,4.68,38.43-9.42,50.63-18.81,29.07-22.4,37.76-48.68,48.85-45.68,5.91,1.59,8.08,10.29,8.32,11.25,3.37,13.51-10.01,26.99-14.77,31.79-22.62,22.8-47.29,20.36-47.76,29.05-.51,9.33,27.58,18.92,48.81,21.32,12.43,1.4,33.93,3.83,43.42-8.09,5.91-7.43,1.88-13.79,9.78-25.5,1.6-2.37,8.15-12.09,18.76-15.43,10.05-3.17,16.47,1.66,34.08,7.51,26.43,8.77,25.83,2.48,54.89,11.43,19.94,6.14,26.79,11.13,34.4,6.9,8.12-4.51,12.53-16.98,8.66-23.25-3.2-5.18-10.8-4.08-27.24-5.12-8.09-.51-20.89-2.69-46.5-7.05-26.87-4.57-40.3-6.86-42.33-11.43Z" style="fill: #ba1255; stroke-width: 0px;"/>
      <path id="folhaRoxa" d="m278.54,297.1c-6.13-15.22,38.86-32.4,38.63-66.7-.08-11.51-5.25-24.57-11.91-41.4-4.79-12.1-7.64-16.1-10.58-27.43-4.78-18.44-2.48-28.08-5.61-28.86-5.2-1.3-18.87,23.44-26.65,50.7-7.55,26.48-5.1,39.79-18.01,52.69-7.38,7.38-19.04,13.89-23.88,10.46-7.77-5.5,4.44-34.82,5.96-38.47,5.19-12.47,8.96-16.06,27.25-45.49,13.04-20.97,15.07-25.5,15.8-32.34.21-2.01,1.79-19.45-9.89-34.36-2.72-3.47-12.47-15.92-22.86-14.04-1.93.35-8.08,1.95-15.29,16.95-5.69,11.84-9.35,26.4-13.3,70.61-.76,8.51-1.56,18.36-8.6,23.09-3.79,2.55-9.68,3.82-14.38,1.45-5.78-2.92-7.2-10.07-7.77-12.99-2.84-14.36,5.84-26.1,16.95-47.03,22.15-41.69,20.57-56.99,19.65-62.58-2.17-13.07-8.47-19.38-10.04-20.87-9.63-9.15-26.6-13.04-35.45-6.38-7.88,5.92-7.41,19.48-6.46,46.59.82,23.64,4.07,34.82-3.73,44.19-3.2,3.85-9.69,9.09-14.9,7.42-9.75-3.13-12.26-29.6-8.79-50.81,4.87-29.77,20.07-40.13,14.15-58.31-3.4-10.45-11.5-16.49-13.7-18.02C103.15-7.06,26.36,24.96,14.88,70.85c-1.3,5.2-4.95,19.8,2.42,27.09,15.29,15.14,58.33-20.68,81.11-3.17,8.44,6.48,14.14,20.31,9.7,29.03-2.52,4.95-8.57,8.78-14.54,8.67-10.69-.2-12.19-12.85-25.36-19.6-17.55-9-38.83,1.18-43.36,3.51-6.78,3.5-21.6,11.13-24.39,25.84-3.81,20.12,16.96,42.46,34.34,43.01,8.7.28,9.65-5.12,38.24-21.31,19.64-11.12,28.29-13.73,37.02-11.55,5.26,1.31,13.25,5.03,13.92,10.55.63,5.2-5.48,10.01-23.72,21.33-22.56,14.01-33.84,21.01-40.77,23.6-32.26,12.03-50.46,2.74-55.34,12.64-5.18,10.52,10.92,30.01,24.92,39.89,1.76,1.24,29.01,19.87,58.72,10.9,19.47-5.88,40.37-23.74,53.29-42.23,5.33-7.62,10.58-17.19,17.6-16.72,5.62.38,11.03,7.11,11.98,13.59,1.11,7.62-3.66,17.03-29.46,36.27-40.9,30.49-65.16,33.87-65.35,47.04-.14,10.03,13.78,18.93,24.18,21.73,19.44,5.23,37.72-7.86,49.91-16.6,29.05-20.82,38.39-46.1,49.09-42.81,5.7,1.75,7.51,10.29,7.71,11.23,2.82,13.27-10.65,25.93-15.45,30.44-22.79,21.43-46.71,18.22-47.46,26.65-.81,9.06,26.2,19.35,46.78,22.4,12.05,1.79,32.89,4.88,42.53-6.41,6.01-7.03,2.3-13.35,10.38-24.48,1.64-2.25,8.34-11.49,18.78-14.39,9.89-2.75,15.97,2.18,32.91,8.46,25.43,9.43,25.06,3.28,53.04,12.98,19.2,6.65,25.7,11.74,33.25,7.88,8.05-4.12,12.77-16.1,9.21-22.33-2.94-5.15-10.37-4.34-26.34-5.9-7.85-.77-20.24-3.32-45.02-8.43-25.99-5.36-38.99-8.03-40.81-12.56Z" style="fill: #141127; stroke-width: 0px;"/>
    </g>
  </g>
</svg>