<?xml version="1.0" encoding="UTF-8"?>
<svg id="Camada_2" data-name="Camada 2" xmlns="http://www.w3.org/2000/svg" xmlns:xlink="http://www.w3.org/1999/xlink" viewBox="0 0 1151.96 437.54">
  <defs>
    <radialGradient id="Gradiente_sem_nome_272" data-name="Gradiente sem nome 272" cx="1093.8" cy="47.11" fx="1093.8" fy="47.11" r="212.76" gradientTransform="translate(-120.48 -20.88) rotate(11.43)" gradientUnits="userSpaceOnUse">
      <stop offset="0" stop-color="#301b44"/>
      <stop offset=".15" stop-color="#2d2247"/>
      <stop offset=".39" stop-color="#26364f"/>
      <stop offset=".66" stop-color="#1a575c"/>
      <stop offset=".74" stop-color="#176261"/>
    </radialGradient>
    <radialGradient id="Gradiente_sem_nome_111" data-name="Gradiente sem nome 111" cx="998.53" cy="158.29" fx="998.53" fy="158.29" r="207.19" gradientTransform="translate(2.1 -74.16) rotate(9.44)" gradientUnits="userSpaceOnUse">
      <stop offset="0" stop-color="#533174"/>
      <stop offset=".33" stop-color="#553073" stop-opacity=".98"/>
      <stop offset=".5" stop-color="#5f2e70" stop-opacity=".91"/>
      <stop offset=".64" stop-color="#712a6b" stop-opacity=".8"/>
      <stop offset=".76" stop-color="#892465" stop-opacity=".64"/>
      <stop offset=".86" stop-color="#a91d5c" stop-opacity=".43"/>
      <stop offset=".96" stop-color="#cf1452" stop-opacity=".17"/>
      <stop offset="1" stop-color="#e5104d" stop-opacity=".03"/>
    </radialGradient>
    <radialGradient id="Gradiente_sem_nome_130" data-name="Gradiente sem nome 130" cx="806.27" cy="67.41" fx="806.27" fy="67.41" r="145.91" gradientTransform="translate(136.45 -233.29) rotate(23.51)" gradientUnits="userSpaceOnUse">
      <stop offset="0" stop-color="#1e0f28"/>
      <stop offset=".21" stop-color="#1f1229"/>
      <stop offset=".38" stop-color="#221b2d"/>
      <stop offset=".53" stop-color="#282c34"/>
      <stop offset=".66" stop-color="#30433d"/>
      <stop offset=".8" stop-color="#3a614a"/>
      <stop offset=".92" stop-color="#478559"/>
      <stop offset=".99" stop-color="#509f64"/>
    </radialGradient>
    <radialGradient id="Gradiente_sem_nome_121" data-name="Gradiente sem nome 121" cx="814.07" cy="138.77" fx="814.07" fy="138.77" r="150.96" gradientUnits="userSpaceOnUse">
      <stop offset="0" stop-color="#7b5e83"/>
      <stop offset=".12" stop-color="#805d7f"/>
      <stop offset=".28" stop-color="#905c76"/>
      <stop offset=".46" stop-color="#ab5a67"/>
      <stop offset=".65" stop-color="#d05853"/>
      <stop offset=".75" stop-color="#e85746"/>
    </radialGradient>
    <radialGradient id="Gradiente_sem_nome_272-2" data-name="Gradiente sem nome 272" cx="631.53" cy="135.9" fx="631.53" fy="135.9" r="212.76" gradientTransform="translate(801.75 -20.88) rotate(168.57) scale(1 -1)" xlink:href="#Gradiente_sem_nome_272"/>
    <radialGradient id="Gradiente_sem_nome_111-2" data-name="Gradiente sem nome 111" cx="533.46" cy="230.98" fx="533.46" fy="230.98" r="207.19" gradientTransform="translate(679.16 -74.16) rotate(170.56) scale(1 -1)" xlink:href="#Gradiente_sem_nome_111"/>
    <radialGradient id="Gradiente_sem_nome_130-2" data-name="Gradiente sem nome 130" cx="372.8" cy="250.92" fx="372.8" fy="250.92" gradientTransform="translate(544.82 -233.29) rotate(156.49) scale(1 -1)" xlink:href="#Gradiente_sem_nome_130"/>
    <radialGradient id="Gradiente_sem_nome_121-2" data-name="Gradiente sem nome 121" cx="343.38" cy="134.16" fx="343.38" fy="134.16" gradientTransform="translate(681.27) rotate(-180) scale(1 -1)" xlink:href="#Gradiente_sem_nome_121"/>
  </defs>
  <g id="P2">
    <g id="COSTELAS_DE_ADÃO" data-name="COSTELAS DE ADÃO">
      <g id="COSTELA_1" data-name="COSTELA 1">
        <g>
          <path d="m833.78,365.71c5.52-17.72-46.76-32.98-49.62-71.67-.96-12.99,3.68-28.17,9.66-47.75,4.3-14.08,7.15-18.84,9.43-31.89,3.71-21.22.24-31.88,3.7-33.05,5.74-1.94,23.41,24.7,34.66,54.72,10.93,29.16,9.38,44.39,25.1,57.76,8.99,7.65,22.73,13.92,27.88,9.61,8.26-6.91-8.18-38.85-10.23-42.82-6.99-13.58-11.56-17.28-34.86-48.8-16.61-22.46-19.31-27.38-20.75-35.01-.42-2.25-3.79-21.76,8.01-39.63,2.75-4.16,12.61-19.08,24.5-17.91,2.2.22,9.28,1.46,18.78,17.72,7.5,12.82,12.94,28.9,21.42,78.39,1.63,9.53,3.42,20.55,11.79,25.25,4.5,2.53,11.26,3.42,16.34.32,6.25-3.82,7.2-12.01,7.58-15.35,1.9-16.45-8.96-28.89-23.39-51.47-28.76-44.98-28.38-62.37-27.85-68.75,1.25-14.93,7.79-22.62,9.42-24.44,10.02-11.19,28.8-17.12,39.38-10.42,9.42,5.96,10.12,21.29,11.52,51.94,1.22,26.72-1.41,39.63,8.23,49.47,3.96,4.05,11.75,9.37,17.47,7.01,10.7-4.41,11.13-34.49,5.28-58.08-8.2-33.12-26.28-43.41-21.26-64.44,2.88-12.09,11.46-19.63,13.8-21.56,34.02-27.99,123.5,1.11,140.62,51.8,1.94,5.74,7.39,21.87-.26,30.76-15.86,18.46-67.64-18-91.73,3.82-8.92,8.08-14.09,24.18-8.29,33.61,3.29,5.36,10.46,9.12,17.18,8.44,12.03-1.2,12.57-15.59,26.8-24.4,18.97-11.74,43.88-2.21,49.2.01,7.97,3.32,25.36,10.58,29.85,26.91,6.13,22.33-15.25,49.41-34.79,51.61-9.78,1.1-11.35-4.9-45.05-20.54-23.15-10.75-33.14-12.9-42.78-9.65-5.81,1.96-14.48,6.88-14.73,13.16-.24,5.92,7.08,10.78,28.68,21.89,26.71,13.74,40.06,20.61,48.11,22.89,37.46,10.62,57.13-1.51,63.53,9.21,6.8,11.39-9.58,34.82-24.46,47.24-1.87,1.56-30.9,25.04-65.2,17.63-22.48-4.86-47.67-23.09-63.92-42.75-6.7-8.1-13.5-18.41-21.36-17.24-6.31.94-11.79,9.02-12.26,16.41-.56,8.69,5.67,18.86,36.51,38.2,48.88,30.65,76.54,32.25,77.95,47.08,1.08,11.29-13.81,22.6-25.28,26.7-21.44,7.67-43.24-5.43-57.77-14.17-34.65-20.83-47.48-48.47-59.24-43.79-6.26,2.49-7.53,12.28-7.67,13.36-1.97,15.21,14.37,28.26,20.18,32.91,27.64,22.08,54.31,16.29,55.93,25.72,1.74,10.14-27.78,24.2-50.7,29.51-13.42,3.11-36.63,8.49-48.53-3.35-7.41-7.38-3.81-14.84-13.92-26.65-2.05-2.39-10.44-12.19-22.48-14.51-11.4-2.19-17.8,3.91-36.33,12.53-27.81,12.95-27.95,5.98-58.61,19.46-21.03,9.25-27.9,15.57-36.76,11.9-9.45-3.91-15.86-16.99-12.41-24.33,2.85-6.07,11.3-5.83,29.16-9.05,8.78-1.58,22.52-5.59,49.98-13.6,28.81-8.4,43.22-12.61,44.86-17.87Z" style="fill: url(#Gradiente_sem_nome_272); stroke-width: 0px;"/>
          <path d="m859.72,369.78c4.78-17.43-46.62-30.52-50.72-68.07-1.38-12.61,2.63-27.54,7.78-46.8,3.71-13.84,6.32-18.58,8.1-31.35,2.9-20.78-.84-31.04,2.49-32.29,5.52-2.08,23.62,23.25,35.58,52.09,11.62,28.01,10.63,42.88,26.38,55.36,9.01,7.14,22.59,12.78,27.46,8.41,7.81-7-9.27-37.53-11.4-41.33-7.26-12.98-11.83-16.43-35.58-46.31-16.92-21.29-19.72-25.99-21.38-33.37-.49-2.18-4.43-21.05,6.46-38.84,2.53-4.14,11.62-19,23.24-18.26,2.15.14,9.08,1.11,18.88,16.61,7.73,12.23,13.57,27.69,23.5,75.57,1.91,9.22,4.03,19.88,12.33,24.17,4.46,2.31,11.07,2.95,15.91-.24,5.96-3.93,6.6-11.93,6.86-15.19,1.29-16.07-9.69-27.82-24.51-49.3-29.51-42.81-29.73-59.74-29.42-65.97.71-14.57,6.81-22.28,8.34-24.1,9.38-11.23,27.45-17.64,37.98-11.48,9.37,5.48,10.57,20.37,12.97,50.16,2.09,25.96-.04,38.61,9.68,47.87,3.99,3.81,11.75,8.72,17.24,6.23,10.27-4.66,9.66-33.94,3.18-56.7-9.1-31.96-27.04-41.36-22.87-62,2.4-11.86,10.49-19.49,12.71-21.45,32.16-28.39,120.23-3.1,138.6,45.66,2.08,5.52,7.93,21.03.79,29.95-14.81,18.5-66.43-15.23-89.14,6.81-8.41,8.16-12.89,24.01-6.93,32.99,3.38,5.1,10.49,8.52,17,7.64,11.67-1.58,11.71-15.6,25.26-24.65,18.06-12.07,42.63-3.63,47.89-1.65,7.86,2.96,25.04,9.44,29.96,25.18,6.72,21.53-13.17,48.6-32.12,51.41-9.48,1.4-11.21-4.38-44.54-18.47-22.89-9.68-32.69-11.43-41.96-7.94-5.59,2.1-13.86,7.19-13.89,13.31-.03,5.77,7.26,10.25,28.65,20.33,26.45,12.47,39.68,18.7,47.6,20.65,36.81,9.07,55.55-3.4,62.14,6.81,7,10.85-8.15,34.21-22.21,46.8-1.77,1.58-29.22,25.42-62.85,19.36-22.04-3.97-47.18-20.86-63.65-39.44-6.79-7.66-13.76-17.46-21.37-16.06-6.1,1.13-11.17,9.18-11.38,16.38-.25,8.48,6.16,18.17,36.82,35.94,48.61,28.17,75.58,28.8,77.46,43.18,1.43,10.96-12.68,22.46-23.7,26.84-20.61,8.19-42.26-3.82-56.7-11.84-34.42-19.1-47.84-45.56-59.13-40.61-6.01,2.64-6.92,12.21-7.01,13.26-1.41,14.87,14.94,27.02,20.76,31.35,27.65,20.55,53.41,14.01,55.3,23.15,2.04,9.81-26.22,24.49-48.34,30.43-12.96,3.48-35.36,9.5-47.34-1.62-7.46-6.93-4.21-14.32-14.45-25.47-2.08-2.26-10.58-11.51-22.37-13.36-11.17-1.75-17.2,4.4-34.94,13.43-26.63,13.54-27,6.77-56.38,20.92-20.16,9.71-26.63,16.1-35.37,12.83-9.33-3.49-16.01-16-12.91-23.26,2.57-6,10.8-6.06,28.07-9.8,8.49-1.84,21.72-6.2,48.19-14.93,27.76-9.15,41.64-13.73,43.06-18.91Z" style="fill: url(#Gradiente_sem_nome_111); stroke-width: 0px;"/>
        </g>
        <g>
          <path d="m758.44,217.43c6.24-11.09-26.62-28.83-23-55.18,1.22-8.85,6.51-18.37,13.32-30.64,4.9-8.82,7.5-11.61,10.9-20.03,5.53-13.7,4.74-21.35,7.22-21.63,4.13-.47,12.16,19.92,15.39,41.67,3.14,21.12-.08,31.11,8.55,42.33,4.93,6.42,13.24,12.6,17.32,10.45,6.53-3.45.09-27.23-.72-30.19-2.74-10.11-5.27-13.25-16.38-37.73-7.91-17.44-9.02-21.13-8.89-26.46.04-1.57.58-15.14,11.06-25.43,2.44-2.39,11.19-10.99,19-8.5,1.45.46,6.02,2.31,10.06,14.57,3.19,9.68,4.53,21.24,3.12,55.64-.27,6.62-.65,14.27,4.29,18.62,2.66,2.34,7.06,3.91,10.91,2.56,4.74-1.66,6.55-7.02,7.29-9.2,3.63-10.76-1.86-20.66-8.31-37.87-12.84-34.29-10.09-45.9-8.81-50.1,2.98-9.83,8.47-14.05,9.82-15.04,8.33-6.07,21.77-7.35,27.91-1.34,5.46,5.35,3.73,15.73.28,36.48-3.01,18.09-6.63,26.37-1.58,34.36,2.08,3.28,6.54,7.97,10.71,7.21,7.81-1.42,12.41-21.53,11.87-38.19-.75-23.39-11.39-32.88-5.02-46.26,3.67-7.69,10.5-11.52,12.35-12.48,26.83-13.89,82.66,18.46,86.87,54.91.48,4.13,1.82,15.72-4.59,20.59-13.28,10.1-42.78-21.77-62.06-10.6-7.14,4.14-12.92,14.19-10.38,21.35,1.44,4.06,5.71,7.61,10.31,8.13,8.24.92,10.67-8.65,21.47-12.52,14.4-5.15,29.75,4.81,32.99,7.06,4.86,3.37,15.49,10.73,16.16,22.33.91,15.85-17.31,30.95-30.74,29.62-6.72-.66-6.91-4.91-27.26-20.24-13.98-10.53-20.37-13.4-27.31-12.61-4.18.48-10.69,2.54-11.77,6.71-1.01,3.93,3.2,8.25,16.09,18.79,15.94,13.04,23.91,19.56,28.98,22.25,23.6,12.49,38.53,7.18,41.28,15.29,2.93,8.61-11.42,21.98-23.18,28.17-1.48.78-24.31,12.36-46.25,2.47-14.38-6.48-28.66-22.32-36.73-37.84-3.33-6.4-6.41-14.28-11.85-14.63-4.36-.28-9.2,4.36-10.58,9.24-1.62,5.75,1.1,13.46,19,30.85,28.38,27.56,46.7,32.61,45.52,42.75-.9,7.73-12.5,13.17-20.78,14.28-15.48,2.07-28.22-9.84-36.71-17.79-20.25-18.94-24.89-39.31-33.44-37.86-4.56.77-6.81,7.16-7.06,7.86-3.5,9.92,5.58,21.02,8.82,24.96,15.37,18.77,34.09,18.71,33.82,25.27-.29,7.05-22.1,12.24-38.23,12.52-9.45.16-25.78.44-32.06-9.21-3.91-6.01-.42-10.5-5.52-19.87-1.03-1.9-5.25-9.67-13-12.95-7.33-3.11-12.5.07-26.16,3.19-20.51,4.69-19.6,0-42.09,4.64-15.43,3.18-20.94,6.44-26.36,2.71-5.78-3.98-8.2-13.67-4.83-18.1,2.78-3.66,8.41-2.29,20.85-1.89,6.12.2,15.9-.52,35.47-1.95,20.53-1.5,30.79-2.25,32.65-5.55Z" style="fill: url(#Gradiente_sem_nome_130); stroke-width: 0px;"/>
          <path d="m741.42,210.21c6.8-11.16-26.3-30.53-21.63-57.45,1.56-9.04,7.33-18.62,14.77-30.97,5.35-8.88,8.11-11.65,11.9-20.17,6.17-13.86,5.62-21.74,8.18-21.94,4.25-.34,11.77,20.88,14.31,43.31,2.47,21.79-1.19,31.93,7.26,43.75,4.83,6.76,13.14,13.4,17.4,11.34,6.83-3.31,1.06-27.94.34-31-2.45-10.47-4.94-13.79-15.46-39.3-7.5-18.18-8.51-22.01-8.19-27.47.1-1.61,1.13-15.52,12.26-25.7,2.59-2.37,11.88-10.88,19.8-8.04,1.47.53,6.09,2.59,9.8,15.32,2.93,10.04,3.89,21.96,1.22,57.21-.51,6.79-1.18,14.62,3.74,19.27,2.64,2.5,7.1,4.26,11.1,3.02,4.92-1.54,6.97-6.97,7.81-9.19,4.11-10.91-1.17-21.27-7.17-39.16-11.95-35.65-8.72-47.46-7.26-51.73,3.41-9.98,9.19-14.12,10.61-15.08,8.76-5.93,22.6-6.77,28.69-.38,5.42,5.68,3.27,16.27-1.02,37.45-3.74,18.46-7.75,26.83-2.85,35.2,2.01,3.44,6.42,8.41,10.73,7.78,8.07-1.18,13.5-21.66,13.55-38.77.06-24.03-10.52-34.15-3.5-47.66,4.04-7.76,11.19-11.45,13.12-12.37,28.03-13.3,84.17,21.89,87.2,59.45.34,4.25,1.3,16.2-5.44,20.97-13.99,9.9-43.12-23.87-63.31-13.09-7.47,3.99-13.76,14.11-11.41,21.54,1.33,4.22,5.58,8.02,10.29,8.71,8.42,1.24,11.25-8.5,22.49-12.08,14.97-4.77,30.36,6,33.61,8.43,4.87,3.63,15.52,11.57,15.78,23.49.37,16.3-18.87,31.14-32.6,29.3-6.87-.92-6.91-5.29-27.26-21.74-13.98-11.3-20.43-14.48-27.57-13.91-4.3.34-11.07,2.22-12.31,6.47-1.18,4,2.99,8.58,15.84,19.86,15.89,13.95,23.84,20.93,28.95,23.87,23.77,13.66,39.28,8.74,41.82,17.16,2.7,8.94-12.5,22.15-24.8,28.08-1.54.75-25.39,11.82-47.55.89-14.53-7.17-28.62-23.93-36.35-40.14-3.19-6.68-6.07-14.89-11.64-15.43-4.47-.44-9.6,4.15-11.19,9.11-1.87,5.84.65,13.86,18.4,32.34,28.15,29.3,46.77,35.13,45.2,45.5-1.2,7.9-13.3,13.07-21.84,13.91-15.96,1.57-28.61-11.11-37.04-19.56-20.1-20.15-24.14-41.23-32.97-40.05-4.7.63-7.25,7.1-7.53,7.81-3.95,10.05,4.98,21.77,8.16,25.93,15.1,19.81,34.31,20.42,33.81,27.14-.55,7.22-23.12,11.78-39.68,11.48-9.7-.17-26.48-.47-32.58-10.59-3.8-6.31-.06-10.79-4.95-20.59-.99-1.98-5.05-10.11-12.88-13.76-7.41-3.45-12.83-.38-26.96,2.34-21.21,4.09-20.11-.7-43.37,3.26-15.95,2.72-21.72,5.86-27.15,1.84-5.79-4.29-7.93-14.32-4.32-18.75,2.98-3.66,8.71-2.05,21.47-1.2,6.27.42,16.34.03,36.47-.74,21.12-.81,31.68-1.22,33.71-4.53Z" style="fill: url(#Gradiente_sem_nome_121); stroke-width: 0px;"/>
        </g>
        <g>
          <path d="m318.18,361.1c-5.52-17.72,46.76-32.98,49.62-71.67.96-12.99-3.68-28.17-9.66-47.75-4.3-14.08-7.15-18.84-9.43-31.89-3.71-21.22-.24-31.88-3.7-33.05-5.74-1.94-23.41,24.7-34.66,54.72-10.93,29.16-9.38,44.39-25.1,57.76-8.99,7.65-22.73,13.92-27.88,9.61-8.26-6.91,8.18-38.85,10.23-42.82,6.99-13.58,11.56-17.28,34.86-48.8,16.61-22.46,19.31-27.38,20.75-35.01.42-2.25,3.79-21.76-8.01-39.63-2.75-4.16-12.61-19.08-24.5-17.91-2.2.22-9.28,1.46-18.78,17.72-7.5,12.82-12.94,28.9-21.42,78.39-1.63,9.53-3.42,20.55-11.79,25.25-4.5,2.53-11.26,3.42-16.34.32-6.25-3.82-7.2-12.01-7.58-15.35-1.9-16.45,8.96-28.89,23.39-51.47,28.76-44.98,28.38-62.37,27.85-68.75-1.25-14.93-7.79-22.62-9.42-24.44-10.02-11.19-28.8-17.12-39.38-10.42-9.42,5.96-10.12,21.29-11.52,51.94-1.22,26.72,1.41,39.63-8.23,49.47-3.96,4.05-11.75,9.37-17.47,7.01-10.7-4.41-11.13-34.49-5.28-58.08,8.2-33.12,26.28-43.41,21.26-64.44-2.88-12.09-11.46-19.63-13.8-21.56-34.02-27.99-123.5,1.11-140.62,51.8-1.94,5.74-7.39,21.87.26,30.76,15.86,18.46,67.64-18,91.73,3.82,8.92,8.08,14.09,24.18,8.29,33.61-3.29,5.36-10.46,9.12-17.18,8.44-12.03-1.2-12.57-15.59-26.8-24.4-18.97-11.74-43.88-2.21-49.2.01-7.97,3.32-25.36,10.58-29.85,26.91-6.13,22.33,15.25,49.41,34.79,51.61,9.78,1.1,11.35-4.9,45.05-20.54,23.15-10.75,33.14-12.9,42.78-9.65,5.81,1.96,14.48,6.88,14.73,13.16.24,5.92-7.08,10.78-28.68,21.89-26.71,13.74-40.06,20.61-48.11,22.89-37.46,10.62-57.13-1.51-63.53,9.21-6.8,11.39,9.58,34.82,24.46,47.24,1.87,1.56,30.9,25.04,65.2,17.63,22.48-4.86,47.67-23.09,63.92-42.75,6.7-8.1,13.5-18.41,21.36-17.24,6.31.94,11.79,9.02,12.26,16.41.56,8.69-5.67,18.86-36.51,38.2-48.88,30.65-76.54,32.25-77.95,47.08-1.08,11.29,13.81,22.6,25.28,26.7,21.44,7.67,43.24-5.43,57.77-14.17,34.65-20.83,47.48-48.47,59.24-43.79,6.26,2.49,7.53,12.28,7.67,13.36,1.97,15.21-14.37,28.26-20.18,32.91-27.64,22.08-54.31,16.29-55.93,25.72-1.74,10.14,27.78,24.2,50.7,29.51,13.42,3.11,36.63,8.49,48.53-3.35,7.41-7.38,3.81-14.84,13.92-26.65,2.05-2.39,10.44-12.19,22.48-14.51,11.4-2.19,17.8,3.91,36.33,12.53,27.81,12.95,27.95,5.98,58.61,19.46,21.03,9.25,27.9,15.57,36.76,11.9,9.45-3.91,15.86-16.99,12.41-24.33-2.85-6.07-11.3-5.83-29.16-9.05-8.78-1.58-22.52-5.59-49.98-13.6-28.81-8.4-43.22-12.61-44.86-17.87Z" style="fill: url(#Gradiente_sem_nome_272-2); stroke-width: 0px;"/>
          <path d="m292.24,365.18c-4.78-17.43,46.62-30.52,50.72-68.07,1.38-12.61-2.63-27.54-7.78-46.8-3.71-13.84-6.32-18.58-8.1-31.35-2.9-20.78.84-31.04-2.49-32.29-5.52-2.08-23.62,23.25-35.58,52.09-11.62,28.01-10.63,42.88-26.38,55.36-9.01,7.14-22.59,12.78-27.46,8.41-7.81-7,9.27-37.53,11.4-41.33,7.26-12.98,11.83-16.43,35.58-46.31,16.92-21.29,19.72-25.99,21.38-33.37.49-2.18,4.43-21.05-6.46-38.84-2.53-4.14-11.62-19-23.24-18.26-2.15.14-9.08,1.11-18.88,16.61-7.73,12.23-13.57,27.69-23.5,75.57-1.91,9.22-4.03,19.88-12.33,24.17-4.46,2.31-11.07,2.95-15.91-.24-5.96-3.93-6.6-11.93-6.86-15.19-1.29-16.07,9.69-27.82,24.51-49.3,29.51-42.81,29.73-59.74,29.42-65.97-.71-14.57-6.81-22.28-8.34-24.1-9.38-11.23-27.45-17.64-37.98-11.48-9.37,5.48-10.57,20.37-12.97,50.16-2.09,25.96.04,38.61-9.68,47.87-3.99,3.81-11.75,8.72-17.24,6.23-10.27-4.66-9.66-33.94-3.18-56.7,9.1-31.96,27.04-41.36,22.87-62-2.4-11.86-10.49-19.49-12.71-21.45-32.16-28.39-120.23-3.1-138.6,45.66-2.08,5.52-7.93,21.03-.79,29.95,14.81,18.5,66.43-15.23,89.14,6.81,8.41,8.16,12.89,24.01,6.93,32.99-3.38,5.1-10.49,8.52-17,7.64-11.67-1.58-11.71-15.6-25.26-24.65-18.06-12.07-42.63-3.63-47.89-1.65-7.86,2.96-25.04,9.44-29.96,25.18-6.72,21.53,13.17,48.6,32.12,51.41,9.48,1.4,11.21-4.38,44.54-18.47,22.89-9.68,32.69-11.43,41.96-7.94,5.59,2.1,13.86,7.19,13.89,13.31.03,5.77-7.26,10.25-28.65,20.33-26.45,12.47-39.68,18.7-47.6,20.65-36.81,9.07-55.55-3.4-62.14,6.81-7,10.85,8.15,34.21,22.21,46.8,1.77,1.58,29.22,25.42,62.85,19.36,22.04-3.97,47.18-20.86,63.65-39.44,6.79-7.66,13.76-17.46,21.37-16.06,6.1,1.13,11.17,9.18,11.38,16.38.25,8.48-6.16,18.17-36.82,35.94-48.61,28.17-75.58,28.8-77.46,43.18-1.43,10.96,12.68,22.46,23.7,26.84,20.61,8.19,42.26-3.82,56.7-11.84,34.42-19.1,47.84-45.56,59.13-40.61,6.01,2.64,6.92,12.21,7.01,13.26,1.41,14.87-14.94,27.02-20.76,31.35-27.65,20.55-53.41,14.01-55.3,23.15-2.04,9.81,26.22,24.49,48.34,30.43,12.96,3.48,35.36,9.5,47.34-1.62,7.46-6.93,4.21-14.32,14.45-25.47,2.08-2.26,10.58-11.51,22.37-13.36,11.17-1.75,17.2,4.4,34.94,13.43,26.63,13.54,27,6.77,56.38,20.92,20.16,9.71,26.63,16.1,35.37,12.83,9.33-3.49,16.01-16,12.91-23.26-2.57-6-10.8-6.06-28.07-9.8-8.49-1.84-21.72-6.2-48.19-14.93-27.76-9.15-41.64-13.73-43.06-18.91Z" style="fill: url(#Gradiente_sem_nome_111-2); stroke-width: 0px;"/>
        </g>
        <g>
          <path d="m393.52,212.83c-6.24-11.09,26.62-28.83,23-55.18-1.22-8.85-6.51-18.37-13.32-30.64-4.9-8.82-7.5-11.61-10.9-20.03-5.53-13.7-4.74-21.35-7.22-21.63-4.13-.47-12.16,19.92-15.39,41.67-3.14,21.12.08,31.11-8.55,42.33-4.93,6.42-13.24,12.6-17.32,10.45-6.53-3.45-.09-27.23.72-30.19,2.74-10.11,5.27-13.25,16.38-37.73,7.91-17.44,9.02-21.13,8.89-26.46-.04-1.57-.58-15.14-11.06-25.43-2.44-2.39-11.19-10.99-19-8.5-1.45.46-6.02,2.31-10.06,14.57-3.19,9.68-4.53,21.24-3.12,55.64.27,6.62.65,14.27-4.29,18.62-2.66,2.34-7.06,3.91-10.91,2.56-4.74-1.66-6.55-7.02-7.29-9.2-3.63-10.76,1.86-20.66,8.31-37.87,12.84-34.29,10.09-45.9,8.81-50.1-2.98-9.83-8.47-14.05-9.82-15.04-8.33-6.07-21.77-7.35-27.91-1.34-5.46,5.35-3.73,15.73-.28,36.48,3.01,18.09,6.63,26.37,1.58,34.36-2.08,3.28-6.54,7.97-10.71,7.21-7.81-1.42-12.41-21.53-11.87-38.19.75-23.39,11.39-32.88,5.02-46.26-3.67-7.69-10.5-11.52-12.35-12.48-26.83-13.89-82.66,18.46-86.87,54.91-.48,4.13-1.82,15.72,4.59,20.59,13.28,10.1,42.78-21.77,62.06-10.6,7.14,4.14,12.92,14.19,10.38,21.35-1.44,4.06-5.71,7.61-10.31,8.13-8.24.92-10.67-8.65-21.47-12.52-14.4-5.15-29.75,4.81-32.99,7.06-4.86,3.37-15.49,10.73-16.16,22.33-.91,15.85,17.31,30.95,30.74,29.62,6.72-.66,6.91-4.91,27.26-20.24,13.98-10.53,20.37-13.4,27.31-12.61,4.18.48,10.69,2.54,11.77,6.71,1.01,3.93-3.2,8.25-16.09,18.79-15.94,13.04-23.91,19.56-28.98,22.25-23.6,12.49-38.53,7.18-41.28,15.29-2.93,8.61,11.42,21.98,23.18,28.17,1.48.78,24.31,12.36,46.25,2.47,14.38-6.48,28.66-22.32,36.73-37.84,3.33-6.4,6.41-14.28,11.85-14.63,4.36-.28,9.2,4.36,10.58,9.24,1.62,5.75-1.1,13.46-19,30.85-28.38,27.56-46.7,32.61-45.52,42.75.9,7.73,12.5,13.17,20.78,14.28,15.48,2.07,28.22-9.84,36.71-17.79,20.25-18.94,24.89-39.31,33.44-37.86,4.56.77,6.81,7.16,7.06,7.86,3.5,9.92-5.58,21.02-8.82,24.96-15.37,18.77-34.09,18.71-33.82,25.27.29,7.05,22.1,12.24,38.23,12.52,9.45.16,25.78.44,32.06-9.21,3.91-6.01.42-10.5,5.52-19.87,1.03-1.9,5.25-9.67,13-12.95,7.33-3.11,12.5.07,26.16,3.19,20.51,4.69,19.6,0,42.09,4.64,15.43,3.18,20.94,6.44,26.36,2.71,5.78-3.98,8.2-13.67,4.83-18.1-2.78-3.66-8.41-2.29-20.85-1.89-6.12.2-15.9-.52-35.47-1.95-20.53-1.5-30.79-2.25-32.65-5.55Z" style="fill: url(#Gradiente_sem_nome_130-2); stroke-width: 0px;"/>
          <path d="m410.54,205.61c-6.8-11.16,26.3-30.53,21.63-57.45-1.56-9.04-7.33-18.62-14.77-30.97-5.35-8.88-8.11-11.65-11.9-20.17-6.17-13.86-5.62-21.74-8.18-21.94-4.25-.34-11.77,20.88-14.31,43.31-2.47,21.79,1.19,31.93-7.26,43.75-4.83,6.76-13.14,13.4-17.4,11.34-6.83-3.31-1.06-27.94-.34-31,2.45-10.47,4.94-13.79,15.46-39.3,7.5-18.18,8.51-22.01,8.19-27.47-.1-1.61-1.13-15.52-12.26-25.7-2.59-2.37-11.88-10.88-19.8-8.04-1.47.53-6.09,2.59-9.8,15.32-2.93,10.04-3.89,21.96-1.22,57.21.51,6.79,1.18,14.62-3.74,19.27-2.64,2.5-7.1,4.26-11.1,3.02-4.92-1.54-6.97-6.97-7.81-9.19-4.11-10.91,1.17-21.27,7.17-39.16,11.95-35.65,8.72-47.46,7.26-51.73-3.41-9.98-9.19-14.12-10.61-15.08-8.76-5.93-22.6-6.77-28.69-.38-5.42,5.68-3.27,16.27,1.02,37.45,3.74,18.46,7.75,26.83,2.85,35.2-2.01,3.44-6.42,8.41-10.73,7.78-8.07-1.18-13.5-21.66-13.55-38.77-.06-24.03,10.52-34.15,3.5-47.66-4.04-7.76-11.19-11.45-13.12-12.37-28.03-13.3-84.17,21.89-87.2,59.45-.34,4.25-1.3,16.2,5.44,20.97,13.99,9.9,43.12-23.87,63.31-13.09,7.47,3.99,13.76,14.11,11.41,21.54-1.33,4.22-5.58,8.02-10.29,8.71-8.42,1.24-11.25-8.5-22.49-12.08-14.97-4.77-30.36,6-33.61,8.43-4.87,3.63-15.52,11.57-15.78,23.49-.37,16.3,18.87,31.14,32.6,29.3,6.87-.92,6.91-5.29,27.26-21.74,13.98-11.3,20.43-14.48,27.57-13.91,4.3.34,11.07,2.22,12.31,6.47,1.18,4-2.99,8.58-15.84,19.86-15.89,13.95-23.84,20.93-28.95,23.87-23.77,13.66-39.28,8.74-41.82,17.16-2.7,8.94,12.5,22.15,24.8,28.08,1.54.75,25.39,11.82,47.55.89,14.53-7.17,28.62-23.93,36.35-40.14,3.19-6.68,6.07-14.89,11.64-15.43,4.47-.44,9.6,4.15,11.19,9.11,1.87,5.84-.65,13.86-18.4,32.34-28.15,29.3-46.77,35.13-45.2,45.5,1.2,7.9,13.3,13.07,21.84,13.91,15.96,1.57,28.61-11.11,37.04-19.56,20.1-20.15,24.14-41.23,32.97-40.05,4.7.63,7.25,7.1,7.53,7.81,3.95,10.05-4.98,21.77-8.16,25.93-15.1,19.81-34.31,20.42-33.81,27.14.55,7.22,23.12,11.78,39.68,11.48,9.7-.17,26.48-.47,32.58-10.59,3.8-6.31.06-10.79,4.95-20.59.99-1.98,5.05-10.11,12.88-13.76,7.41-3.45,12.83-.38,26.96,2.34,21.21,4.09,20.11-.7,43.37,3.26,15.95,2.72,21.72,5.86,27.15,1.84,5.79-4.29,7.93-14.32,4.32-18.75-2.98-3.66-8.71-2.05-21.47-1.2-6.27.42-16.34.03-36.47-.74-21.12-.81-31.68-1.22-33.71-4.53Z" style="fill: url(#Gradiente_sem_nome_121-2); stroke-width: 0px;"/>
        </g>
      </g>
    </g>
  </g>
</svg>