<?xml version="1.0" encoding="UTF-8"?>
<svg id="Camada_2" data-name="Camada 2" xmlns="http://www.w3.org/2000/svg" xmlns:xlink="http://www.w3.org/1999/xlink" viewBox="0 0 1340.08 509">
  <defs>
    <radialGradient id="Gradiente_sem_nome_272" data-name="Gradiente sem nome 272" cx="1125.22" cy="-566.9" fx="1125.22" fy="-566.9" r="247.5" gradientTransform="translate(-119.11 -105.25) rotate(-11.43) scale(1 -1)" gradientUnits="userSpaceOnUse">
      <stop offset="0" stop-color="#301b44"/>
      <stop offset=".15" stop-color="#2d2247"/>
      <stop offset=".39" stop-color="#26364f"/>
      <stop offset=".66" stop-color="#1a575c"/>
      <stop offset=".74" stop-color="#176261"/>
    </radialGradient>
    <radialGradient id="Gradiente_sem_nome_111" data-name="Gradiente sem nome 111" cx="1054.35" cy="-457.46" fx="1054.35" fy="-457.46" r="241.02" gradientTransform="translate(2.97 -55.23) rotate(-9.44) scale(1 -1)" gradientUnits="userSpaceOnUse">
      <stop offset="0" stop-color="#533174"/>
      <stop offset=".33" stop-color="#553073" stop-opacity=".98"/>
      <stop offset=".5" stop-color="#5f2e70" stop-opacity=".91"/>
      <stop offset=".64" stop-color="#712a6b" stop-opacity=".8"/>
      <stop offset=".76" stop-color="#892465" stop-opacity=".64"/>
      <stop offset=".86" stop-color="#a91d5c" stop-opacity=".43"/>
      <stop offset=".96" stop-color="#cf1452" stop-opacity=".17"/>
      <stop offset="1" stop-color="#e5104d" stop-opacity=".03"/>
    </radialGradient>
    <radialGradient id="Gradiente_sem_nome_130" data-name="Gradiente sem nome 130" cx="691.24" cy="-527.51" fx="691.24" fy="-527.51" r="169.73" gradientTransform="translate(143.29 126.34) rotate(-23.51) scale(1 -1)" gradientUnits="userSpaceOnUse">
      <stop offset="0" stop-color="#1e0f28"/>
      <stop offset=".21" stop-color="#1f1229"/>
      <stop offset=".38" stop-color="#221b2d"/>
      <stop offset=".53" stop-color="#282c34"/>
      <stop offset=".66" stop-color="#30433d"/>
      <stop offset=".8" stop-color="#3a614a"/>
      <stop offset=".92" stop-color="#478559"/>
      <stop offset=".99" stop-color="#509f64"/>
    </radialGradient>
    <radialGradient id="Gradiente_sem_nome_121" data-name="Gradiente sem nome 121" cx="947.02" cy="-492.55" fx="947.02" fy="-492.55" r="175.61" gradientTransform="translate(0 -144.98) scale(1 -1)" gradientUnits="userSpaceOnUse">
      <stop offset="0" stop-color="#7b5e83"/>
      <stop offset=".12" stop-color="#805d7f"/>
      <stop offset=".28" stop-color="#905c76"/>
      <stop offset=".46" stop-color="#ab5a67"/>
      <stop offset=".65" stop-color="#d05853"/>
      <stop offset=".75" stop-color="#e85746"/>
    </radialGradient>
    <radialGradient id="Gradiente_sem_nome_272-2" data-name="Gradiente sem nome 272" cx="664.31" cy="-479.15" fx="664.31" fy="-479.15" r="247.5" gradientTransform="translate(990.04 -105.25) rotate(-168.57)" xlink:href="#Gradiente_sem_nome_272"/>
    <radialGradient id="Gradiente_sem_nome_111-2" data-name="Gradiente sem nome 111" cx="590.68" cy="-385.76" fx="590.68" fy="-385.76" r="241.02" gradientTransform="translate(867.96 -55.23) rotate(-170.56)" xlink:href="#Gradiente_sem_nome_111"/>
    <radialGradient id="Gradiente_sem_nome_130-2" data-name="Gradiente sem nome 130" cx="258.88" cy="-345.3" fx="258.88" fy="-345.3" r="169.73" gradientTransform="translate(727.64 126.34) rotate(-156.49)" xlink:href="#Gradiente_sem_nome_130"/>
    <radialGradient id="Gradiente_sem_nome_121-2" data-name="Gradiente sem nome 121" cx="477.86" cy="-497.91" fx="477.86" fy="-497.91" r="175.61" gradientTransform="translate(870.93 -144.98) rotate(-180)" xlink:href="#Gradiente_sem_nome_121"/>
  </defs>
  <g id="P2">
    <g id="COSTELAS_DE_ADÃO" data-name="COSTELAS DE ADÃO">
      <g id="COSTELA_3" data-name="COSTELA 3" style="opacity: .35;">
        <g>
          <path d="m969.95,83.57c6.42,20.61-54.39,38.37-57.73,83.37-1.12,15.11,4.28,32.77,11.23,55.55,5,16.37,8.32,21.92,10.97,37.1,4.32,24.69.28,37.09,4.31,38.45,6.68,2.25,27.23-28.73,40.32-63.66,12.71-33.92,10.91-51.63,29.2-67.19,10.46-8.9,26.44-16.2,32.43-11.18,9.61,8.04-9.52,45.19-11.9,49.82-8.13,15.8-13.45,20.11-40.56,56.77-19.32,26.12-22.47,31.85-24.14,40.73-.49,2.62-4.41,25.32,9.32,46.1,3.19,4.83,14.67,22.2,28.5,20.83,2.56-.25,10.8-1.7,21.85-20.61,8.72-14.92,15.05-33.62,24.92-91.19,1.9-11.08,3.98-23.91,13.72-29.37,5.23-2.94,13.1-3.98,19-.37,7.27,4.44,8.37,13.97,8.82,17.85,2.21,19.14-10.42,33.61-27.21,59.87-33.46,52.33-33.02,72.56-32.39,79.98,1.46,17.36,9.06,26.31,10.95,28.43,11.66,13.02,33.5,19.92,45.82,12.13,10.96-6.93,11.77-24.76,13.41-60.42,1.42-31.08-1.64-46.1,9.57-57.55,4.61-4.71,13.67-10.9,20.32-8.16,12.45,5.13,12.94,40.12,6.15,67.56-9.54,38.53-30.57,50.5-24.73,74.96,3.35,14.06,13.33,22.84,16.06,25.08,39.57,32.56,143.66-1.29,163.58-60.26,2.26-6.68,8.59-25.44-.3-35.79-18.45-21.47-78.68,20.94-106.71-4.44-10.38-9.39-16.39-28.13-9.64-39.1,3.83-6.23,12.17-10.6,19.98-9.82,13.99,1.4,14.62,18.14,31.18,28.39,22.06,13.66,51.05,2.57,57.24-.01,9.27-3.86,29.51-12.31,34.72-31.31,7.13-25.98-17.74-57.48-40.47-60.04-11.37-1.28-13.2,5.7-52.41,23.9-26.93,12.5-38.55,15-49.77,11.22-6.76-2.28-16.84-8.01-17.14-15.31-.28-6.88,8.24-12.54,33.36-25.46,31.07-15.98,46.6-23.97,55.97-26.63,43.57-12.35,66.46,1.76,73.9-10.71,7.91-13.24-11.15-40.51-28.46-54.95-2.18-1.81-35.94-29.13-75.84-20.51-26.15,5.65-55.46,26.86-74.36,49.73-7.79,9.43-15.7,21.42-24.85,20.06-7.34-1.09-13.72-10.5-14.27-19.09-.65-10.11,6.6-21.94,42.47-44.44,56.86-35.65,89.04-37.52,90.69-54.77,1.25-13.14-16.07-26.28-29.41-31.06-24.94-8.92-50.3,6.32-67.21,16.48-40.3,24.23-55.23,56.38-68.91,50.94-7.29-2.9-8.76-14.29-8.92-15.54-2.29-17.7,16.72-32.88,23.48-38.28,32.15-25.68,63.18-18.94,65.06-29.93,2.02-11.8-32.31-28.15-58.98-34.33-15.62-3.62-42.61-9.88-56.45,3.9-8.62,8.58-4.43,17.27-16.2,31.01-2.38,2.78-12.15,14.18-26.15,16.88-13.26,2.55-20.71-4.55-42.27-14.58-32.35-15.06-32.51-6.96-68.18-22.64-24.47-10.76-32.46-18.11-42.76-13.85-11,4.55-18.45,19.76-14.44,28.31,3.31,7.06,13.14,6.79,33.92,10.53,10.22,1.84,26.19,6.5,58.15,15.82,33.52,9.78,50.28,14.67,52.19,20.79Z" style="fill: url(#Gradiente_sem_nome_272); stroke-width: 0px;"/>
          <path d="m1000.12,78.83c5.56,20.28-54.23,35.5-59,79.19-1.6,14.66,3.06,32.04,9.05,54.44,4.31,16.1,7.35,21.61,9.42,36.48,3.37,24.17-.98,36.11,2.89,37.56,6.42,2.42,27.48-27.04,41.39-60.59,13.52-32.59,12.36-49.88,30.69-64.41,10.48-8.3,26.28-14.87,31.94-9.79,9.08,8.15-10.79,43.66-13.26,48.08-8.45,15.1-13.77,19.11-41.39,53.88-19.68,24.77-22.94,30.24-24.87,38.82-.57,2.53-5.15,24.49,7.52,45.18,2.95,4.81,13.52,22.1,27.03,21.24,2.5-.16,10.57-1.29,21.96-19.32,8.99-14.23,15.78-32.22,27.34-87.91,2.22-10.72,4.69-23.13,14.34-28.12,5.19-2.68,12.88-3.43,18.51.28,6.93,4.57,7.68,13.88,7.98,17.67,1.5,18.7-11.28,32.36-28.51,57.35-34.33,49.8-34.59,69.5-34.23,76.74.83,16.95,7.93,25.92,9.7,28.04,10.91,13.07,31.93,20.52,44.18,13.35,10.9-6.38,12.3-23.7,15.09-58.35,2.43-30.2-.04-44.92,11.26-55.69,4.65-4.43,13.67-10.14,20.05-7.25,11.95,5.42,11.24,39.48,3.7,65.96-10.59,37.18-31.46,48.11-26.61,72.12,2.79,13.8,12.2,22.68,14.78,24.95,37.41,33.03,139.86,3.6,161.24-53.11,2.42-6.42,9.22-24.47.92-34.84-17.23-21.52-77.28,17.72-103.7-7.93-9.78-9.49-15-27.93-8.06-38.38,3.94-5.93,12.2-9.91,19.78-8.88,13.57,1.83,13.62,18.14,29.39,28.68,21.01,14.04,49.6,4.23,55.71,1.92,9.15-3.45,29.13-10.98,34.85-29.29,7.82-25.04-15.32-56.54-37.36-59.8-11.03-1.63-13.04,5.1-51.81,21.49-26.63,11.26-38.02,13.3-48.81,9.24-6.5-2.45-16.12-8.36-16.16-15.48-.04-6.71,8.44-11.93,33.33-23.65,30.77-14.5,46.16-21.75,55.37-24.02,42.82-10.55,64.62,3.96,72.29-7.93,8.14-12.62-9.48-39.8-25.84-54.44-2.06-1.84-33.99-29.57-73.12-22.52-25.64,4.62-54.88,24.26-74.05,45.88-7.9,8.91-16,20.32-24.87,18.68-7.1-1.31-12.99-10.68-13.24-19.06-.29-9.86,7.16-21.13,42.84-41.81,56.54-32.78,87.93-33.5,90.11-50.23,1.66-12.74-14.75-26.12-27.57-31.22-23.98-9.53-49.16,4.45-65.96,13.77-40.04,22.22-55.66,53-68.79,47.25-6.99-3.07-8.04-14.2-8.16-15.43-1.63-17.3,17.38-31.43,24.15-36.46,32.16-23.91,62.13-16.3,64.33-26.93,2.37-11.41-30.5-28.49-56.24-35.4-15.08-4.05-41.14-11.05-55.07,1.89-8.68,8.06-4.89,16.65-16.81,29.63-2.41,2.63-12.3,13.39-26.02,15.54-12.99,2.04-20-5.12-40.64-15.62-30.97-15.75-31.4-7.87-65.59-24.34-23.45-11.29-30.98-18.72-41.15-14.92-10.86,4.05-18.63,18.61-15.01,27.06,2.98,6.98,12.56,7.05,32.65,11.4,9.88,2.14,25.27,7.21,56.05,17.36,32.29,10.65,48.44,15.97,50.09,22Z" style="fill: url(#Gradiente_sem_nome_111); stroke-width: 0px;"/>
        </g>
        <g>
          <path d="m882.3,256.06c7.26,12.9-30.97,33.53-26.75,64.19,1.42,10.29,7.57,21.37,15.5,35.64,5.7,10.26,8.72,13.51,12.68,23.3,6.44,15.94,5.51,24.83,8.4,25.16,4.8.55,14.14-23.18,17.91-48.47,3.66-24.57-.09-36.19,9.94-49.25,5.74-7.47,15.41-14.65,20.14-12.15,7.6,4.01.1,31.67-.83,35.11-3.19,11.76-6.13,15.41-19.05,43.89-9.21,20.29-10.5,24.58-10.35,30.78.04,1.83.67,17.61,12.87,29.58,2.84,2.78,13.02,12.78,22.1,9.88,1.68-.54,7-2.69,11.7-16.95,3.71-11.26,5.27-24.71,3.63-64.73-.32-7.7-.76-16.6,4.99-21.66,3.09-2.72,8.21-4.55,12.69-2.98,5.51,1.94,7.62,8.17,8.48,10.71,4.23,12.52-2.17,24.03-9.66,44.06-14.93,39.89-11.73,53.39-10.25,58.28,3.47,11.43,9.85,16.35,11.42,17.49,9.69,7.06,25.32,8.55,32.46,1.56,6.35-6.22,4.34-18.29.32-42.44-3.5-21.05-7.71-30.68-1.84-39.97,2.42-3.82,7.6-9.27,12.46-8.39,9.09,1.66,14.44,25.05,13.81,44.43-.87,27.21-13.26,38.25-5.83,53.82,4.27,8.95,12.21,13.4,14.37,14.52,31.21,16.16,96.16-21.47,101.06-63.87.55-4.8,2.11-18.29-5.33-23.96-15.45-11.75-49.76,25.33-72.2,12.33-8.31-4.81-15.02-16.51-12.07-24.84,1.67-4.73,6.64-8.86,11.99-9.45,9.58-1.07,12.41,10.06,24.98,14.56,16.76,5.99,34.6-5.6,38.38-8.22,5.66-3.92,18.02-12.49,18.79-25.97,1.05-18.44-20.14-36-35.75-34.46-7.81.77-8.04,5.71-31.72,23.54-16.27,12.25-23.7,15.59-31.77,14.66-4.86-.56-12.44-2.95-13.69-7.81-1.18-4.58,3.73-9.59,18.72-21.86,18.54-15.17,27.81-22.76,33.71-25.88,27.45-14.53,44.82-8.35,48.02-17.78,3.4-10.02-13.29-25.57-26.97-32.77-1.72-.91-28.28-14.38-53.8-2.88-16.73,7.54-33.34,25.97-42.73,44.02-3.87,7.44-7.46,16.62-13.79,17.02-5.08.32-10.7-5.07-12.31-10.75-1.89-6.69,1.28-15.66,22.11-35.89,33.02-32.07,54.33-37.93,52.96-49.73-1.05-8.99-14.54-15.32-24.18-16.61-18.01-2.4-32.82,11.45-42.7,20.69-23.55,22.03-28.95,45.73-38.91,44.05-5.3-.9-7.93-8.33-8.21-9.14-4.08-11.54,6.49-24.45,10.25-29.04,17.88-21.84,39.65-21.77,39.34-29.4-.34-8.2-25.71-14.24-44.48-14.56-10.99-.19-29.99-.51-37.3,10.71-4.55,6.99-.49,12.21-6.42,23.12-1.2,2.21-6.11,11.25-15.12,15.07-8.53,3.61-14.54-.08-30.44-3.71-23.85-5.46-22.8,0-48.97-5.4-17.95-3.7-24.36-7.49-30.67-3.15-6.72,4.63-9.54,15.9-5.62,21.06,3.23,4.26,9.79,2.67,24.26,2.2,7.12-.23,18.5.6,41.26,2.27,23.88,1.75,35.82,2.62,37.98,6.46Z" style="fill: url(#Gradiente_sem_nome_130); stroke-width: 0px;"/>
          <path d="m862.5,264.46c7.92,12.98-30.59,35.52-25.17,66.83,1.82,10.51,8.53,21.66,17.18,36.02,6.22,10.33,9.43,13.55,13.84,23.46,7.17,16.13,6.54,25.29,9.52,25.53,4.95.4,13.69-24.29,16.65-50.39,2.88-25.35-1.38-37.14,8.45-50.9,5.62-7.87,15.29-15.59,20.24-13.19,7.94,3.85,1.23,32.5.4,36.07-2.85,12.18-5.75,16.04-17.99,45.72-8.73,21.15-9.9,25.6-9.52,31.95.11,1.87,1.32,18.05,14.26,29.9,3.01,2.76,13.82,12.65,23.03,9.36,1.71-.61,7.09-3.01,11.4-17.82,3.4-11.68,4.53-25.54,1.42-66.56-.6-7.89-1.37-17.01,4.35-22.41,3.07-2.9,8.27-4.96,12.92-3.51,5.73,1.79,8.11,8.11,9.08,10.69,4.78,12.69-1.37,24.74-8.34,45.56-13.9,41.47-10.14,55.21-8.44,60.18,3.97,11.61,10.69,16.43,12.35,17.55,10.19,6.9,26.29,7.88,33.37.44,6.3-6.61,3.81-18.93-1.18-43.57-4.35-21.48-9.01-31.21-3.31-40.95,2.34-4.01,7.47-9.78,12.49-9.05,9.39,1.38,15.71,25.19,15.76,45.1.07,27.95-12.24,39.73-4.07,55.44,4.7,9.03,13.01,13.32,15.26,14.39,32.61,15.47,97.92-25.46,101.44-69.15.4-4.95,1.52-18.85-6.33-24.4-16.28-11.51-50.17,27.76-73.65,15.23-8.7-4.64-16.01-16.41-13.28-25.06,1.55-4.91,6.5-9.33,11.97-10.13,9.8-1.44,13.09,9.89,26.16,14.06,17.41,5.55,35.31-6.98,39.1-9.8,5.67-4.23,18.05-13.46,18.36-27.33.42-18.97-21.95-36.23-37.92-34.09-7.99,1.07-8.04,6.15-31.71,25.29-16.26,13.15-23.77,16.85-32.08,16.18-5.01-.4-12.87-2.59-14.33-7.53-1.37-4.66,3.48-9.98,18.43-23.1,18.49-16.23,27.73-24.35,33.68-27.77,27.65-15.89,45.7-10.17,48.65-19.96,3.14-10.4-14.55-25.76-28.84-32.67-1.8-.87-29.54-13.75-55.32-1.03-16.9,8.34-33.29,27.84-42.29,46.69-3.71,7.77-7.06,17.32-13.54,17.96-5.2.51-11.17-4.82-13.01-10.6-2.17-6.8.75-16.12,21.41-37.62,32.74-34.08,54.41-40.87,52.58-52.93-1.39-9.19-15.47-15.21-25.4-16.18-18.57-1.83-33.28,12.92-43.09,22.76-23.39,23.45-28.08,47.97-38.36,46.59-5.47-.73-8.43-8.26-8.76-9.09-4.6-11.7,5.79-25.32,9.49-30.17,17.57-23.05,39.92-23.75,39.33-31.58-.64-8.4-26.89-13.7-46.16-13.36-11.29.2-30.8.54-37.9,12.32-4.42,7.34-.07,12.55-5.76,23.95-1.15,2.31-5.87,11.77-14.98,16-8.62,4.01-14.93.44-31.37-2.73-24.68-4.75-23.4.81-50.45-3.8-18.56-3.16-25.27-6.82-31.58-2.14-6.73,4.99-9.22,16.66-5.02,21.81,3.47,4.26,10.14,2.39,24.97,1.39,7.29-.49,19.01-.04,42.43.86,24.57.94,36.86,1.41,39.21,5.27Z" style="fill: url(#Gradiente_sem_nome_121); stroke-width: 0px;"/>
        </g>
        <g>
          <path d="m370.14,88.93c-6.42,20.61,54.39,38.37,57.73,83.37,1.12,15.11-4.28,32.77-11.23,55.55-5,16.37-8.32,21.92-10.97,37.1-4.32,24.69-.28,37.09-4.31,38.45-6.68,2.25-27.23-28.73-40.32-63.66-12.71-33.92-10.91-51.63-29.2-67.19-10.46-8.9-26.44-16.2-32.43-11.18-9.61,8.04,9.52,45.19,11.9,49.82,8.13,15.8,13.45,20.11,40.56,56.77,19.32,26.12,22.47,31.85,24.14,40.73.49,2.62,4.41,25.32-9.32,46.1-3.19,4.83-14.67,22.2-28.5,20.83-2.56-.25-10.8-1.7-21.85-20.61-8.72-14.92-15.05-33.62-24.92-91.19-1.9-11.08-3.98-23.91-13.72-29.37-5.23-2.94-13.1-3.98-19-.37-7.27,4.44-8.37,13.97-8.82,17.85-2.21,19.14,10.42,33.61,27.21,59.87,33.46,52.33,33.02,72.56,32.39,79.98-1.46,17.36-9.06,26.31-10.95,28.43-11.66,13.02-33.5,19.92-45.82,12.13-10.96-6.93-11.77-24.76-13.41-60.42-1.42-31.08,1.64-46.1-9.57-57.55-4.61-4.71-13.67-10.9-20.32-8.16-12.45,5.13-12.94,40.12-6.15,67.56,9.54,38.53,30.57,50.5,24.73,74.96-3.35,14.06-13.33,22.84-16.06,25.08-39.57,32.56-143.66-1.29-163.58-60.26-2.26-6.68-8.59-25.44.3-35.79,18.45-21.47,78.68,20.94,106.71-4.44,10.38-9.39,16.39-28.13,9.64-39.1-3.83-6.23-12.17-10.6-19.98-9.82-13.99,1.4-14.62,18.14-31.18,28.39-22.06,13.66-51.05,2.57-57.24-.01-9.27-3.86-29.51-12.31-34.72-31.31-7.13-25.98,17.74-57.48,40.47-60.04,11.37-1.28,13.2,5.7,52.41,23.9,26.93,12.5,38.55,15,49.77,11.22,6.76-2.28,16.84-8.01,17.14-15.31.28-6.88-8.24-12.54-33.36-25.46-31.07-15.98-46.6-23.97-55.97-26.63-43.57-12.35-66.46,1.76-73.9-10.71-7.91-13.24,11.15-40.51,28.46-54.95,2.18-1.81,35.94-29.13,75.84-20.51,26.15,5.65,55.46,26.86,74.36,49.73,7.79,9.43,15.7,21.42,24.85,20.06,7.34-1.09,13.72-10.5,14.27-19.09.65-10.11-6.6-21.94-42.47-44.44-56.86-35.65-89.04-37.52-90.69-54.77-1.25-13.14,16.07-26.28,29.41-31.06,24.94-8.92,50.3,6.32,67.21,16.48,40.3,24.23,55.23,56.38,68.91,50.94,7.29-2.9,8.76-14.29,8.92-15.54,2.29-17.7-16.72-32.88-23.48-38.28-32.15-25.68-63.18-18.94-65.06-29.93-2.02-11.8,32.31-28.15,58.98-34.33,15.62-3.62,42.61-9.88,56.45,3.9,8.62,8.58,4.43,17.27,16.2,31.01,2.38,2.78,12.15,14.18,26.15,16.88,13.26,2.55,20.71-4.55,42.27-14.58,32.35-15.06,32.51-6.96,68.18-22.64,24.47-10.76,32.46-18.11,42.76-13.85,11,4.55,18.45,19.76,14.44,28.31-3.31,7.06-13.14,6.79-33.92,10.53-10.22,1.84-26.19,6.5-58.15,15.82-33.52,9.78-50.28,14.67-52.19,20.79Z" style="fill: url(#Gradiente_sem_nome_272-2); stroke-width: 0px;"/>
          <path d="m339.97,84.18c-5.56,20.28,54.23,35.5,59,79.19,1.6,14.66-3.06,32.04-9.05,54.44-4.31,16.1-7.35,21.61-9.42,36.48-3.37,24.17.98,36.11-2.89,37.56-6.42,2.42-27.48-27.04-41.39-60.59-13.52-32.59-12.36-49.88-30.69-64.41-10.48-8.3-26.28-14.87-31.94-9.79-9.08,8.15,10.79,43.66,13.26,48.08,8.45,15.1,13.77,19.11,41.39,53.88,19.68,24.77,22.94,30.24,24.87,38.82.57,2.53,5.15,24.49-7.52,45.18-2.95,4.81-13.52,22.1-27.03,21.24-2.5-.16-10.57-1.29-21.96-19.32-8.99-14.23-15.78-32.22-27.34-87.91-2.22-10.72-4.69-23.13-14.34-28.12-5.19-2.68-12.88-3.43-18.51.28-6.93,4.57-7.68,13.88-7.98,17.67-1.5,18.7,11.28,32.36,28.51,57.35,34.33,49.8,34.59,69.5,34.23,76.74-.83,16.95-7.93,25.92-9.7,28.04-10.91,13.07-31.93,20.52-44.18,13.35-10.9-6.38-12.3-23.7-15.09-58.35-2.43-30.2.04-44.92-11.26-55.69-4.65-4.43-13.67-10.14-20.05-7.25-11.95,5.42-11.24,39.48-3.7,65.96,10.59,37.18,31.46,48.11,26.61,72.12-2.79,13.8-12.2,22.68-14.78,24.95-37.41,33.03-139.86,3.6-161.24-53.11-2.42-6.42-9.22-24.47-.92-34.84,17.23-21.52,77.28,17.72,103.7-7.93,9.78-9.49,15-27.93,8.06-38.38-3.94-5.93-12.2-9.91-19.78-8.88-13.57,1.83-13.62,18.14-29.39,28.68-21.01,14.04-49.6,4.23-55.71,1.92-9.15-3.45-29.13-10.98-34.85-29.29-7.82-25.04,15.32-56.54,37.36-59.8,11.03-1.63,13.04,5.1,51.81,21.49,26.63,11.26,38.02,13.3,48.81,9.24,6.5-2.45,16.12-8.36,16.16-15.48.04-6.71-8.44-11.93-33.33-23.65-30.77-14.5-46.16-21.75-55.37-24.02-42.82-10.55-64.62,3.96-72.29-7.93-8.14-12.62,9.48-39.8,25.84-54.44,2.06-1.84,33.99-29.57,73.12-22.52,25.64,4.62,54.88,24.26,74.05,45.88,7.9,8.91,16,20.32,24.87,18.68,7.1-1.31,12.99-10.68,13.24-19.06.29-9.86-7.16-21.13-42.84-41.81-56.54-32.78-87.93-33.5-90.11-50.23-1.66-12.74,14.75-26.12,27.57-31.22,23.98-9.53,49.16,4.45,65.96,13.77,40.04,22.22,55.66,53,68.79,47.25,6.99-3.07,8.04-14.2,8.16-15.43,1.63-17.3-17.38-31.43-24.15-36.46-32.16-23.91-62.13-16.3-64.33-26.93-2.37-11.41,30.5-28.49,56.24-35.4,15.08-4.05,41.14-11.05,55.07,1.89,8.68,8.06,4.89,16.65,16.81,29.63,2.41,2.63,12.3,13.39,26.02,15.54,12.99,2.04,20-5.12,40.64-15.62,30.97-15.75,31.4-7.87,65.59-24.34,23.45-11.29,30.98-18.72,41.15-14.92,10.86,4.05,18.63,18.61,15.01,27.06-2.98,6.98-12.56,7.05-32.65,11.4-9.88,2.14-25.27,7.21-56.05,17.36-32.29,10.65-48.44,15.97-50.09,22Z" style="fill: url(#Gradiente_sem_nome_111-2); stroke-width: 0px;"/>
        </g>
        <g>
          <path d="m457.78,261.41c-7.26,12.9,30.97,33.53,26.75,64.19-1.42,10.29-7.57,21.37-15.5,35.64-5.7,10.26-8.72,13.51-12.68,23.3-6.44,15.94-5.51,24.83-8.4,25.16-4.8.55-14.14-23.18-17.91-48.47-3.66-24.57.09-36.19-9.94-49.25-5.74-7.47-15.41-14.65-20.14-12.15-7.6,4.01-.1,31.67.83,35.11,3.19,11.76,6.13,15.41,19.05,43.89,9.21,20.29,10.5,24.58,10.35,30.78-.04,1.83-.67,17.61-12.87,29.58-2.84,2.78-13.02,12.78-22.1,9.88-1.68-.54-7-2.69-11.7-16.95-3.71-11.26-5.27-24.71-3.63-64.73.32-7.7.76-16.6-4.99-21.66-3.09-2.72-8.21-4.55-12.69-2.98-5.51,1.94-7.62,8.17-8.48,10.71-4.23,12.52,2.17,24.03,9.66,44.06,14.93,39.89,11.73,53.39,10.25,58.28-3.47,11.43-9.85,16.35-11.42,17.49-9.69,7.06-25.32,8.55-32.46,1.56-6.35-6.22-4.34-18.29-.32-42.44,3.5-21.05,7.71-30.68,1.84-39.97-2.42-3.82-7.6-9.27-12.46-8.39-9.09,1.66-14.44,25.05-13.81,44.43.87,27.21,13.26,38.25,5.83,53.82-4.27,8.95-12.21,13.4-14.37,14.52-31.21,16.16-96.16-21.47-101.06-63.87-.55-4.8-2.11-18.29,5.33-23.96,15.45-11.75,49.76,25.33,72.2,12.33,8.31-4.81,15.02-16.51,12.07-24.84-1.67-4.73-6.64-8.86-11.99-9.45-9.58-1.07-12.41,10.06-24.98,14.56-16.76,5.99-34.6-5.6-38.38-8.22-5.66-3.92-18.02-12.49-18.79-25.97-1.05-18.44,20.14-36,35.75-34.46,7.81.77,8.04,5.71,31.72,23.54,16.27,12.25,23.7,15.59,31.77,14.66,4.86-.56,12.44-2.95,13.69-7.81,1.18-4.58-3.73-9.59-18.72-21.86-18.54-15.17-27.81-22.76-33.71-25.88-27.45-14.53-44.82-8.35-48.02-17.78-3.4-10.02,13.29-25.57,26.97-32.77,1.72-.91,28.28-14.38,53.8-2.88,16.73,7.54,33.34,25.97,42.73,44.02,3.87,7.44,7.46,16.62,13.79,17.02,5.08.32,10.7-5.07,12.31-10.75,1.89-6.69-1.28-15.66-22.11-35.89-33.02-32.07-54.33-37.93-52.96-49.73,1.05-8.99,14.54-15.32,24.18-16.61,18.01-2.4,32.82,11.45,42.7,20.69,23.55,22.03,28.95,45.73,38.91,44.05,5.3-.9,7.93-8.33,8.21-9.14,4.08-11.54-6.49-24.45-10.25-29.04-17.88-21.84-39.65-21.77-39.34-29.4.34-8.2,25.71-14.24,44.48-14.56,10.99-.19,29.99-.51,37.3,10.71,4.55,6.99.49,12.21,6.42,23.12,1.2,2.21,6.11,11.25,15.12,15.07,8.53,3.61,14.54-.08,30.44-3.71,23.85-5.46,22.8,0,48.97-5.4,17.95-3.7,24.36-7.49,30.67-3.15,6.72,4.63,9.54,15.9,5.62,21.06-3.23,4.26-9.79,2.67-24.26,2.2-7.12-.23-18.5.6-41.26,2.27-23.88,1.75-35.82,2.62-37.98,6.46Z" style="fill: url(#Gradiente_sem_nome_130-2); stroke-width: 0px;"/>
          <path d="m477.58,269.82c-7.92,12.98,30.59,35.52,25.17,66.83-1.82,10.51-8.53,21.66-17.18,36.02-6.22,10.33-9.43,13.55-13.84,23.46-7.17,16.13-6.54,25.29-9.52,25.53-4.95.4-13.69-24.29-16.65-50.39-2.88-25.35,1.38-37.14-8.45-50.9-5.62-7.87-15.29-15.59-20.24-13.19-7.94,3.85-1.23,32.5-.4,36.07,2.85,12.18,5.75,16.04,17.99,45.72,8.73,21.15,9.9,25.6,9.52,31.95-.11,1.87-1.32,18.05-14.26,29.9-3.01,2.76-13.82,12.65-23.03,9.36-1.71-.61-7.09-3.01-11.4-17.82-3.4-11.68-4.53-25.54-1.42-66.56.6-7.89,1.37-17.01-4.35-22.41-3.07-2.9-8.27-4.96-12.92-3.51-5.73,1.79-8.11,8.11-9.08,10.69-4.78,12.69,1.37,24.74,8.34,45.56,13.9,41.47,10.14,55.21,8.44,60.18-3.97,11.61-10.69,16.43-12.35,17.55-10.19,6.9-26.29,7.88-33.37.44-6.3-6.61-3.81-18.93,1.18-43.57,4.35-21.48,9.01-31.21,3.31-40.95-2.34-4.01-7.47-9.78-12.49-9.05-9.39,1.38-15.71,25.19-15.76,45.1-.07,27.95,12.24,39.73,4.07,55.44-4.7,9.03-13.01,13.32-15.26,14.39-32.61,15.47-97.92-25.46-101.44-69.15-.4-4.95-1.52-18.85,6.33-24.4,16.28-11.51,50.17,27.76,73.65,15.23,8.7-4.64,16.01-16.41,13.28-25.06-1.55-4.91-6.5-9.33-11.97-10.13-9.8-1.44-13.09,9.89-26.16,14.06-17.41,5.55-35.31-6.98-39.1-9.8-5.67-4.23-18.05-13.46-18.36-27.33-.42-18.97,21.95-36.23,37.92-34.09,7.99,1.07,8.04,6.15,31.71,25.29,16.26,13.15,23.77,16.85,32.08,16.18,5.01-.4,12.87-2.59,14.33-7.53,1.37-4.66-3.48-9.98-18.43-23.1-18.49-16.23-27.73-24.35-33.68-27.77-27.65-15.89-45.7-10.17-48.65-19.96-3.14-10.4,14.55-25.76,28.84-32.67,1.8-.87,29.54-13.75,55.32-1.03,16.9,8.34,33.29,27.84,42.29,46.69,3.71,7.77,7.06,17.32,13.54,17.96,5.2.51,11.17-4.82,13.01-10.6,2.17-6.8-.75-16.12-21.41-37.62-32.74-34.08-54.41-40.87-52.58-52.93,1.39-9.19,15.47-15.21,25.4-16.18,18.57-1.83,33.28,12.92,43.09,22.76,23.39,23.45,28.08,47.97,38.36,46.59,5.47-.73,8.43-8.26,8.76-9.09,4.6-11.7-5.79-25.32-9.49-30.17-17.57-23.05-39.92-23.75-39.33-31.58.64-8.4,26.89-13.7,46.16-13.36,11.29.2,30.8.54,37.9,12.32,4.42,7.34.07,12.55,5.76,23.95,1.15,2.31,5.87,11.77,14.98,16,8.62,4.01,14.93.44,31.37-2.73,24.68-4.75,23.4.81,50.45-3.8,18.56-3.16,25.27-6.82,31.58-2.14,6.73,4.99,9.22,16.66,5.02,21.81-3.47,4.26-10.14,2.39-24.97,1.39-7.29-.49-19.01-.04-42.43.86-24.57.94-36.86,1.41-39.21,5.27Z" style="fill: url(#Gradiente_sem_nome_121-2); stroke-width: 0px;"/>
        </g>
      </g>
    </g>
  </g>
</svg>