<?xml version="1.0" encoding="UTF-8"?>
<svg id="Camada_1" data-name="Camada 1" xmlns="http://www.w3.org/2000/svg" viewBox="0 0 345 339.62">
  <path d="m111.47,169.67c0-2.46-.04-4.92,0-7.38.05-2.74,1.64-5.24,1.41-8.04,1.37-1.04.69-2.95,1.44-3.93,1.01-1.32.63-3.43,1.37-3.85,1.64-.93.24-3.26,2.22-3.65.06-.01.11-.18.12-.28.29-2.25,1.71-4.08,3.02-5.67,1.25-1.5,2.07-3.28,3.52-4.73,1.51-1.5,3.26-2.94,4.42-4.85.38-.63,1.17-1.38,1.78-1.57,1.03-.33.96-1.79,2.17-1.68-.22-1.33,1.94-.84,1.72-2.17,1.02.09,1.28-1.06,1.95-1.26,1.54-.45,2.59-1.41,3.6-2.51.07-.07.19-.14.28-.14,1.73.11,2.47-2.1,4.29-1.77.41-1.9,3.06-.45,3.56-2.28.03-.11.49-.12.75-.17,1.15-.21,2.53.24,3.24-1.22.09-.19.71-.12,1.08-.18,1.07-.16,2.33.16,2.98-1.12.05-.1.3-.14.45-.13,3.12.28,5.87-1.48,8.98-1.46,4.72.03,9.45-.06,14.17.06,2.85.08,5.41,1.69,8.32,1.41,1.06,1.36,2.94.71,4,1.4,1.39.9,2.98.72,4.16,1.39,1.73.98,3.69,1.56,5.24,2.62,1.46,1,3.48,1.26,4.44,2.62,1.02,1.45,3,1.31,3.76,2.64.54.95,1.53,1.25,2.19,2.03.86,1.01,1.88,2.07,2.97,2.88,1.46,1.09,2.38,2.61,3.71,3.74.72.61,1.14,1.51,2.02,1.95.82.41,1.53,1.63,1.57,1.95.29,2.41,2.78,3.37,3.4,5.67.49,1.81,1.67,3.68,2.71,5.29.81,1.24.53,2.66,1.28,3.51,1.19,1.36.52,3.3,1.35,4.24,1.46,1.65.69,3.48,1.28,5.1,2.49,6.8.88,13.78,1.08,20.67-1.31,2-.71,4.52-1.57,6.45-.63,1.4-.49,3.04-1.23,4.04-.98,1.33-.57,3.38-1.34,3.87-1.48.94-.63,2.77-2.16,3.62-.74.41-.97,1.99-1.48,3.02-.7,1.4-1.31,2.68-2.7,3.5-.11.07-.18.27-.19.42-.1,1.66-1.52,2.41-2.34,3.58-.9,1.28-2.2,2.14-3.06,3.43-.44.66-1.15,1.22-1.73,1.78-1.31,1.26-2.53,2.73-3.95,3.74-1.51,1.06-2.47,3.03-4.75,3.13-.54.02-1.41.98-1.74,1.49-.56.84-1.48.65-1.92,1.16-1.05,1.18-3.01.73-3.81,2.24-.18.34-.58.21-.87.3-.69.2-1.76-.21-1.81,1.06,0,.07-.17.2-.23.18-2.14-.51-3.61,1.47-5.63,1.47-.83,0-1.84-.28-2.27.97-.16.46-.99.22-1.51.29-1.5.2-3.14-.26-4.4,1.07-.26.27-.93.19-1.42.21-5.92.29-11.84.29-17.75,0-.74-.04-1.4-.15-2.05-.73-.89-.79-2.18-.38-3.29-.54-.83-.12-1.94.33-2.23-.99-.02-.07-.19-.18-.26-.16-2.24.51-3.86-1.4-5.97-1.47-.65-.02-1.63.28-1.72-.91-.02-.26-.27-.31-.48-.33-1.06-.07-1.89-.84-2.69-1.1-1.35-.44-2.36-1.4-3.7-1.79-1.11-.32-1.99-1.17-2.71-2.08-.18-.22-.29-.43-.59-.44-1.71-.05-2.35-1.66-3.56-2.34-1.44-.81-2.14-2.32-3.62-3.05-.63-.31-1.23-1.07-1.75-1.66-1.16-1.32-2.28-2.66-3.73-3.69-.55-.39-.58-1.11-1.16-1.63-.73-.64-1.86-1.46-1.89-2.77-.02-1.12-1.54-1.15-1.78-2.29-.05-.26-.51-1.01-.86-1.48-.96-1.26-1.1-3.01-2.49-4.02-.11-.08-.2-.25-.21-.39-.11-.99.06-2.11-1.25-2.52.57-2.17-1.61-3.62-1.55-5.68.02-.69.05-1.54-.83-1.92-.37-.16-.34-.5-.38-.81-.59-4.81-2.03-9.52-1.52-14.44.03-.32,0-.64,0-.96.05,0,.09,0,.14,0Zm60.99,38.91v-.03c1.85,0,3.69,0,5.54,0,.81,0,1.82.13,2.35-.4.75-.76,1.59-.9,2.48-.85,2.38.15,4.21-1.7,6.55-1.66.75.02.57-1.25,1.58-1.11,1.64.23,2.45-1.91,4.2-1.57.05,0,.12-.17.2-.23,1.12-.84,1.95-2.11,3.55-2.22.2-.01.49-.08.57-.22.78-1.37,2.1-2.03,3.51-2.51.52-.18.55-.49.74-.88.67-1.36-.89-1.65-1.14-2.5-.54-1.88-2.19-2.94-3.29-4.36-.86-1.11-2.17-1.88-2.45-3.42-.03-.19-.14-.45-.3-.52-1.53-.77-2.23-2.36-3.47-3.43-1.03-.89-3.04-1.37-4-.36-1.03,1.08-1.96,2.23-3.62,2.36-.18.01-.48.19-.49.31-.1,1.06-.94.83-1.6.92-.37.05-1.01.02-1.07.19-.55,1.59-1.93.89-2.96,1.13-.36.08-.98.05-1.06.24-.55,1.29-1.69.96-2.65.98-2.33.04-4.67,0-7-.01-.43,0-1.13.04-1.24-.17-.74-1.46-2.12-.92-3.25-1.13-.32-.06-.89-.03-.92-.15-.5-1.86-3.18-.41-3.6-2.32-1.74.05-2.53-1.31-3.56-2.32-1-.98-3.03-.52-4.07.24-.85.62-1.3,1.54-2.09,2.19-.67.56-1.8,1.28-1.86,2.51-.01.31-.04.82-.21.89-1.53.66-2.18,2.21-3.3,3.26-.78.74-1.94,1.59-2.04,2.94-.02.26-.03.64-.33.66-1.4.09-.81,1.05-.88,1.76-.09.96.67.87,1.23,1.12.42.19.87.24,1.27.61,1.02.92,1.88,2.14,3.46,2.25.2.01.43.13.56.27,1.03,1.11,2.04,2.24,3.77,2.21.19,0,.49.09.56.23.9,1.61,2.84,1.67,4.18,2.15,2.25.8,4.53,2.09,7.12,1.78.2-.02.53,0,.62.12.95,1.35,2.41.96,3.69,1.03,1.57.08,3.15.02,4.72.02Zm-10.58-58.92c0-2.67.03-5.35,0-8.02-.03-2.23-.33-2.5-2.51-2.5-5.05,0-10.1,0-15.15,0-1.5,0-2.85,1.31-2.85,2.78,0,4.97,0,9.95,0,14.92,0,2.14.29,2.48,2.52,2.5,5.43.03,10.86-.01,16.3.03,1.26,0,1.75-.43,1.73-1.68-.06-2.67-.02-5.35-.02-8.02Zm21.28-.14c0,2.78.01,5.56,0,8.34,0,.84.13,1.48,1.2,1.48,5.76-.01,11.51.02,17.27-.03,1.19-.01,1.93-.58,1.91-2.02-.08-5.08-.02-10.16-.04-15.24,0-1.68-1.26-2.91-2.94-2.91-5.05,0-10.1,0-15.15,0-1.98,0-2.2.17-2.23,2.2-.04,2.73-.01,5.45-.01,8.18Z"/>
  <path d="m0,147.02c.36-1.48-.27-2.97,1.11-4.26.57-.53.16-2.04.28-3.1.16-1.35-.25-2.69.96-3.99.66-.71.24-2.36.38-3.57.11-.91-.39-2.03,1-2.59.3-.12.21-1.18.29-1.81.17-1.27-.23-2.7,1.16-3.62.18-.12.11-.6.17-.92.23-1.21.74-2.44.94-3.53.41-2.24,1.91-4.1,1.94-6.39,0-.31-.1-.76.22-.89,1.29-.51.97-1.62,1.1-2.58.09-.63-.18-1.47.88-1.61.11-.02.3-.24.28-.33-.45-2.02.89-3.63,1.71-5.11.73-1.31.69-3.05,2.08-4.01.08-.05.17-.18.16-.26-.23-1.77,1.1-3.26,1.9-4.26.9-1.13.36-3.06,2.12-3.52.04-.01.11-.09.1-.12-.36-1.66,1.23-2.52,1.67-3.89.43-1.35,1.36-2.57,2.22-3.74.42-.57,1.22-1.51,1.24-1.68.17-1.57,1.5-2.47,2.1-3.77.43-.94.73-2.3,2.08-2.69.42-.12.29-.51.37-.8.38-1.3,1.5-2.11,2.2-3.19.63-.97,1.85-1.55,2-2.8.15-1.19,1.51-1.4,1.91-2.42.06-.16.7-.25.71-.79,0-.85.69-.72,1.18-.63.56.09,1.22-.13,1.51.82.54,1.77,1.08,3.59,2.52,4.96.2.19.18.6.26.91.15.62-.16,1.5.95,1.55.08,0,.24.14.23.18-.42,1.74,1.82,2.56,1.52,4.24-.17.94,1.11.84,1.09,1.32-.08,1.65,1.15,2.75,1.83,3.95.73,1.31,1.17,2.76,1.9,4.07.78,1.4,2.15,2.68,2.07,4.53-.02.53.03,1.21.82,1.39.52.12.39.57.43.92.09.72-.03,1.55,1,1.77.09.02.23.15.22.21-.23,1.66,1.14,2.7,1.77,3.98.66,1.34.78,3.04,2.19,4.01.17.12.21.46.28.7.22.78-.23,1.93,1.2,2.07.09,0,.11.58.18.88.16.66-.16,1.55.99,1.7.36.05.25.53.3.83.12.73-.14,1.65,1.04,1.86.35.06.24.54.31.84.17.76-.09,1.62,1.11,2,.72.23.52,3.4-.23,3.78-.61.31-.71.7-.81,1.23-.12.67.14,1.6-1.02,1.68-.08,0-.21.16-.2.22.29,1.82-1.07,3.14-1.46,4.75-.15.64.09,1.43-.91,1.62-.39.08-.39.51-.35.81.2,1.62-.66,2.83-1.6,4-.12.15-.34.31-.51.3-1.17-.05-2.08.87-3,1.03-2.08.35-3.81,1.63-5.91,1.78-.61.04-1.22.02-1.64.75-.3.52-1.14.48-1.78.58-.83.13-1.89-.23-2.25,1.02-.09.33-.58.18-.89.25-1.16.26-2.6-.37-3.38,1.16-.12.24-.92.12-1.4.2-.87.15-2.04-.35-2.38,1.03-.02.07-.19.16-.26.15-2.21-.43-3.89,1.1-5.78,1.7-2.05.65-4.44.65-6.15,2.27-.39.37-.94.17-1.41.25-.95.17-2.13-.23-2.56,1.13-.03.11-.38.15-.58.17-1.29.15-2.76-.26-3.63,1.21-.09.16-.62.06-.94.1-.75.1-1.68-.17-1.97.91-.02.08-.18.18-.26.17-2.12-.23-3.72,1.29-5.67,1.66-.73.14-1.57-.15-2.12.8-.3.52-.9.19-.95-.44-.09-1.06-.12-2.13-.17-3.1Z"/>
  <path d="m62.61,223.88c-.34.8.29,2.02-1.19,2.29-.15.03-.18.67-.29,1.01-.19.59.17,1.51-.96,1.54-.09,0-.26.13-.25.17.4,1.71-1.58,2.57-1.52,4.16.02.47.09,1.01-.66,1.03-.31,0-.49.19-.52.5-.12,1.02-.97,1.92-1.14,2.64-.36,1.57-1.27,2.91-1.94,4.17-.64,1.19-.71,2.88-2.12,3.69-.12.07-.23.24-.25.38-.16,1.02-1.05,2-1.12,2.68-.19,1.76-1.17,3.08-1.9,4.45-.72,1.34-1.06,2.92-2.19,4.04-.11.11-.27.27-.26.39.27,1.75-1.17,3.06-1.88,4.18-.74,1.15-.3,3.06-2.05,3.63-.37.12-.12.69-.22,1.03-.17.59.16,1.51-.97,1.52-.08,0-.24.13-.23.17.33,1.69-1.38,2.54-1.69,4.01-.27,1.25-1.3,2.23-1.51,3.6-.09.61-2.33.29-2.42-.42-.11-.9-1.73-.41-1.32-1.59-1.53-.42-1.53-2.06-2.29-3.06-1.15-1.5-3.02-2.66-3.26-4.77-.09-.82-.99-.88-1.42-1.36-.92-1.05-.66-2.81-2.21-3.38-.14-.05-.25-.34-.26-.53-.07-1.56-1.46-2.33-2.14-3.52-.07-.13-.34-.22-.33-.32.12-1.73-1.31-3-2.07-4.1-.76-1.09-.38-2.98-2.11-3.46-.14-.04-.15-.58-.21-.88-.13-.65.04-1.45-.95-1.62-.12-.02-.33-.22-.31-.32.29-1.77-1.09-3.08-1.86-4.23-.85-1.26-1.07-2.76-1.85-4.03-.76-1.23-1.97-2.72-1.9-4.52.03-.72.22-1.65-.95-1.92-.36-.08-.22-.55-.29-.85-.25-1.14.38-2.59-1.24-3.27-.2-.08-.15-.8-.18-1.22-.05-.92-.11-1.82-.98-2.41-.12-.08-.27-.27-.25-.38.29-2.29-1.62-4.04-1.55-6.29.02-.64.02-1.34-.76-1.81-.5-.3-.44-1.04-.54-1.62-.23-1.31.21-2.63-1.09-3.89-.72-.69-.24-2.55-.35-3.88-.08-.89.29-1.92-.95-2.48-.45-.2-.22-.99-.25-1.51-.06-1.01-.03-2.03-.09-3.05-.05-.86.18-1.76-.86-2.39-.52-.32-.33-1.19-.35-1.82-.04-1.55-.26-3.1,0-4.64.14-.87.49-1.28,1.19-.32.12.16.31.4.44.39,2.19-.28,3.81,1.55,5.94,1.55.64,0,1.42.06,1.77.88.24.58.86.32,1.31.39.73.11,1.54-.06,1.91.88.07.18.44.3.68.35,1.27.29,2.82-.25,3.66,1.25,2.35-.51,4.01,1.71,6.28,1.56.54-.04,1.09.01,1.3.7.05.16.31.38.46.37,2.16-.18,3.78,1.52,5.87,1.6.7.03,1.44.02,1.9.9.28.53,1.18.35,1.82.46.78.13,1.82-.2,2.08,1.01.02.08.18.2.24.18,2.19-.56,3.72,1.38,5.75,1.44.81.03,1.82-.2,2.09.99.02.08.17.19.25.17,2.13-.39,3.61,1.47,5.58,1.56,1.69.08,2.9,1.48,4.65,1.52.4,0,1.36,1.26,1.36,1.62.04,1.97,1.48,3.42,1.78,5.25.07.4-.13.91.41,1.11.86.32.75,1.07.88,1.74.15.79-.34,1.92,1.08,2.11.1.01.19.35.22.55.12.92-.01,1.88,1.19,2.37.31.13.26,1.08.39,1.66Z"/>
  <path d="m195.65,339.52c-.98,0-1.95.02-2.93,0-.31,0-.69-.02-.81-.41-.11-.36.07-.59.42-.74.17-.07.42-.3.4-.42-.29-2.16,1.6-3.75,1.56-5.85-.01-.65.1-1.41.91-1.74.1-.04.26-.15.24-.19-.46-1.92,1.59-3.08,1.53-4.9-.02-.78-.25-1.76.96-2.04.07-.02.17-.18.15-.26-.46-2.25,1.56-3.86,1.58-6,0-.65-.1-1.45.92-1.61.1-.01.23-.26.22-.39-.21-2.18,1.56-3.84,1.62-5.96.02-.61-.08-1.47.93-1.62.08-.01.21-.16.2-.22-.29-2.02,1.27-3.49,1.58-5.33.15-.9-.41-2.1,1.09-2.5.16-.04.13-.79.19-1.21.15-.99-.31-2.22,1.11-2.7.07-.02.15-.19.14-.27-.46-2.15,1.28-3.66,1.69-5.59.31-1.48.98-2.95,1.49-4.4.22-.63,1.39-1.93,2.92-1.77.85.09,2.03.36,2.35-1.01,0-.04.09-.1.12-.09,1.91.47,3.01-1.56,4.82-1.52.61.01,1.47.04,1.67-.92.08-.39.51-.3.81-.38.79-.2,1.6-.09,2.19-1.02.52-.81,3.17-.39,3.9.41.07.08.12.25.17.25,1.71-.17,2.58,1.65,4.19,1.72.51.02.99.05,1.1.69.03.14.17.4.22.39,1.7-.33,2.57,1.52,4.13,1.53.5,0,.99-.04,1.14.62.04.18.27.48.37.47,1.76-.26,2.84,1.21,4.2,1.8,1.27.56,2.67,1.21,3.95,1.82,1.48.71,2.72,2.12,4.6,2.04.55-.02,1.22.05,1.49.76.07.17.24.42.39.43,2.77.26,4.68,2.42,7.3,3.16,1.85.52,3.81,1.54,5.29,2.63,1.13.84,3.11.29,3.55,2.08.03.11.48.13.74.17.8.12,1.8-.12,2.02,1.08.01.07.18.18.25.17,1.81-.35,2.64,1.8,4.37,1.65.61-.05.68.42.68.87,0,.56.36,1.23-.27,1.62-1.01.62-1.95,1.29-2.63,2.28-.1.15-.34.27-.52.29-1.68.13-2.47,1.41-3.51,2.45-.49.49-1.22,1.02-1.84,1.27-1.63.65-2.7,2.21-4.14,2.73-1.38.49-2.25,1.82-3.87,1.88-.8.03-1.44,1.06-2.13,1.6-.55.43-1.22.58-1.67,1-1.15,1.04-3.03.84-3.9,2.3-.24.41-.69.2-1.03.31-.6.21-1.48-.06-1.57,1-.03.39-.51.28-.82.32-.72.11-1.59-.07-1.8.96-.02.08-.16.22-.21.21-1.75-.43-2.79,1.06-4.09,1.66-1.38.64-3,.92-4.14,2.05-.04.04-.07.11-.11.11-1.95-.11-3.15,1.87-5.12,1.76-.61-.04-1.35-.05-1.51.84-.02.12-.23.33-.31.31-2.17-.5-3.68,1.5-5.74,1.46-.74-.02-1.56-.04-1.89.89-.04.12-.25.3-.35.28-2.36-.44-4.11,1.36-6.32,1.65-2.16.28-4.51.72-6.39,1.55-1.95.86-3.78.8-5.67,1.07-.72.1-1.52-.05-1.87.91-.17.46-.78.25-1.19.28-1.03.07-2.06.05-3.09.11-1.03.07-1.98-.05-2.93.85-.81.77-2.29.24-3.47.32Z"/>
  <path d="m195.73.11c1.48.14,2.93-.15,4.38.98.89.7,2.73.19,4.14.29.89.07,1.87-.28,2.54.87.34.58,1.42.28,2.17.32,1.03.06,2.06.07,3.09.14.36.02.92-.12,1.04.26.36,1.18,1.35.84,2.14.94,1.29.17,2.77-.25,3.65,1.17.02.04.1.06.15.05,2.43-.28,4.36,1.52,6.73,1.55.87.01,1.74.1,2.28.96.27.43.77.28,1.19.37.71.14,1.72-.26,1.93.95.02.12.35.22.55.27,1.32.3,2.95-.3,3.8,1.32,2.05-.5,3.44,1.15,5.22,1.6,1.4.35,2.64,1.31,3.95,2.01.09.05.16.23.22.22,1.79-.23,2.87,1.31,4.34,1.87,1.18.45,2.79.72,3.63,1.99.06.09.15.24.19.23,1.74-.39,2.59,1.31,4.06,1.72,1.19.33,2.33,1.27,3.53,1.89,1.19.61,2.25,1.48,3.35,2.19,1.08.7,2.33,1.15,3.4,1.91.91.64,1.58,1.7,2.83,1.92,1.1.19,1.69,1.25,2.65,1.78,1.18.66,1.9,1.95,3.38,2.42.86.27,1.55,1.17,2.21,1.89.21.23.29.51.67.52,1.13.05.68.87.68,1.43,0,.57-.02,1-.84,1.27-1.74.57-3.58,1.01-4.92,2.44-.24.26-.81.25-1.24.3-.57.07-1.25-.07-1.27.83,0,.24-.2.35-.44.38-1.01.12-1.84.29-2.71,1.13-.62.59-2.05,1.14-2.87,1.26-1.7.25-2.87,1.4-4.26,1.99-1.15.49-2.55,1.13-3.73,1.75-1.41.75-2.76,1.82-4.55,2.14-1.45.26-3.08.93-4.25,2.11-.11.11-.25.3-.36.28-1.79-.21-3.05,1.17-4.32,1.88-1.22.69-3.13.42-3.84,2.11-.1.23-.9.19-1.38.25-.48.06-1.02,0-1.04.71,0,.14-.16.4-.19.39-1.69-.38-2.54,1.45-4.07,1.47-.6,0-1.24,0-1.28.85,0,.05-.04.14-.06.14-2.1.02-3.72,2.88-5.78,1.48-1.25-.85-3.16-.54-3.86-2.2-.04-.1-.27-.17-.42-.18-1.12-.08-2.22-1-2.95-1.02-2.09-.08-3.49-1.72-5.51-1.77-1.74-.04-2.87-1.46-3.22-3.15-.39-1.89-1.38-3.61-2.04-5.41-.66-1.78-1.34-3.57-1.91-5.39-.26-.83.27-1.9-1.01-2.41-.45-.18-.23-.98-.31-1.5-.16-.92.35-2.1-1.08-2.5-.09-.02-.12-.28-.15-.43-.27-1.33.17-2.89-1.35-3.79.27-2.19-1.55-3.83-1.59-5.95-.01-.54.05-1.26-.82-1.57-.67-.24-.38-1.03-.51-1.58-.21-.91.27-2.04-1.11-2.56-.46-.17-.17-.98-.26-1.5-.16-.88.27-1.99-1.06-2.4-.13-.04-.16-.47-.19-.73-.16-1.22-.65-2.33-1.03-3.44-.51-1.48-1.48-2.8-1.76-4.39-.39-2.24-1.06-4.42-2.26-6.41-.38-.62.13-.9.67-.92,1.03-.04,2.06-.01,3.09-.01Z"/>
  <path d="m344.89,147.15c0,.96.07,1.93-.02,2.88-.07.81-.56,1.13-1.08.3-.35-.56-.82-.41-1.26-.49-1.08-.2-2.32.02-3-1.21-.08-.15-.49-.16-.75-.19-.91-.11-1.94.13-2.46-1.03-.11-.24-.78-.26-1.21-.32-1.05-.15-2.3.32-2.96-1.04-.1-.2-.7-.19-1.07-.25-1.03-.15-2.32.37-2.83-1.1-.01-.03-.1-.06-.14-.05-2.21.41-3.86-1.15-5.77-1.71-2.1-.62-4.44-.78-6.28-2.24-.44-.35-1.25-.22-1.88-.35-.72-.15-1.73.21-1.89-.99,0-.07-.16-.19-.23-.19-1.97.26-3.54-.89-5.29-1.41-.93-.28-2.27.41-2.64-1.14-.01-.06-.19-.1-.29-.11-1.49-.11-2.85-.91-4.15-1.18-1.98-.41-3.78-1.3-5.7-1.81-1.42-.38-2.78-1.1-4.32-1.39-.48-.09-1.53-1.31-1.5-1.57.25-2.05-1.34-3.5-1.57-5.34-.06-.47.04-.96-.61-1.14-.21-.06-.5-.39-.48-.57.21-1.96-1.37-3.27-1.9-4.98-.33-1.05-1.43-2.03-1.05-3.2.51-1.6,1.02-3.27,2.27-4.54.04-.04.12-.07.12-.1-.14-1.59,1.51-2.44,1.68-3.89.07-.57-.08-1.21.83-1.25.35-.01.34-.35.38-.61.11-.95-.12-2.07,1.21-2.43-.25-1.66,1.14-2.67,1.77-3.94.67-1.35.77-3.04,2.09-4.07.04-.03.1-.08.1-.12,0-1.76,1.58-2.84,1.98-4.57.3-1.3.74-3.03,2.1-4.03.12-.09.29-.25.27-.36-.24-1.78,1.2-2.99,1.92-4.28.65-1.16.41-2.96,2.04-3.62.17-.07.15-.58.24-.88.21-.69-.16-1.72,1.1-1.79.05,0,.13-.06.13-.07-.35-1.58,1.31-2.41,1.47-3.8.06-.54-.07-1.24.8-1.35.14-.02.39-.19.38-.25-.35-1.73,1.58-2.57,1.66-4.1.05-.87.51-1.08,1.24-1.1.63-.02,1.44-.27,1.41.76-.03.97,1.01.84,1.44,1.31,1.37,1.48,1.53,3.78,3.56,4.79.57.28.99,1.23,1.26,1.82.71,1.59,2.27,2.64,2.8,4.06.51,1.36,1.84,2.22,1.94,3.82.05.77.97,1.64,1.71,2.15.49.33.52.68.72,1.08.76,1.54,1.17,3.27,2.59,4.45.22.19.13.7.26,1.04.2.53-.1,1.4.94,1.4.09,0,.27.11.26.13-.39,1.62,1.44,2.41,1.49,3.87.02.58.05,1.2.85,1.35.13.03.36.21.34.28-.38,1.79,1.36,2.75,1.8,4.28.37,1.26.71,2.81,1.81,3.9.45.45.56,1.11.65,1.76.1.77-.23,1.81,1.06,1.99.07,0,.18.18.16.25-.53,2.16,1.57,3.66,1.48,5.72-.03.72-.04,1.54.93,1.84.31.1.3.41.32.68.07,1.37.57,2.54,1.15,3.81.71,1.56.8,3.46,1.46,5.18.56,1.45.13,3.11,1.23,4.58.77,1.02.3,2.6.43,3.93.07.73-.04,1.52.84,1.93.5.23.34.74.36,1.15.06,1.17.07,2.35.13,3.53.05.92.03,1.73.83,2.58.83.88.25,2.37.34,3.57Z"/>
  <path d="m149.25,339.59c-1.4-.3-2.83.18-4.23-1.02-.8-.69-2.61-.21-3.96-.3-1.07-.08-2.17.23-3.05-.92-.47-.62-1.65-.26-2.5-.36-1.39-.17-2.96.3-3.98-1.14-.05-.07-.2-.09-.3-.08-2.75.31-5.08-1.41-7.74-1.56-.51-.03-1.02.01-1.38-.61-.42-.72-1.32-.58-2.06-.68-.85-.11-1.85.19-2.34-.95-.1-.24-.77-.3-1.19-.36-1.06-.14-2.27.27-2.95-1.07-.13-.25-.91-.15-1.39-.25-.85-.18-2.07.39-2.32-1.08-.01-.06-.19-.16-.27-.14-2.04.4-3.61-.96-5.12-1.76-1.38-.73-3.33-.46-4.25-2.09-.11-.2-.59-.19-.9-.28-.66-.18-1.61.11-1.71-1.01,0-.08-.16-.22-.21-.21-1.75.41-2.62-1.58-4.25-1.49-.48.03-.86-.06-.87-.65,0-.31-.19-.48-.51-.52-.98-.13-1.8-.9-2.49-1.1-1.45-.43-2.4-1.62-3.87-1.88-1.13-.2-1.82-1.17-2.6-1.94-.11-.1-.17-.4-.22-.39-1.58.31-2.36-1.16-3.63-1.59-1.13-.39-2.25-1.06-2.92-2.15-.17-.27-.34-.34-.61-.42-1.47-.41-2.46-1.47-3.62-2.35-.9-.68-1.55-2.02-3.15-1.9-.79.06-.94-1.44-1.99-1.48.05-.78-.47-.85-1.08-1.06-.72-.24-.33-1-.32-1.56,0-.68.45-.76,1-.97,1.67-.65,3.39-1.23,4.74-2.51.26-.25.81-.24,1.23-.29.57-.07,1.25.09,1.33-.79.02-.23.22-.35.46-.37,1-.11,2.13.01,2.54-1.27,1.82.36,2.97-1.17,4.37-1.79,1.15-.51,2.77-.57,3.58-1.86.05-.08.17-.19.25-.19,1.87.03,3.04-1.58,4.85-1.97,1.3-.28,2.99-.77,4.02-2.03.09-.12.23-.31.33-.29,1.8.21,2.95-1.29,4.39-1.89,1.13-.47,2.91-.42,3.59-1.95.2-.45.79-.21,1.2-.31.54-.14,1.24-.01,1.37-.84.06-.39.42-.42.75-.46.89-.11,1.99.22,2.28-1.15.03-.12.7-.09,1.07-.17.57-.13,1.41.14,1.43-.88,0-.09.13-.25.17-.24,1.65.29,2.45-1.39,3.89-1.62.57-.09,1.2.03,1.55-.84.29-.72,3.46-.69,3.88.04.42.74,1.2.49,1.59.87,1.45,1.43,3.88.75,5.16,2.43.2.26.48.2.74.22.92.08,1.98-.18,2.38,1.1.05.15.74.25,1.07.16,1.69-.46,2.54.98,3.76,1.56.08.04.16.19.14.27-.42,2.06.97,3.71,1.74,5.27.9,1.81.46,4.04,2.06,5.55.39.37.37,1.08.43,1.68.08.76-.29,1.81,1.02,1.99.07,0,.18.18.16.25-.52,2.2,1.46,3.77,1.49,5.84.01.71-.28,1.7.97,1.86.1.01.21.35.23.54.14,1.39.93,2.69,1.16,3.87.41,2.1,1.88,3.86,1.8,6.05-.01.38-.01.97.43,1.14.87.34.75,1.05.87,1.72.17.96-.34,2.23,1.17,2.66.13.04.11.58.16.89.18,1.09-.29,2.43,1.17,3.04-.42,1.85,1.35,3.04,1.5,4.72.08.92-.1,1.88.98,2.52.45.26.39,1.06.44,1.65.05.58-.03,1.37.31,1.69,1.55,1.46.15,1.34-.74,1.42-.81.07-1.63.02-2.46.02Z"/>
  <path d="m149.28.03c1.14.05,2.17-.14,3.2.1.59.14,1.03.63.49.94-.96.54-.67,1.37-.83,2.08-.18.82-.08,1.69-1.02,2.19-.5.26-.27.88-.36,1.33-.19.99.22,2.22-1.16,2.72-.04.01-.1.08-.09.11.48,1.92-1.58,3.11-1.43,4.96.06.73.2,1.65-.94,1.91-.12.03-.19.36-.23.56-.26,1.34-.84,2.65-1.14,3.86-.53,2.11-1.43,4.11-2.04,6.17-.45,1.53-.6,3.4-1.43,4.56-.89,1.25-.52,2.73-1.24,3.58-1.19,1.41-.52,3.35-1.4,4.34-1.03,1.15-.75,2.4-1.3,3.48-1.21,2.4-1.7,5.04-2.72,7.46-.53,1.25-.84,2.53-1.36,3.72-.4.9-1.39,1.94-2.76,2.05-1.01.08-2.24-.29-2.66,1.15-.01.04-.09.09-.12.08-1.95-.5-3.09,1.69-4.99,1.46-.58-.07-1.38-.07-1.43.89,0,.05-.05.14-.06.14-2.06-.19-3.28,2.38-5.52,1.62-.52-.18-1.27.03-1.28-.87,0-.09-.12-.26-.16-.25-1.73.32-2.61-1.49-4.17-1.6-.53-.04-1.13.08-1.2-.72-.03-.31-.26-.43-.56-.45-.97-.08-2.06.07-2.37-1.24-1.78.38-2.82-1.15-4.21-1.72-1.27-.52-2.83-.74-3.78-1.95-.06-.08-.16-.21-.24-.2-1.8.16-3.06-1.25-4.43-1.92-1.14-.57-2.86-.47-3.59-1.87-.07-.13-.26-.28-.38-.27-1.92.2-3.22-1.24-4.79-1.88-1.39-.57-3.1-.81-4.11-2.2-.14-.19-.59-.17-.9-.23-.66-.14-1.45-.02-1.65-.96-.08-.39-.5-.31-.81-.37-.81-.16-1.95.28-2.14-1.11-.01-.09-.59-.1-.9-.17-.68-.15-1.61.12-1.7-1.01,0-.08-.16-.22-.22-.21-1.77.32-2.65-1.46-4.26-1.74-1.1-.19-2.05-1.16-3.32-1.36-.64-.1-.55-2.35.08-2.39,1.13-.06.99-1.75,2.22-1.5.4-1.73,2.6-1.1,3.37-2.54.41-.78,1.57-1.15,2.29-1.81.28-.26.53-.58.9-.6,1.37-.08,1.81-1.54,3.05-1.97.57-.2,1.68-.64,1.9-1.03.8-1.41,2.7-.9,3.44-2.22.37-.65,1.58-.37,1.69-1.38,1.8.25,2.95-1.26,4.21-1.98,1.17-.66,3.02-.49,3.62-2.11.02-.04.08-.11.1-.1,1.62.43,2.47-1.04,3.69-1.56,1.49-.63,3.15-1.06,4.38-2.25.07-.07.19-.19.25-.18,1.88.42,2.84-1.77,4.64-1.58.98-2.02,3.8-.4,4.88-2.37.14-.25.91-.16,1.39-.22.92-.11,2.03.23,2.45-1.03.03-.08.18-.18.25-.17,2.21.37,3.93-1.13,5.85-1.71,2.18-.65,4.66-.62,6.6-2.11.38-.29,1.04-.23,1.57-.34,1.32-.27,2.77.33,3.94-1.12.45-.56,2.07-.17,3.14-.29,1.12-.12,2.37.3,3.23-.98.23-.34,1.21-.21,1.85-.24,1.19-.06,2.39-.07,3.58-.11.32-.01.82.05.94-.12,1.13-1.63,2.87-.82,4.2-1.14Z"/>
  <path d="m344.98,192.44c-.2,1.7.17,3.17-1.1,4.54-.59.63-.11,2.17-.23,3.28-.13,1.17.39,2.45-1,3.44-.49.35-.22,1.72-.33,2.61-.17,1.36.32,2.92-1.15,3.92-.07.04-.09.2-.08.3.33,2.66-1.48,4.89-1.57,7.48-.02.54.02,1.09-.72,1.45-.57.27-.51,1.12-.59,1.75-.11.96.19,2.06-1.04,2.61-.16.07-.2.47-.26.73-.25,1.14.33,2.58-1.22,3.24.52,2.11-1.19,3.58-1.63,5.44-.4,1.67-1.4,3.2-2.14,4.79-.09.18-.36.36-.33.5.31,1.77-1.87,2.64-1.62,4.37-1.85.49-.55,2.98-2.3,3.54-.04.01-.1.09-.1.12.32,1.65-1.12,2.65-1.74,3.86-.62,1.2-.95,2.68-2.02,3.63-.33.29-.4.58-.48.94-.31,1.42-1.33,2.35-2.36,3.27-.08.07-.25.15-.24.19.39,1.58-1.42,2.2-1.57,3.57-.12,1.1-1.17,2.18-1.72,2.52-1.38.84-1,2.54-2.32,3.32-.93.55-1.51,1.66-2.28,2.49-.14.15-.36.24-.36.47-.01,2.11-2.22,2.81-2.98,4.47-.31.67-2.09,0-2.42-.75-.71-1.64-1.23-3.38-2.58-4.7-.22-.22-.17-.7-.26-1.05-.15-.59.24-1.5-.92-1.52-.08,0-.24-.14-.23-.19.33-1.66-1.19-2.61-1.62-4-.42-1.37-1.36-2.59-2.07-3.87-.12-.22-.26-.45-.34-.69-.59-1.84-1.91-3.38-2.55-5.1-.54-1.46-1.89-2.58-1.8-4.32.08-1.5-1.3-2.47-1.86-3.78-.71-1.66-1.33-3.54-2.46-4.91-1.01-1.22-.59-3.16-2.32-3.88-.13-.05-.09-.49-.15-.74-.18-.69.23-1.66-1.03-1.83-.43-.06-.2-.64-.27-.99-.15-.67.13-1.59-1.01-1.71-.08,0-.23-.15-.22-.21.35-1.74-1.74-2.57-1.63-4.14.06-.94-1.04-.75-1.08-1.37-.08-1.3-.8-2.74.73-3.74.08-.05.2-.17.19-.24-.28-1.9,1.4-3.1,1.9-4.77.42-1.41.51-3.37,2.1-4.43.22-.15.31-.71.23-1.03-.39-1.65.92-2.57,1.58-3.76.06-.12.28-.24.4-.22,2.05.28,3.9-.82,5.4-1.65,1.78-.99,4.11-.42,5.51-2.19.24-.3,1.03-.18,1.55-.28.81-.15,1.93.35,2.21-.98.01-.07.19-.16.26-.15,2.3.53,3.9-1.58,6.08-1.54.63.01,1.49.12,1.66-.88.02-.1.25-.26.37-.24,2.17.26,3.79-1.5,5.89-1.57.66-.02,1.61.14,1.82-.92.02-.09.14-.22.21-.21,1.96.15,3.52-.99,5.27-1.53.94-.29,2.25.37,2.72-1.12.05-.15.7-.09,1.07-.16,1.05-.18,2.34.31,2.94-1.12.08-.18.69-.16,1.06-.21,1.1-.14,2.32.02,2.99-1.18.04-.08.19-.15.28-.13,2.09.3,3.54-1.74,5.62-1.49.25.03.57-.02.77-.16.34-.23.34-1.07,1.02-.67.53.31.38.95.42,1.47.04.75.01,1.5.01,2.01Z"/>
  <path d="m161.9,259.84c0,2.51,0,5.02,0,7.54,0,2.54-1.75,3.74-3.89,2.32-1.54-1.02-3.05-.77-4.6-.99-1.1-.16-2.23.2-3.18-.99-.55-.68-1.96-.24-2.98-.35-.85-.09-1.72.16-2.4-.87-.49-.73-1.73-.3-2.63-.42-.87-.12-1.92.19-2.29-1.02-.03-.1-.26-.22-.39-.21-1.35.1-2.39-.99-3.46-1.13-1.89-.25-3.55-1.14-5.01-1.91-1.19-.63-3.02-.52-3.72-2.1-.17-.38-.69-.21-1.04-.31-.59-.17-1.53.23-1.52-.92,0-.08-.15-.23-.19-.22-1.72.44-2.42-1.61-3.94-1.57-1.1.03-.99-1.74-2.25-1.41-.47-1.49-2.83-.66-3.08-2.43-1.37.06-1.74-1.53-3.18-1.74-1.12-.16-2.03-1.57-3.07-2.37-.51-.39-.72-2.27-.11-2.49.68-.25.91-.98,1.23-1.15,1.49-.75,2.19-2.27,3.49-3.21.6-.44,1.68-.95,1.91-2.05.14-.68,1.03-1.1,1.49-1.5,1.47-1.26,2.8-2.59,3.99-4.08.41-.51,2.35-.33,2.67.27.2.38.38.68.81.63,1.5-.17,2.13,1.23,3.1,1.86,1.33.87,2.66,1.74,4.11,2.29,1.03.39,1.85,1.16,2.62,1.71.89.64,2.03.6,2.58,1.13,1.26,1.23,3.47.51,4.33,2.28.02.04.09.09.13.08,1.76-.38,2.87,1.03,4.31,1.54,2.67.95,5.58,1.01,8.17,2.34,1.11.57,2.69.52,4,.34,1.61-.21,2.41,1.14,3.73,1.44.44.1.28.86.28,1.33.01,2.78,0,5.56,0,8.34Z"/>
  <path d="m161.9,79.87c0,2.56,0,5.13,0,7.69,0,1.79-1.26,3.12-3.1,3.23-1.03.07-2.06.04-3.09.12-.96.07-1.97-.22-2.7.93-.38.6-1.53.26-2.33.37-.97.14-2.12-.18-2.67,1.03-.05.11-.28.21-.42.19-2.14-.3-4.06.86-5.63,1.71-1.54.84-3.71.48-4.74,2.27-.09.15-.49.18-.75.18-1.63.03-2.52,1.26-3.64,2.12-.08.06-.16.23-.22.22-1.64-.18-2.39,1.4-3.76,1.85-1.02.34-2.09.95-2.67,1.98-.24.43-.61.34-.94.48-.59.25-1.21.19-1.64,1.03-.46.91-2.2.55-2.4.17-.75-1.41-2.08-2.19-3.08-3.3-1.08-1.21-2.58-2.07-3.55-3.35-.94-1.23-2.38-1.96-3.14-3.32-.44-.79-1.29-1.21-1.92-1.81-1.14-1.1-.97-1.78-.05-2.94.65-.83,1.6-1.17,2.26-1.98.63-.78,2.09-1.01,2.89-1.91.97-1.08,2.41-1.46,3.57-2.25.97-.65,1.7-2.2,3.33-1.79.53-1.61,2.82-.62,3.38-2.2.03-.09.14-.24.18-.23,1.68.29,2.68-1.12,3.93-1.73,1.39-.69,3.26-.56,4.25-2.09.13-.2.57-.22.88-.29,1.11-.23,2.45.14,3.09-1.26.07-.15.61-.08.92-.14.78-.14,1.57.13,2.18-.88.44-.74,1.72-.33,2.62-.44.88-.11,1.85.16,2.36-.96.22-.48.89-.25,1.36-.31,1.5-.2,3.09.17,4.38-1.14.4-.41,1.48-.35,2.2-.25,2.39.35,4.41-1.06,6.7-1.24,1.46-.12,1.97.37,1.95,1.74-.04,2.83-.01,5.66-.01,8.5h0Z"/>
  <path d="m81.1,159.36c-2.55,0-5.1,0-7.65,0-2.62,0-3.75-1.56-2.39-3.83.83-1.38.67-2.72.88-4.09.19-1.27-.11-2.6.99-3.7.53-.54.38-1.52.45-2.31.09-1.06-.17-2.11,1.02-2.96.67-.48.24-1.72.37-2.61.11-.79-.23-1.79.97-2.11.11-.03.23-.24.23-.36.03-1.26.93-2.41,1.05-3.36.25-1.92,1.38-3.39,2.03-5.01.47-1.19.58-2.86,1.97-3.67.05-.03.11-.07.11-.11-.07-1.67,1.34-2.73,1.97-4.07.51-1.1.77-2.57,2-3.53.61-.48,1.34-1.37,1.59-2.24.6-2.09,2.58-3.27,3.36-5.32.38-1.02,1.67-1.94,2.47-2.99.45-.59,2-.38,2.24.04.79,1.36,2.1,2.16,3.07,3.3.63.74,1.44,1.35,2.2,1.98.57.47,1.17,1.11,1.55,1.57,1.4,1.71,3.15,3.07,4.6,4.73.57.66,1.27,1.02,1.2,2-.04.54.06,1.09-.74,1.15-.16.01-.41.24-.43.39-.24,2.33-2.37,3.61-3.35,5.59-.82,1.67-1.5,3.85-3.35,5.01-.04.03-.09.09-.09.13.19,1.77-1.3,2.92-1.79,4.48-.47,1.5-.87,3.3-2.09,4.59-.07.07-.15.19-.15.28.17,2.47-2.08,4.32-1.76,6.84.09.7.09,1.52-.86,1.87-.44.16-.32.63-.34.99-.06,1.17-.3,2.38-.09,3.51.28,1.54-1.14,2.27-1.42,3.52-.1.44-.87.28-1.35.28-2.82.01-5.64,0-8.47,0Z"/>
  <path d="m263.83,159.36c-2.61,0-5.21,0-7.82,0-1.66,0-3.01-1.16-3.2-2.81-.11-1.01-.1-2.03-.17-3.04-.07-1.03.16-2.17-.98-2.87-.14-.08-.21-.4-.19-.59.27-2.54-1.05-4.78-1.82-7.01-.49-1.41-.55-3.37-2.17-4.42-.28-.18-.25-.89-.3-1.36-.09-.83.08-1.75-1.02-2.13-.13-.05-.25-.35-.25-.54-.06-1.7-1.31-2.7-2.25-3.91-.69-.89-1.08-2.04-1.58-3.03-.72-1.42-2.2-2.35-2.6-3.58-.45-1.42-1.85-2.29-1.83-3.99.02-1.26,1.67-.84,1.44-1.95,1.14-.14,1.11-1.58,2.2-1.86.77-.2,1.27-1.14,1.59-1.59.92-1.3,2.23-2.24,3.27-3.32,1.03-1.07,1.91-2.57,3.51-3.13.61-.21.07-1.3.96-1.26.83.04,2.08-.76,2.17.95,1.3-.01.97,1.71,2.09,1.91.42.08.36.47.41.77.23,1.42,1.28,2.28,2.33,3.08.39.29.32.62.45.94.52,1.25,1.17,2.42,2.3,3.24.42.3.37.75.46,1.15.14.6,0,1.3.97,1.38.52.05.27.6.37.93.19.64-.17,1.61,1.03,1.65.07,0,.21.15.2.2-.54,1.73,1.19,2.61,1.7,3.95.51,1.33.88,2.94,2.07,4.04.26.24.27.78.34,1.19.18.97.89,1.95,1,2.65.28,1.77,1.74,2.99,1.82,4.77.06,1.19-.24,2.41,1.03,3.48.58.48.23,2.02.33,3.08.07.76-.15,1.62.87,2.05.55.23.32.86.36,1.31.13,1.54-.09,3.2.43,4.59.42,1.13.86,2.17.97,3.39.11,1.22-.35,1.67-1.52,1.67-2.99-.01-5.97,0-8.96,0,0,0,0,.02,0,.03Z"/>
  <path d="m81.14,180.28c2.61,0,5.22,0,7.82,0,1.83,0,3.16,1.2,3.28,3.02.07,1.07.04,2.14.12,3.2.06.84-.25,1.8.92,2.32.48.21.25.98.35,1.5.25,1.34-.36,2.94,1.25,3.86.06.04.09.2.07.3-.34,2.06.87,3.88,1.72,5.39.85,1.52.48,3.67,2.32,4.67.1.05.15.28.16.43.03,1.74,1.17,2.86,2.26,4.02.07.08.18.18.17.26-.19,1.7,1.92,2.35,1.88,3.99-.02.73.87,1.1,1.17,1.29,1.35.86,1.02,2.68,2.43,3.5.73.43.49,2.07.06,2.28-1.49.72-2.4,2.06-3.44,3.11-1.1,1.11-2.37,2.16-3.4,3.4-.46.56-1.27,1.35-1.98,1.92-1.1.89-2.25,1.9-3.16,3.02-1.07,1.31-1.72,1.1-2.98.05-.72-.6-.83-1.76-1.89-1.94-.31-.05-.44-.25-.49-.55-.22-1.55-1.27-2.53-2.46-3.41-.31-.23-.21-.58-.31-.87-.46-1.29-1.31-2.31-2.34-3.2-.08-.07-.27-.12-.26-.15.31-1.58-1.42-2.31-1.57-3.7-.06-.54.06-1.24-.85-1.28-.13,0-.37-.19-.36-.26.26-1.74-1.33-2.74-1.88-4.18-.47-1.25-.52-2.99-2-3.84-.36-.21-.26-.68-.31-1.04-.16-1.02.06-2.17-1.19-2.78-.35-.17-.15-.69-.21-1.06-.11-.73.18-1.57-.92-1.95-.47-.16-.29-.97-.37-1.48-.22-1.29.43-2.85-1.2-3.7-.07-.03-.1-.2-.09-.3.48-3.15-2.04-5.78-1.58-8.93.27-1.86-1.25-3.3-1.18-5.17.05-1.24.35-1.74,1.62-1.72,2.93.04,5.87.01,8.8.01h0Z"/>
  <path d="m183.14,79.76c0-2.62,0-5.24,0-7.85.01-2.38.14-2.78,2.46-2.11,2.72.78,5.62.48,8.14,1.38,1.76.62,3.75.43,5.15,1.26,1.8,1.07,4.13.41,5.29,1.43,1.38,1.2,3.48.22,4.32,1.99.02.04.1.07.14.07,1.97-.25,3.4,1.13,5,1.81,1.37.58,2.83,1.18,4.18,1.9,1.28.67,2.39,1.88,3.98,1.97.52.03.98.04.98.73,0,.32.24.47.54.46,1.78-.05,2.75,1.2,3.86,2.26.25.24.65.39,1.01.44,1.29.21,1.95,1.27,2.81,2.03.3.26.57.43.92.55,1.34.46,2.19,1.51,3.22,2.38.79.67,1.67.97,1.21,2.19-.05.15.02.4-.07.46-1.84,1.22-2.95,3.24-4.76,4.4-.67.43-.44,1.81-1.68,1.43-.61,1.54-2.23,2.19-3.17,3.47-.81,1.1-2.06,1.84-2.88,3.03-.3.44-1.96.66-2.28-.08-.41-.94-1.08-.97-1.74-1.08-1.12-.19-1.35-1.4-2.38-1.82-.48-.2-1.14-.57-1.7-.9-1.21-.71-2.48-1.35-3.56-2.23-.69-.56-1.98-.23-2.16-1.46-1.72.27-2.67-1.33-4.22-1.67-1.74-.38-3.45-1.17-4.98-2.19-.09-.06-.19-.15-.28-.14-2.52.22-4.39-2.04-6.96-1.73-.8.1-1.75.12-2.15-.97-.14-.37-.69-.2-1.05-.22-1.19-.06-2.39-.09-3.58-.13-2.53-.1-3.6-1.2-3.6-3.69,0-2.46,0-4.92,0-7.37Z"/>
  <path d="m274.28,181.99c-.08,1.18-.29,2.04-.86,2.97-.76,1.27-.36,2.92-.47,4.41-.06.81.17,1.71-.89,2.2-.46.21-.29.87-.37,1.33-.25,1.48.42,3.1-1.11,4.41-.5.42-.18,1.74-.29,2.64-.09.75.16,1.68-.97,1.95-.08.02-.22.15-.21.21.41,1.85-1.26,3-1.6,4.64-.35,1.7-.91,3.45-2.26,4.76-.11.1-.2.29-.18.43.25,1.73-2,2.54-1.64,4.31-1.77.33-.49,2.8-2.28,3.14-.11.02-.24.35-.24.54.03,1.67-1.43,2.46-2.23,3.62-.19.27-.32.53-.4.83-.36,1.38-1.35,2.28-2.45,3.09-.16.11-.33.31-.35.48-.16,1.67-1.7,2.42-2.42,3.61-.84,1.38-1.9,1.53-2.58.91-.61-.56-1.31-1.16-1.9-1.81-.69-.76-1.82-1.28-2.19-2.15-.42-.99-1.58-1.06-1.91-2.08-.21-.66-1.1-1.12-1.62-1.55-1.7-1.41-3.02-3.21-4.86-4.49-.56-.38-.66-2.04-.07-2.29,1.1-.47.84-1.31,1.21-1.99.45-.83,1.05-1.69,1.82-2.19.57-.37.55-.82.8-1.25.79-1.34,1.61-2.7,2.34-4.04.6-1.11,1.3-2.38,1.95-3.28,1.1-1.52.37-3.74,2.24-4.75.04-.02.09-.09.08-.13-.41-1.88,1.35-3.01,1.65-4.73.38-2.21.86-4.55,1.69-6.53.76-1.82.86-3.51,1.01-5.29.21-2.56,1.27-3.62,3.88-3.62,5.27,0,10.53.01,15.8,0,1.34,0,2.32.24,1.88,1.71Z"/>
  <path d="m183.14,259.7c0-2.51,0-5.03,0-7.54,0-1.86,1.24-3.19,3.15-3.34.87-.07,1.74-.05,2.6-.12,1.08-.09,2.33.28,3.01-1.01.05-.09.3-.13.46-.12,2.57.23,4.84-1.01,7.14-1.73,1.55-.49,3.44-.77,4.67-2.19.2-.23.69-.23,1.06-.3.96-.17,2.14.19,2.57-1.16.03-.1.39-.15.6-.15,1.65.04,2.5-1.35,3.75-2.03.18-.1.31-.39.47-.39,1.61-.01,2.38-1.8,3.98-1.8.82,0,1.18-.99,1.35-1.28.82-1.4,2.75-.87,3.53-2.3.39-.71,1.9-.47,2.2-.1.91,1.14,2.29,1.87,2.97,3.07.5.89,1.4,1.21,1.99,1.97.67.88,1.51,1.89,2.37,2.47.76.51,1.03,1.61,2.1,1.69.82.06.68,1,1.17,1.46.84.78,2.45,1.32,2.18,2.98-.06.37-.03.69-.46.92-1.01.55-1.95,1.22-2.53,2.24-.13.23-.32.27-.53.28-1.67.11-2.43,1.38-3.49,2.4-.76.73-2.01.86-2.97,1.58-.93.69-1.75,2.04-3.31,1.63-.14,1.96-2.89.48-3.17,2.31-.02.1-.59.13-.91.18-.67.11-1.47-.01-1.62.96-.01.09-.14.24-.2.23-1.74-.27-3.02,1-4.15,1.77-1.66,1.13-3.94.45-5.23,2.13-.06.08-.17.21-.24.2-2.21-.24-3.74,2.1-6.07,1.54-.62-.15-1.44-.09-1.79.75-.22.52-.72.35-1.13.42-1.62.26-3.39-.36-4.82,1.17-.45.48-1.77.15-2.69.23-1.41.13-2.81-.07-4.14.96-.7.54-2.1.33-3.17.25-.83-.06-.64-.9-.65-1.43-.04-2.94-.02-5.88-.02-8.82h-.02Z"/>
  <path d="m294.73,169.69c0-4.28.07-8.56-.04-12.83-.04-1.5.19-2.23,1.9-1.85,1.29.28,2.86-.4,3.73,1.2.08.14.51.08.77.13,1.2.22,2.66-.27,3.42,1.19.02.03.1.06.15.05,2.19-.32,3.86,1.34,5.95,1.49,1.14.08,2.38-.03,3.22,1.14.21.3,1.01.18,1.54.27.94.16,2.12-.28,2.62,1.07.06.17.68.14,1.04.21,1.11.24,2.55-.43,3.21,1.13.05.12.51.07.77.12,1.22.25,2.71-.4,3.57,1.14.14.25.92.18,1.4.23,1.27.12,2.64-.1,3.52,1.17.05.07.2.13.29.12,2.38-.32,4.23,1.59,6.55,1.53.59-.02,1.06.15,1.51.7.67.82,1.81.59,2.76.61.96.02,1.21.41,1.19,1.26-.02.77-.06,1.29-1.11,1.33-1.2.05-2.68-.41-3.36,1.17-.01.03-.11.05-.15.04-2.41-.53-4.21,1.31-6.43,1.67-2.04.33-4.23.8-6.06,1.61-1.25.56-2.68.43-3.61,1.09-1.59,1.13-3.7.57-4.89,1.46-1.21.9-2.45.52-3.44,1.08-1.85,1.04-4.01.87-5.77,1.69-1.14.53-2.46.5-3.35,1.1-1.88,1.27-4.27.67-6.11,2.08-1.15.88-2.84.55-4.28.52-.83-.01-.51-.92-.51-1.45-.02-4.49-.01-8.98-.01-13.48,0,0,0,0,.01,0Z"/>
  <path d="m97.56,265.46c-.08.12-.16.42-.29.44-1,.18-1.69.76-2.49,1.37-1.25.96-2.95,1.25-4.17,2.45-.69.67-1.88.77-2.79,1.16-1.38.6-2.44,1.91-4.06,1.96-.45.01-.89.04-.9.65,0,.51-.37.55-.78.59-.87.08-1.9-.1-2.13,1.14-1.53-.24-2.39,1.06-3.61,1.55-1.4.56-2.69,1.4-4.07,2.03-1.3.6-2.6,1.41-3.63,2.19-1.16.88-3.03.54-3.64,2.14-.02.05-.08.12-.1.12-1.75-.41-2.66,1.26-4.12,1.7-1.18.35-2.38,1.11-3.5,1.78-.45.27-1,.45-1.39.76-1.3,1.03-3.17,1.06-4.26,2.42-.32.4-.86.38-1.14.09-.33-.35-.38-1.03.12-1.24.91-.38.63-1.4,1.05-1.77,1.15-1.03.81-2.85,2.21-3.66.12-.07.28-.24.27-.36-.09-1.6,1.03-2.94,1.8-3.92.91-1.17.55-3.04,2.21-3.65.08-.03.21-.16.19-.22-.48-1.68,1.62-2.41,1.51-3.97-.06-.9.96-1.32,1.39-1.87.85-1.08.79-2.65,2.07-3.4.08-.05.2-.16.19-.24-.16-1.75,1.17-3.13,1.98-4.19.84-1.11.45-2.92,2.06-3.47.09-.03.23-.15.22-.19-.46-1.7,1.08-2.69,1.72-3.87.7-1.28.97-2.86,2.2-3.92.53-.46.89-1.38,1.08-1.95.49-1.48,2.01-2.37,2.08-3.99.01-.34.07-.64.52-.66.41-.02.42.35.62.54.99.99,1.49,2.32,2.46,3.36.59.63,1.34,1.28,1.78,2.15.36.73,1.28,1.55,1.77,1.7,1.06.33.77,1.95,2.06,1.73-.06.93.79,1.03,1.28,1.5,1.34,1.28,2.62,2.63,3.99,3.89,1.07.98,2.31,1.98,3.22,3.26.4.57,1.23,1.54,2.26,1.65,1.27.14,1.39,1.72,2.61,1.87.05,0,.08.18.16.36Z"/>
  <path d="m172.38,49.53c-4.51,0-9.02-.03-13.53.02-1.1.01-1.65-.19-1.41-1.41.29-1.48-.39-3.23,1.3-4.34.2-.13.08-.71.13-1.08.14-1.01-.15-2.19,1.09-2.79.07-.04.14-.19.13-.28-.27-2.24,1.45-3.99,1.54-6.15.03-.73.11-1.41.8-1.99.64-.53.49-1.47.61-2.26.15-.96-.39-2.2,1.1-2.69.18-.06.14-.78.21-1.2.18-1.07-.37-2.37,1.1-3.04.21-.1.14-.8.21-1.22.15-1.01-.38-2.28,1.07-2.81.06-.02.12-.19.11-.28-.43-2.54,1.11-4.66,1.8-6.89.64-2.07.6-4.45,2.17-6.27.58-.67.38-1.76.39-2.66.01-.97.61-.97,1.3-.97.67,0,1.24-.02,1.31.95.09,1.23-.43,2.72,1.19,3.49.13.06.07.5.12.77.22,1.17-.31,2.6,1.19,3.33.03.01.04.1.04.15-.19,2.24,1.38,4.04,1.57,6.19.09,1.01-.14,2.15,1.14,2.75.22.1.16.79.23,1.2.17,1.03-.32,2.29,1.14,2.87.18.07.12.69.2,1.05.23,1.09-.44,2.44,1.11,3.18.28.13.15,1.1.22,1.68.15,1.16-.29,2.51,1.14,3.28.18.1.14.59.19.9.2,1.15-.2,2.51,1.19,3.26.07.04.12.2.11.29-.27,2.39,1.4,4.31,1.68,6.62.18,1.5,1.32,2.84,1.34,4.57.02,1.41-.18,1.84-1.69,1.81-4.51-.1-9.02-.04-13.52-.04,0,0,0,0,0,0Z"/>
  <path d="m51.47,51.72c.04-.45-.1-1.02.52-1.03.83-.02,1.73-.15,2.45.43.19.15.25.67.35.66,1.55-.1,2.45,1.14,3.64,1.74,1.42.71,3.16.95,4.2,2.33.27.35.7.22,1.05.31.63.16,1.46-.04,1.56,1,.04.41.52.25.81.32.71.16,1.73-.18,1.84,1.05,0,.08.24.21.37.22,1.85.05,2.86,1.67,4.31,2.27,1.33.54,2.61,1.24,3.81,1.91,1.29.72,3.03.81,3.88,2.26.25.42.68.21,1.02.31.64.18,1.64-.2,1.66,1,0,.07.16.22.21.2,1.74-.52,2.73,1.06,3.88,1.69,1.29.71,2.79,1.08,4.01,2.04.91.71,2.13,1.23,3.22,1.69,1.09.46,1.55,1.93,3.02,1.68.25-.04.31.71.06.75-.88.14-1.04,1.22-1.55,1.34-1.99.44-3.33,2-4.41,3.23-1.46,1.68-3.31,2.92-4.74,4.63-.93,1.11-2.2,2.24-3.37,3.27-.57.5-1.65,1.03-1.82,2.11-.12.75-1.07,1.01-1.54,1.42-1.72,1.52-2.63,3.57-4.11,5.2-.43.47-.72.26-1.02-.35-1.06-2.11-1.95-4.33-3.63-6.09-.14-.14-.25-.38-.24-.57.09-1.68-2.03-2.45-1.78-4.19-2.01-.2-.45-2.97-2.4-3.27-.11-.02-.12-.69-.17-1.05-.08-.61.07-1.35-.9-1.4-.09,0-.27-.12-.26-.16.27-1.58-1.15-2.43-1.69-3.65-.63-1.42-1.43-2.82-2.23-4.18-.63-1.06-1.34-2.33-1.97-3.3-.72-1.13-.47-2.89-2.01-3.52-.09-.04-.23-.15-.22-.2.35-1.76-1.32-2.68-1.87-4.08-.47-1.19-.71-2.78-2.07-3.57-.27-.16-.32-.39-.37-.66-.13-.8.01-1.64-1.12-2.04-.56-.2-.16-1.19-.4-1.74Z"/>
  <path d="m269.58,243.33c.27.15.53.25.52.3-.3,1.53,1.29,2.2,1.62,3.5.28,1.09,1.14,2.06,1.84,3.01.16.22.55.32.57.67.07,1.57,1.75,2.49,1.67,4.11,1.79.4.57,2.96,2.44,3.34.11.02.12.48.18.73.19.69-.2,1.72,1.07,1.78.04,0,.11.08.1.11-.37,1.62,1.24,2.41,1.64,3.75.4,1.36,1.32,2.57,1.98,3.85.65,1.24,1.4,2.53,2.21,3.56.88,1.14.6,2.94,2.22,3.57.17.07.16.57.23.88.17.71-.14,1.69,1.07,1.82.07,0,.2.16.19.22-.26,1.71,1.15,2.85,1.88,4,.75,1.18.79,2.7,2.05,3.73.75.61.6,2.2,1.65,2.99.14.11.14.7-.23.82-.39.13-.98.25-1.16-.23-.34-.9-1.33-.66-1.79-1.08-1.1-.99-2.72-.99-3.7-2.1-.1-.11-.24-.3-.34-.29-1.79.26-2.55-1.97-4.33-1.72-.45-1.8-3.08-.49-3.49-2.36,0-.03-.1-.08-.14-.07-1.7.51-2.39-1.31-3.82-1.6-1.06-.21-1.96-1.2-2.93-1.85-.13-.09-.23-.3-.34-.3-1.74.07-2.57-1.97-4.34-1.79-.43-1.77-2.9-.58-3.42-2.3-.11-.36-.69-.14-1.05-.24-.6-.16-1.54.14-1.5-.99,0-.07-.14-.23-.19-.22-1.68.34-2.59-1.13-3.85-1.71-1.38-.63-2.82-1.26-4.14-2.13-.97-.64-1.93-1.55-3.3-1.85-1.05-.23-1.97-1.3-3.24-1.45-.14-.02-.16-.69,0-.69,1.15,0,1.35-1.22,2.24-1.59,1.26-.52,2.09-1.7,3.14-2.44,1.31-.93,2.24-2.2,3.52-3.15,1.12-.82,2.17-2.03,3.18-3.12.7-.76,1.48-1.49,2.31-2.11.57-.42.22-1.74,1.47-1.45,1.18-2.19,3.6-3.39,4.6-5.77.32-.76,1.28-1.3,1.71-2.15Z"/>
  <path d="m294.74,50.2c.02.36-.09.62-.5.68-.28.04-.62.18-.58.46.28,1.79-1.21,3.03-1.95,4.2-.68,1.08-.37,2.97-2.13,3.43-.17.04-.17.67-.27,1.02-.17.61.07,1.44-1,1.56-.49.06-.29.61-.37.95-.15.67.13,1.59-1.01,1.69-.08,0-.22.15-.21.2.5,1.72-1.63,2.36-1.63,3.89,0,.93-.92,1.44-1.38,1.99-.93,1.11-.71,2.82-2.15,3.59-.21.11-.24.57-.34.87-.22.63.06,1.58-1.09,1.64-.1,0-.24.33-.27.52-.14.89.1,1.97-1.23,2.23.33,1.63-1.25,2.48-1.62,3.85-.35,1.27-1.33,2.3-1.88,3.53-.23.52-.83,1.09-.8,1.71.07,1.11-.98,1.67-1.44,2.02-1.33,1.01-.67,3.03-2.26,3.74-.04.02-.07.08-.11.12-.4.58-.14,2.04-.82,1.76-.95-.39-1.75-1.39-2.31-2.46-.51-.97-1.41-1.73-2.08-2.58-.58-.75-1.6-.99-1.95-2.03-.22-.66-1-1.31-1.53-1.78-1.38-1.22-2.59-2.59-3.91-3.82-.6-.55-1.07-1.59-2.23-1.75-.53-.07-.96-.98-1.43-1.46-1.53-1.54-2.95-3.11-4.99-4.07-.64-.3-.77-1.41-1.81-1.31-.04,0-.18-.37-.16-.55.04-.32.34-.33.6-.4,1.72-.51,3.07-1.71,4.63-2.45,1.14-.54,2.24-1.25,3.34-1.81,1.23-.63,2.89-.78,3.68-2.17.2-.36.54-.28.84-.34.77-.15,1.81.18,1.93-1.11,0-.08.49-.11.74-.18.69-.2,1.75.21,1.81-1.05,0-.07.17-.2.23-.19,1.81.29,2.84-1.32,4.3-1.9,1.14-.45,2.49-1.08,3.64-1.92.91-.67,2.42-1.3,3.32-1.93,1.13-.78,3.01-.4,3.53-2.05.02-.08.18-.19.25-.17,1.83.36,2.96-1.19,4.28-1.87,1.16-.59,3.02-.49,3.6-2.15.05-.13.48-.13.74-.19.74-.17,1.67.03,1.88-1.1.06-.32.56-.22.87-.26.68-.09,1.41-.05,1.72-.91.19-.52.73-.38,1.14-.31.35.06.3.38.31.64Z"/>
  <path d="m50.34,169.97c0,4.44-.03,8.87.02,13.31.01,1.1-.24,1.59-1.47,1.37-1.44-.27-3.1.2-4.17-1.27-.03-.04-.1-.06-.15-.06-2.13.32-3.74-1.3-5.75-1.46-.92-.07-1.94.11-2.55-.97-.16-.29-.89-.32-1.36-.37-1.09-.11-2.13,0-3.02-1.05-.53-.63-1.76-.25-2.67-.35-.8-.1-1.82.22-2.12-.97-.02-.07-.17-.18-.23-.17-2.29.58-3.94-1.45-6.1-1.47-.73,0-1.71.23-2.01-.89-.03-.1-.27-.2-.41-.21-2.16-.08-4.13-.82-6.14-1.5-1-.34-2.28.13-2.93-1.19-.12-.24-.91-.16-1.39-.24-.99-.16-2.05.2-2.82-1.03-.4-.65-1.73-.32-2.64-.33-.96,0-1.19-.42-1.18-1.26.01-.8.14-1.37,1.14-1.29,2.41.2,4.22-2.03,6.69-1.62,1.03-1.32,2.8-.64,3.9-1.29,1.71-1.02,3.82-.66,5.22-1.53,1.44-.89,3.12-.46,4.13-1.21,1.44-1.06,3.38-.48,4.28-1.29,1.52-1.36,3.49-.47,4.64-1.41,1.76-1.44,4.26-.48,5.81-2.18.22-.24.83-.15,1.26-.2,1.02-.14,2.14.1,2.86-1.04.2-.31,1-.27,1.54-.34.97-.13,1.78-.22,2.72-.94,1.18-.91,3.02-.54,4.57-.42.53.04.31.82.31,1.27.01,4.54,0,9.09,0,13.63Z"/>
  <path d="m172.62,290.12c4.5,0,9.01.04,13.51-.02,1.23-.02,1.68.28,1.42,1.55-.28,1.35.27,2.94-1.24,3.92-.07.05-.13.2-.11.29.36,2.35-1.05,4.34-1.71,6.38-.61,1.87-.53,4.12-2.13,5.72-.61.61-.27,1.64-.39,2.48-.14.93.33,2.09-1.04,2.59-.17.06-.13.67-.21,1.03-.23,1.1.44,2.52-1.17,3.12-.03.01-.06.1-.05.14.45,2.26-1.46,3.94-1.57,6.06-.11,2.22-1.77,4.06-1.57,6.35-1.5.92-.64,2.77-1.36,3.72-1.09,1.44-1.04,2.93-1.28,4.48-.12.79-.97.43-1.52.48-.54.05-1.04-.11-.94-.77.35-2.46-2.03-4.27-1.65-6.73-1.83-1.45-.45-4.12-2.22-5.64-.52-.45-.26-1.33-.36-2.01-.13-.89.22-1.97-1.06-2.41-.16-.05-.16-.57-.22-.87-.25-1.2.4-2.66-1.16-3.49-.24-.13-.12-.91-.18-1.38-.13-.92.35-2.08-1.01-2.54-.07-.02-.13-.17-.15-.27-.25-2-.75-3.9-1.38-5.85-.68-2.06-2.03-4.08-1.73-6.43-1.55-1.1-.61-3.24-1.48-4.2-1.25-1.39-.89-2.8-1.18-4.23-.27-1.33.33-1.49,1.49-1.48,4.56.06,9.12.02,13.68.02Z"/>
</svg>